<svg xmlns="http://www.w3.org/2000/svg" viewBox="0 0 1770.01 266.39"><defs><style>@keyframes hiddencog-rotate{0%,to{transform:translate(-150%,50%) rotate(0deg)}50%{transform:translate(150%,50%) rotate(1440deg)}}</style></defs><path fill="#171332" d="M0 0h1770.01v266.39H0z" id="Layer_2" data-name="Layer 2"/><path d="M1750.92 117.94l-13.46-2.81a11.13 11.13 0 0 1-4.63-19.54l10.75-8.65c9.25-7.43 2-22.33-9.51-19.44l-13.34 3.37c-9 2.28-16.62-7.11-12.57-15.59l6-12.49c5.13-10.75-7.85-21-16.93-13.35l-10.57 8.87a11 11 0 0 1-18-8.53V15.9c0-11.93-16.09-15.46-21-4.61l-5.71 12.62a11 11 0 0 1-19.91.21l-6-12.51c-5.12-10.75-21.14-6.88-20.89 5l.28 13.87a11 11 0 0 1-17.85 8.9l-10.74-8.65c-9.24-7.44-22 3.05-16.67 13.69l6.22 12.37c4.22 8.39-3.17 17.93-12.25 15.84l-13.4-3.1c-11.52-2.66-18.52 12.39-9.13 19.63l10.92 8.43a11.12 11.12 0 0 1-4.23 19.63l-13.4 3.08c-11.53 2.65-11.36 19.27.21 21.69l13.47 2.8a11.13 11.13 0 0 1 4.62 19.55l-10.75 8.66c-9.24 7.43-2 22.34 9.52 19.44l13.33-3.36c9-2.29 16.62 7.11 12.57 15.58l-6 12.5c-5.13 10.74 7.85 21 16.94 13.35l10.56-8.88a11 11 0 0 1 18 8.54v13.87c0 11.93 16.09 15.46 21 4.61l5.7-12.62a11 11 0 0 1 19.91-.2l6 12.5c5.12 10.75 21.14 6.89 20.9-5l-.29-13.87a11 11 0 0 1 17.85-8.9l10.75 8.66c9.23 7.44 22-3.06 16.66-13.69l-6.22-12.38c-4.22-8.38 3.17-17.93 12.25-15.83l13.41 3.09c11.52 2.66 18.51-12.39 9.12-19.63l-10.92-8.42a11.13 11.13 0 0 1 4.23-19.64l13.41-3.08c11.53-2.64 11.36-19.29-.21-21.7zm-128.25 48.6v.46a27.6 27.6 0 0 1-3.73 13.92l-4.27 5.58a27.22 27.22 0 0 1-12.06 7.09l-7.26 1a30.29 30.29 0 0 1-19.32-8.08 20.77 20.77 0 0 1-5.65-8.87A21 21 0 0 1 1568 167v-.48a27.7 27.7 0 0 1 3.73-13.92l4.27-5.6a27.22 27.22 0 0 1 12.06-7.09l7.26-1a30.29 30.29 0 0 1 19.32 8.08 20.71 20.71 0 0 1 5.65 8.87 21 21 0 0 1 2.38 10.68zm-27.32-48c-15.32 0-26.66-12.63-27.32-27.57s13-27.57 27.32-27.57c15.32 0 26.66 12.63 27.32 27.57s-13.03 27.59-27.32 27.59zm74.37 76.52c-15.32 0-26.66-12.63-27.32-27.57s13-27.57 27.32-27.57c15.31 0 26.66 12.63 27.32 27.57s-13.04 27.59-27.32 27.59zm1.45-76c-15.32 0-26.66-12.63-27.32-27.57s13-27.57 27.32-27.57c15.31 0 26.65 12.63 27.32 27.57s-13.03 27.56-27.32 27.56z" style="animation:25s hiddencog-rotate infinite linear;transform-origin:92% 50%" fill="#282157" stroke="#282157" stroke-miterlimit="10" id="Layer_1" data-name="Layer 1"/></svg>