<svg xmlns="http://www.w3.org/2000/svg" viewBox="0 0 181.28 200.65">
   <defs>
      <style>
     
     .bellscls-1{fill:#2a5d67;}.bellscls-1,.bellscls-10,.bellscls-12,.bellscls-3,.bellscls-4,.bellscls-9{stroke:#2a5d67;}.bellscls-1,.bellscls-10,.bellscls-11,.bellscls-12,.bellscls-13,.bellscls-2,.bellscls-3,.bellscls-4,.bellscls-5,.bellscls-6,.bellscls-7,.bellscls-8,.bellscls-9{stroke-miterlimit:10;}.bellscls-2{fill:#fed9ae;stroke:#000;}.bellscls-3,.bellscls-6{fill:none;}.bellscls-3,.bellscls-4,.bellscls-6{stroke-width:5px;}.bellscls-4{fill:#fff;}.bellscls-5,.bellscls-7,.bellscls-9{fill:#4ae3b5;}.bellscls-11,.bellscls-5,.bellscls-6,.bellscls-7{stroke:#4ae3b5;}.bellscls-10,.bellscls-11,.bellscls-12,.bellscls-13,.bellscls-7,.bellscls-9{stroke-width:2px;}.bellscls-8{fill:#2A5D67;stroke:#2A5D67;}.bellscls-10{fill:#4ae3b5;}.bellscls-11,.bellscls-12,.bellscls-13{fill:#4ad9ae;}.bellscls-13{stroke:#4ad9ae;}

.coins1{
  opacity : 0;
  stroke-dasharray : 100;
  stroke-dashoffset: 100;
  transition: 2s all;
}

.coins2{
  opacity : 0;
  stroke-dasharray : 100;
  stroke-dashoffset: 100;
  transition: 2s all;
  transition-delay: 1s;
} 

svg:hover .coins1{
      stroke-dashoffset: 0;
      opacity: 1   
}
svg:hover .coins2{
      stroke-dashoffset: 0;
      opacity: 1
}
   </style>
   </defs>
   <g id="bagtop">
      <path class="bellscls-1" d="M87,24.56c14,1.37,15.85,4.43,23.79,4.94,12.5.81,13.51-6.42,29.55-7.4,6.79-.41,11.59.58,20.72,2.47,15,3.1,28.94,9,28.53,10.57-.23.86-4.66-.27-13.15-.25-5.9,0-9.27.58-21.15,2.37-16.61,2.52-25,3.73-28.8,4-9.14.56-14.89.91-22.12-1.46-5.89-1.92-6.28-3.53-17.5-8.29C78.52,27.94,74,26.81,74.16,25.7,74.38,24.3,81.83,24.05,87,24.56Z" transform="translate(-38.3 -21.51)"/>
      <path class="bellscls-2" d="M218.45,86" transform="translate(-38.3 -21.51)"/>
      <path class="bellscls-2" d="M74.16,25.7" transform="translate(-38.3 -21.51)"/>
      <path class="bellscls-3" d="M74.16,25.7c7.49,7.43,15,14.91,21.36,23.38a82.23,82.23,0,0,1,8.25,13.36c2,4.1,3.1,8,8.21,8.68,0,0,22.64-3.6,37.7-.41l-.6.08a3.88,3.88,0,0,0,2.62-1C163,55,173.2,43.15,189.57,35.14" transform="translate(-38.3 -21.51)"/>
   </g>
   <g id="bagbottom">
      <path class="bellscls-4" d="M68.85,90.8c-18,15.86-35.29,47.35-24.92,70.24,2.7,5.94,7.54,12,20.07,19.38,52.69,31.23,113.63,9.74,117.3,8.3,12.65-5,21.42-8.56,28-17.84,14.3-20.27,7.11-52.23-6.5-70.74C175.12,62.56,105.18,58.85,68.85,90.8Z" transform="translate(-38.3 -21.51)"/>
      <path class="bellscls-5" d="M149.3,167.69l-15.62-8a3.06,3.06,0,0,0-2.85,0l-15.42,8.35a3.06,3.06,0,0,1-4.48-3.17l2.75-17.32a3.07,3.07,0,0,0-.91-2.7l-12.71-12.08a3.06,3.06,0,0,1,1.63-5.24L119,124.85a3,3,0,0,0,2.29-1.7l7.56-15.82a3.06,3.06,0,0,1,5.49-.07l8,15.63a3,3,0,0,0,2.32,1.65L162,126.85a3.06,3.06,0,0,1,1.76,5.2l-12.4,12.39a3.08,3.08,0,0,0-.85,2.72l3.18,17.25A3.06,3.06,0,0,1,149.3,167.69Z" transform="translate(-38.3 -21.51)"/>
   </g>
   <g id="string">
      <path class="bellscls-6" d="M104.44,70A41.31,41.31,0,0,0,155,69.2" transform="translate(-38.3 -21.51)"/>
      <path class="bellscls-6" d="M97.54,72.2c1.09,1.67,10.34,15.37,27.59,16.71,13.5,1,26.65-5.89,34-17.84" transform="translate(-38.3 -21.51)"/>
      <path class="bellscls-6" d="M90.24,76.54a27.53,27.53,0,0,1,15.27,24.11c.07,11.79-8,22.6-19.89,26.28" transform="translate(-38.3 -21.51)"/>
   </g>
   <g id="coins1">
      <ellipse class="bellscls-7 coins1" cx="24.95" cy="189.08" rx="20.04" ry="8.42"/>
      <path class="bellscls-8 coins1" d="M56.85,214.12l1.6-3.43a.24.24,0,0,0-.06-.28l-2.76-2.58c-.2-.2,0-.51.36-.53l4.72-.32a.57.57,0,0,0,.36-.16l2.79-3.07c.21-.23.65-.21.75,0L65.93,207a.35.35,0,0,0,.28.19l4.48.68c.34.06.4.38.11.55l-3.9,2.32a.33.33,0,0,0-.19.27l0,3.49c0,.26-.41.44-.68.31L62.27,213a.52.52,0,0,0-.39,0l-4.5,1.46C57.05,214.58,56.73,214.37,56.85,214.12Z" transform="translate(-38.3 -21.51)"/>
      <ellipse class="bellscls-9 coins1" cx="24.95" cy="184.76" rx="20.04" ry="8.42"/>
      <path class="bellscls-1 coins1" d="M57.31,210.68l1.6-3.43a.24.24,0,0,0-.06-.28l-2.76-2.58c-.2-.2,0-.51.36-.53l4.72-.32a.55.55,0,0,0,.36-.16l2.79-3.07c.21-.23.65-.21.75,0l1.33,3.23a.33.33,0,0,0,.27.19l4.49.68c.33.06.39.38.1.55l-3.9,2.32a.33.33,0,0,0-.19.27l0,3.49c0,.26-.4.44-.68.31l-3.74-1.8a.52.52,0,0,0-.39,0L57.84,211C57.51,211.14,57.19,210.93,57.31,210.68Z" transform="translate(-38.3 -21.51)"/>
   </g>
   <g id="coins2">
      <ellipse class="bellscls-7 coins2" cx="160.11" cy="177.08" rx="20.04" ry="8.42"/>
      <ellipse class="bellscls-10 coins2" cx="160.11" cy="172.76" rx="20.04" ry="8.42"/>
      <ellipse class="bellscls-11 coins2" cx="160.11" cy="170.81" rx="20.04" ry="8.42"/>
      <ellipse class="bellscls-12 coins2" cx="160.11" cy="166.5" rx="20.04" ry="8.42"/>
      <ellipse class="bellscls-13 coins2" cx="160.11" cy="164.23" rx="20.04" ry="8.42"/>
      <ellipse class="bellscls-10 coins2" cx="160.11" cy="159.91" rx="20.04" ry="8.42"/>
      <ellipse class="bellscls-13 coins2" cx="160.11" cy="157.96" rx="20.04" ry="8.42"/>
      <ellipse class="bellscls-12 coins2" cx="160.11" cy="153.65" rx="20.04" ry="8.42"/>
      <ellipse class="bellscls-7 coins2" cx="116.68" cy="191.23" rx="20.04" ry="8.42"/>
      <ellipse class="bellscls-10 coins2" cx="116.68" cy="186.92" rx="20.04" ry="8.42"/>
      <ellipse class="bellscls-7 coins2" cx="116.68" cy="184.97" rx="20.04" ry="8.42"/>
      <ellipse class="bellscls-12 coins2" cx="116.68" cy="180.65" rx="20.04" ry="8.42"/>
      <ellipse class="bellscls-7 coins2" cx="116.68" cy="177.92" rx="20.04" ry="8.42"/>
      <path class="bellscls-8 coins2" d="M148.58,203l1.6-3.43a.24.24,0,0,0-.06-.28l-2.76-2.58c-.2-.2,0-.51.36-.53l4.72-.32a.57.57,0,0,0,.36-.16l2.79-3.07c.21-.23.65-.21.75,0l1.32,3.23a.35.35,0,0,0,.28.19l4.48.68c.34.06.4.38.11.55l-3.9,2.32a.33.33,0,0,0-.19.27l0,3.49c0,.26-.41.44-.68.31l-3.74-1.8a.52.52,0,0,0-.39,0l-4.5,1.46C148.78,203.42,148.46,203.21,148.58,203Z" transform="translate(-38.3 -21.51)"/>
      <ellipse class="bellscls-12 coins2" cx="116.68" cy="173.6" rx="20.04" ry="8.42"/>
      <path class="bellscls-1 coins2" d="M149,199.52l1.6-3.43a.23.23,0,0,0-.06-.28l-2.76-2.58c-.2-.2,0-.51.36-.53l4.72-.32a.55.55,0,0,0,.36-.16l2.79-3.07c.21-.23.65-.21.75,0l1.33,3.23a.33.33,0,0,0,.27.19l4.49.68c.33.06.39.38.1.55l-3.9,2.32a.33.33,0,0,0-.19.27l0,3.49c0,.26-.4.44-.68.31l-3.74-1.8a.52.52,0,0,0-.39,0l-4.5,1.47C149.24,200,148.93,199.77,149,199.52Z" transform="translate(-38.3 -21.51)"/>
      <ellipse class="bellscls-13 coins2" cx="159.74" cy="150.65" rx="20.04" ry="8.42"/>
      <path class="bellscls-8 coins2" d="M191.64,175.69l1.6-3.42a.26.26,0,0,0-.06-.29l-2.76-2.58c-.2-.19,0-.5.36-.53l4.72-.32a.57.57,0,0,0,.36-.16l2.79-3.06c.21-.23.65-.21.75,0l1.32,3.23a.36.36,0,0,0,.28.18l4.49.69c.33,0,.39.37.1.55l-3.9,2.31a.33.33,0,0,0-.19.28l0,3.49c0,.26-.4.44-.68.3l-3.74-1.79a.52.52,0,0,0-.39,0l-4.5,1.47C191.84,176.16,191.52,176,191.64,175.69Z" transform="translate(-38.3 -21.51)"/>
      <ellipse class="bellscls-12 coins2" cx="159.74" cy="146.34" rx="20.04" ry="8.42"/>
      <path class="bellscls-1 coins2" d="M192.1,172.25l1.6-3.42a.23.23,0,0,0-.06-.29L190.88,166c-.2-.19,0-.5.36-.53l4.72-.32a.55.55,0,0,0,.36-.16l2.79-3.06c.21-.23.65-.21.75,0l1.33,3.23a.34.34,0,0,0,.27.18L206,166c.33,0,.39.37.1.55l-3.9,2.31a.36.36,0,0,0-.19.28l0,3.49c0,.26-.4.44-.68.3l-3.74-1.79a.52.52,0,0,0-.39,0l-4.5,1.47C192.3,172.72,192,172.51,192.1,172.25Z" transform="translate(-38.3 -21.51)"/>
   </g>
</svg>