<svg id="Layer_1" data-name="Layer 1" xmlns="http://www.w3.org/2000/svg" viewBox="0 0 3034.2 643.6">
  <defs>
    <style>
      .hbcls-1,.hbcls-2,.hbcls-3,.hbcls-4,.hbcls-5,.hbcls-6,.hbcls-7,.hbcls-8,.hbcls-9{fill:none}.hbcls-1{stroke:#fed9ae}.hbcls-1,.hbcls-10,.hbcls-2,.hbcls-3,.hbcls-4,.hbcls-5,.hbcls-6,.hbcls-7,.hbcls-8,.hbcls-9{stroke-miterlimit:10}.hbcls-1,.hbcls-2,.hbcls-3,.hbcls-4,.hbcls-6,.hbcls-7,.hbcls-9{stroke-width:3px}.hbcls-2{stroke:#000}.hbcls-3{stroke:#ff8181}.hbcls-4{stroke:#8cc63f}.hbcls-5,.hbcls-6{stroke:#ffbee5}.hbcls-7,.hbcls-8{stroke:#ffc292}.hbcls-9{stroke:#a3efff}.hbcls-10{fill:#fff;stroke:#dfcca8}
    </style>
  </defs>
  <path class="hbcls-1" d="M1071.3 22.5c9.2 1 10.4 3 15.7 3.4 8.2.6 8.9-4.4 19.5-5 4.4-.4 7.6.3 13.6 1.6 10 2.1 19.1 6.2 18.8 7.3-.1.6-3-.2-8.6-.2-4 0-6.2.4-14 1.6-11 1.7-16.5 2.6-19 2.7-6 .4-9.9.7-14.6-1-4-1.3-4.2-2.4-11.6-5.6-5.5-2.5-8.5-3.3-8.3-4s5-1.1 8.5-.8z" transform="translate(-11.8 -18.6)"/>
  <path class="hbcls-1" d="M1062.8 23.3a145.7 145.7 0 0114 16 56 56 0 015.5 9.2c1.3 2.8 2 5.5 5.4 6 0 0 15-2.5 25-.3h-.5a2.5 2.5 0 001.7-.7 70.6 70.6 0 0125-23.8" transform="translate(-11.8 -18.6)"/>
  <path class="hbcls-1" d="M1059.3 68c-12 10.8-23.3 32.4-16.4 48.1 1.7 4 5 8.2 13.2 13.3 34.8 21.4 75 6.7 77.4 5.7 8.3-3.4 14.1-5.9 18.4-12.2 9.5-14 4.7-35.9-4.3-48.6-18.2-25.7-64.3-28.3-88.3-6.4z" transform="translate(-11.8 -18.6)"/>
  <path class="hbcls-3" d="M1318 82l-10.8-4.8a7.1 7.1 0 01-3.4-9.5 3.6 3.6 0 01.2-.4l5.7-10.6c3.1-5.8-2.4-12.4-8.3-10l-11 4.6a6.7 6.7 0 01-8.6-3.7 7.5 7.5 0 01-.3-1l-3.2-11.7a6.7 6.7 0 00-12.7-.8l-4.6 11.1a6.6 6.6 0 01-8.6 3.8 7.2 7.2 0 01-.9-.4l-10.2-6c-5.5-3.2-11.9 2.6-9.5 8.7l4.3 11.3a7 7 0 01-4 9.2l-.5.1-11.3 3.3c-6 1.8-6.6 10.6-.8 13.2l10.8 4.8a7.1 7.1 0 013.4 9.5 3 3 0 01-.2.4l-5.7 10.6c-3.1 5.8 2.4 12.4 8.3 10l11-4.6a6.7 6.7 0 018.6 3.7 5.8 5.8 0 01.3 1l3.2 11.7a6.7 6.7 0 0012.7.8l4.6-11.2a6.6 6.6 0 018.6-3.7 5.6 5.6 0 01.9.4l10.2 6c5.6 3.2 12-2.6 9.6-8.7l-4.4-11.3a7 7 0 014-9.2 4 4 0 01.5-.1l11.3-3.4c6-1.7 6.6-10.5.8-13.1zm-33.9 10.5a13.2 13.2 0 01-3.4 5.6 12.6 12.6 0 01-5.4 3.6 12.3 12.3 0 01-6.5 1.5 33 33 0 01-4.6-.6c-2.5-.4-5.8-2.7-7.5-4.5s-4-5.2-4.4-7.8a35.9 35.9 0 01-.6-4.8 18 18 0 012.3-8.8l2.6-3.6a16.5 16.5 0 017.4-4.4l4.5-.7a12.1 12.1 0 016.5 1.5 12.5 12.5 0 015.4 3.6l.2.3.2.2 1 1.1a17.5 17.5 0 013.2 6.4l.6 4.6a13.5 13.5 0 01-1.5 6.8z" transform="translate(-11.8 -18.6)"/>
  <path class="hbcls-4" d="M1487.3 80.5s-5.4-14-22.8-25.5c0 0-28.5-18.3-51.9-6.7 0 0-13.7 6-16.9 38s-15.3 38-15.3 38 21.4 23.3 70.3 13.4v-1a19 19 0 01-11.7-17 18.1 18.1 0 0117.6-18.3c9.8 0 17.1 8.4 17.5 18.3a16.6 16.6 0 01-2.5 9.4 3.6 3.6 0 01.5.4c25.6-16.8 15.2-49 15.2-49z" transform="translate(-11.8 -18.6)"/>
  <path class="hbcls-4" d="M1476 21.6L1457.8 40l-4.6-3.3 8.2-25 14.6 10z"/>
  <path class="hbcls-6" d="M1662.8 61.7c-24.2-52.2-83.2-20-71.8 23.4l3.3 14.6-39.4 40.6c-3.8 4-1.3 10.7 4 11 3 3 42-41.4 44.3-42.6 43.7 13.2 66.8-16 59.6-47zm-7.7 24c-14.8 36.8-68.5 17.6-58.9-21.1 13.5-43.4 74.8-20.8 59 21.2z" transform="translate(-11.8 -18.6)"/>
  <ellipse class="hbcls-6" cx="1614.7" cy="54.3" rx="31.3" ry="32.6"/>
  <path class="hbcls-7" d="M1736.6 107.7l-.9-.6-2.9 5c-3.4 6-6.6 12.3-9.9 18.5-3 5.5-6.2 11-8.4 17-.4 1-1.7 4.4.4 4.6 1.6.1 2.9-2.8 3.5-4 3-5.6 5.5-11.4 8.3-17.2q5.4-11.2 11.8-22zM1739.4 104.1a24 24 0 00-1.3-1l-1.2 2.1 1.6 1.2 1.2.8 1.1-1.9zM1841.9 54.5A40.2 40.2 0 001811 42a60.6 60.6 0 00-33 13.8 163 163 0 00-38.7 45.5l2.1 1.7.6.5a197.8 197.8 0 0127.1-34.2 89.7 89.7 0 0129.3-20.8 43.6 43.6 0 0135.9 1.3 45 45 0 017.6 4.9z" transform="translate(-11.8 -18.6)"/>
  <path class="hbcls-7" d="M1726.8 90.4l1-1.8-2.7-2-1.1 1.9 2.8 2zM1729 86.7l1.2-1.9-2.7-2.2-1.2 1.9 2.8 2.2z"/>
  <path class="hbcls-9" d="M1947.3 61.2a2.7 2.7 0 01.7.2h.5a10.6 10.6 0 013.1.5c22.5-52.5-50.6-22-50.6-22 36.2-8.9 44.5 9.5 46.3 21.3z" transform="translate(-11.8 -18.6)"/>
  <path class="hbcls-9" d="M1950.4 61.5a9.4 9.4 0 012.9 1 10.9 10.9 0 012.4-.2c9.4-9.7 28.7-19.5 57.3 14.7 0 0-51.7-83.5-62.6-15.5z" transform="translate(-11.8 -18.6)"/>
  <path class="hbcls-9" d="M1929.3 146a31 31 0 003.2 1.4l5 2c1.8-2.4 3.2-4.7 4.8-7 8.7-12 16.8-8.7 27.4-18.3 9.7-8.7 20.2-27 14.1-42.2-5.8-14.6-23.6-18.4-26.1-18.9l-9.7-.6-9.6-.7c-14.6-.3-27.4 7.7-32.7 19.1s-3 26.3 12.5 39.6c11.6 10.3 13.2 19 11.1 25.6zM1928.7 151.5c1.6.7 3 1.6 4.6 2.5a25.8 25.8 0 002.8-2.8 77.7 77.7 0 01-7.6-3 20 20 0 01-1.3 2.6zM1930.7 155.2a97.3 97.3 0 00-4.8-2.6 30.3 30.3 0 01-2.1 2.6c-3.1 3.3-6.2 5.1-6 5.3.4.9 7-.6 12.8-4.5l.8-.5z" transform="translate(-11.8 -18.6)"/>
  <path class="hbcls-9" d="M1924.3 132.6l1.5-1.8-8.2-3.4-.8 2.2M1921.5 135.4l-2 1.5-5.4-2.9 1.3-1.8 6.1 3.2"/>
  <path class="hbcls-3" d="M1146.6 249.9l-10.8-4.9a7.1 7.1 0 01-3.3-9.5 3.6 3.6 0 01.1-.3l5.7-10.6c3.1-5.8-2.4-12.4-8.3-10l-11 4.5a6.7 6.7 0 01-8.6-3.6 7.6 7.6 0 01-.3-1l-3.2-11.7a6.7 6.7 0 00-12.7-.9l-4.5 11.2a6.6 6.6 0 01-8.6 3.8 7.2 7.2 0 01-.9-.4l-10.2-6c-5.6-3.2-11.9 2.6-9.6 8.7l4.4 11.3a7 7 0 01-4 9.2l-.5.1-11.3 3.3c-6 1.8-6.6 10.6-.8 13.2l10.7 4.8a7.1 7.1 0 013.4 9.5l-.2.4-5.7 10.6c-3 5.8 2.5 12.4 8.4 10l10.8-4.5a6.7 6.7 0 018.7 3.7 5.8 5.8 0 01.3.9l3.2 11.7a6.7 6.7 0 0012.7.9l4.6-11.3a6.6 6.6 0 018.6-3.7 6.7 6.7 0 011 .5l10.2 5.9c5.5 3.2 11.8-2.6 9.5-8.7l-4.3-11.3a7 7 0 014-9.2 4 4 0 01.4-.1l11.3-3.4c6-1.8 6.6-10.5.8-13.1zm-33.9 10.5a13.1 13.1 0 01-3.4 5.6 12.7 12.7 0 01-5.4 3.6 12.3 12.3 0 01-6.5 1.5 33 33 0 01-4.6-.6c-2.5-.4-5.8-2.7-7.5-4.5s-4-5.2-4.4-7.8a37.6 37.6 0 01-.6-4.8 18 18 0 012.3-8.8l2.6-3.6a16.5 16.5 0 017.4-4.5l4.5-.6a12.2 12.2 0 016.5 1.5 12.4 12.4 0 015.4 3.6l.3.3.1.1a11 11 0 011 1.2 17.6 17.6 0 013.2 6.4l.6 4.6a13.5 13.5 0 01-1.5 6.8z" transform="translate(-11.8 -18.6)"/>
  <path class="hbcls-4" d="M1304 245.4s-5.5-14-22.9-25.4c0 0-28.5-18.4-51.9-6.8 0 0-13.7 6.1-16.9 38s-15.3 38.2-15.3 38.2 21.4 23.2 70.4 13.3l-.2-1a19 19 0 01-11.5-17 18.1 18.1 0 0117.5-18.3c9.8 0 17.1 8.4 17.6 18.3a16.6 16.6 0 01-2.6 9.4 3.6 3.6 0 01.5.4c25.6-17 15.2-49.1 15.2-49.1z" transform="translate(-11.8 -18.6)"/>
  <path class="hbcls-4" d="M1292.6 186.5l-18.1 18.4-4.7-3.3 8.2-25 14.6 10z"/>
  <path class="hbcls-6" d="M1479.4 226.6c-24.2-52.2-83.2-20-71.8 23.5l3.4 14.5-39.4 40.6c-3.8 4-1.4 10.7 4 11 3 3 41.9-41.4 44.3-42.6 43.6 13.2 66.6-16 59.5-47zm-7.7 24c-14.8 36.8-68.5 17.6-58.9-21.1 13.5-43.4 74.8-20.8 59 21.2z" transform="translate(-11.8 -18.6)"/>
  <ellipse class="hbcls-6" cx="1431.3" cy="219.2" rx="31.3" ry="32.6"/>
  <path class="hbcls-7" d="M1553.2 272.6l-.9-.6-2.9 5c-3.4 6.1-6.6 12.3-9.9 18.5-3 5.5-6.2 11-8.4 17-.4 1-1.7 4.4.4 4.6 1.6 0 2.9-2.8 3.5-4 3-5.6 5.5-11.5 8.3-17.2a287 287 0 0111.8-22zM1556 269l-1.3-1-1.3 2.1 1.7 1.1 1.1.9 1.2-2zM1658.5 219.4a40 40 0 00-31-12.6 60.6 60.6 0 00-33 13.8 163 163 0 00-38.6 45.5l2 1.7.7.5a197.7 197.7 0 0127-34.2 89.8 89.8 0 0129.3-20.8 43.6 43.6 0 0136 1.3 45 45 0 017.6 4.9z" transform="translate(-11.8 -18.6)"/>
  <path class="hbcls-7" d="M1543.4 255.3l1-1.8-2.7-2-1.1 1.9 2.8 2zM1545.7 251.6l1.1-1.9-2.7-2.2-1.1 1.9 2.7 2.2z"/>
  <path class="hbcls-9" d="M1762 220.8l.7.2h.5a11 11 0 013.1.5c22.5-52.5-50.5-22-50.5-22 36.2-8.8 44.5 9.5 46.2 21.3z" transform="translate(-11.8 -18.6)"/>
  <path class="hbcls-9" d="M1765.2 221.2a9.4 9.4 0 012.9 1 10.9 10.9 0 012.4-.3c9.3-9.6 28.7-19.5 57.2 14.7 0 0-51.6-83.5-62.5-15.4z" transform="translate(-11.8 -18.6)"/>
  <path class="hbcls-9" d="M1744.1 305.7a31 31 0 003.2 1.4l5 1.9c1.8-2.3 3.2-4.7 4.8-7 8.7-11.9 16.8-8.7 27.4-18.2 9.7-8.7 20.2-27 14-42.3-5.8-14.5-23.5-18.3-26-18.8l-9.7-.7-9.6-.6c-14.6-.4-27.4 7.7-32.7 19s-3 26.3 12.5 39.6c11.7 10.3 13.2 19 11.1 25.7zM1743.5 311.1l4.6 2.5a28.9 28.9 0 002.8-2.7 75.5 75.5 0 01-7.6-3 20 20 0 01-1.4 2.5zM1745.5 314.8l-4.3-2.3-.5-.2a30 30 0 01-2.2 2.5c-3 3.3-6.1 5.2-6 5.4.4.8 7-.7 12.9-4.5l.8-.6z" transform="translate(-11.8 -18.6)"/>
  <path class="hbcls-9" d="M1739 292.3l1.6-2-8.2-3.3-.8 2.2M1736.3 295l-2 1.5-5.4-2.8 1.3-2 6.1 3.3"/>
  <path class="hbcls-1" d="M1918.7 198.5c9.3 1 10.5 3 15.7 3.4 8.3.5 9-4.4 19.5-5 4.5-.4 7.7.3 13.7 1.6 9.9 2.1 19 6.2 18.8 7.3-.1.5-3-.2-8.7-.2-3.9 0-6 .4-14 1.6a315 315 0 01-19 2.7c-6 .4-9.8.7-14.6-1-3.8-1.3-4-2.4-11.5-5.6-5.5-2.5-8.5-3.3-8.4-4s5.1-1.2 8.5-.8z" transform="translate(-11.8 -18.6)"/>
  <path class="hbcls-1" d="M1910.3 199.3a145.7 145.7 0 0114 16 56 56 0 015.5 9.1c1.3 2.8 2 5.5 5.4 6 0 0 15-2.4 24.9-.2h-.4a2.5 2.5 0 001.7-.7 70.6 70.6 0 0125-23.7" transform="translate(-11.8 -18.6)"/>
  <path class="hbcls-1" d="M1906.8 244c-12 10.8-23.3 32.4-16.5 48.1 1.8 4 5 8.2 13.3 13.3 34.7 21.4 75 6.7 77.4 5.7 8.3-3.4 14-5.9 18.4-12.2 9.4-14 4.7-35.9-4.3-48.6-18.2-25.7-64.3-28.3-88.3-6.4zM2102.8 25c9.3 1 10.5 3 15.7 3.4 8.3.6 9-4.4 19.5-5 4.5-.4 7.7.3 13.7 1.6 9.9 2.1 19 6.2 18.8 7.3-.1.6-3-.2-8.7-.2-3.9 0-6.1.4-14 1.6-11 1.7-16.5 2.6-19 2.7-6 .4-9.8.7-14.6-1-3.9-1.3-4.1-2.4-11.5-5.6-5.5-2.5-8.5-3.2-8.4-4s5.1-1.2 8.5-.8z" transform="translate(-11.8 -18.6)"/>
  <path class="hbcls-1" d="M2094.4 25.8a146.6 146.6 0 0114 16 56.4 56.4 0 015.5 9.1c1.3 2.8 2 5.5 5.4 6 0 0 15-2.4 24.9-.3l-.4.1a2.4 2.4 0 001.7-.7 70.6 70.6 0 0125-23.8" transform="translate(-11.8 -18.6)"/>
  <path class="hbcls-1" d="M2090.8 70.4c-11.9 10.9-23.2 32.5-16.4 48.2 1.8 4 5 8.2 13.3 13.3 34.7 21.4 75 6.7 77.3 5.7 8.4-3.4 14.2-5.9 18.5-12.3 9.4-13.9 4.7-35.8-4.3-48.5-18.2-25.8-64.4-28.3-88.3-6.4z" transform="translate(-11.8 -18.6)"/>
  <path class="hbcls-3" d="M2349.6 84.5l-10.8-4.9a7.1 7.1 0 01-3.4-9.5l.2-.3 5.7-10.7c3.1-5.7-2.5-12.3-8.4-9.9l-10.9 4.5a6.7 6.7 0 01-8.7-3.6 7 7 0 01-.3-1l-3.2-11.7a6.7 6.7 0 00-12.6-.9l-4.7 11.2a6.6 6.6 0 01-8.5 3.8 6 6 0 01-.9-.4l-10.2-6c-5.6-3.2-12 2.5-9.6 8.7l4.4 11.3a7 7 0 01-4 9.2l-.5.1-11.3 3.3c-6 1.8-6.6 10.6-.8 13.2l10.8 4.8a7.1 7.1 0 013.3 9.5 2 2 0 01-.1.4l-5.8 10.6c-3 5.7 2.5 12.3 8.4 10l10.9-4.6a6.7 6.7 0 018.7 3.7 7.5 7.5 0 01.3 1l3.2 11.6a6.7 6.7 0 0012.7 1l4.6-11.3a6.7 6.7 0 019.5-3.3l10.2 6c5.5 3.1 11.9-2.6 9.5-8.8l-4.3-11.3a7 7 0 014-9.1l.5-.2 11.2-3.3c6.1-1.7 6.7-10.5.9-13.1zm-34 10.5a13.1 13.1 0 01-3.4 5.6 12.4 12.4 0 01-5.4 3.6 12.1 12.1 0 01-6.4 1.5 33 33 0 01-4.7-.6c-2.5-.4-5.7-2.7-7.5-4.5s-3.9-5.2-4.3-7.8a35.5 35.5 0 01-.6-4.8 18 18 0 012.3-8.8l2.6-3.6a16.7 16.7 0 017.4-4.4l4.5-.7a12.3 12.3 0 016.4 1.5 12.6 12.6 0 015.4 3.6l.3.3.1.2 1 1.1a17.7 17.7 0 013.2 6.4l.6 4.6a13.5 13.5 0 01-1.5 6.8z" transform="translate(-11.8 -18.6)"/>
  <path class="hbcls-4" d="M2518.9 83s-5.4-14-22.8-25.5c0 0-28.6-18.3-52-6.7 0 0-13.6 6-16.8 38s-15.4 38-15.4 38 21.5 23.3 70.4 13.4l-.1-1a19 19 0 01-11.6-17 18.1 18.1 0 0117.5-18.3c9.9 0 17.2 8.4 17.6 18.2a16.5 16.5 0 01-2.6 9.5 5.6 5.6 0 01.6.4c25.6-16.8 15.2-49 15.2-49z" transform="translate(-11.8 -18.6)"/>
  <path class="hbcls-4" d="M2507.6 24.1l-18.2 18.4-4.6-3.3 8.2-25 14.6 9.9z"/>
  <path class="hbcls-6" d="M2694.4 64.2c-24.2-52.3-83.3-20-71.9 23.4l3.4 14.6-39.4 40.6c-3.8 4-1.3 10.7 4 11 3 3 41.9-41.4 44.3-42.7 43.7 13.2 66.7-15.8 59.6-46.9zm-7.7 24c-14.8 36.8-68.5 17.5-59-21.1 13.5-43.4 74.9-20.8 59 21.1z" transform="translate(-11.8 -18.6)"/>
  <ellipse class="hbcls-6" cx="2646.2" cy="56.8" rx="31.3" ry="32.6"/>
  <path class="hbcls-7" d="M2768.2 110.2l-1-.6-2.8 5c-3.5 6-6.7 12.3-10 18.5-3 5.5-6.1 11-8.3 17-.4 1-1.7 4.4.4 4.6 1.6 0 2.8-2.8 3.5-4 2.9-5.6 5.5-11.5 8.3-17.2q5.4-11.2 11.8-22zM2771 106.6a24 24 0 00-1.3-1l-1.3 2.1 1.7 1.1 1.1.9 1.2-1.9zM2873.4 57a40.2 40.2 0 00-30.9-12.7 60.6 60.6 0 00-33 13.9 163 163 0 00-38.7 45.5l2.1 1.7.6.5a198.2 198.2 0 0127.2-34.3 89.7 89.7 0 0129.2-20.8 43.7 43.7 0 0135.9 1.4 46.2 46.2 0 017.7 4.8z" transform="translate(-11.8 -18.6)"/>
  <path class="hbcls-7" d="M2758.3 93l1.1-2-2.8-2-1 2 2.7 2zM2760.6 89.2l1.2-1.9-2.7-2.2-1.2 1.9 2.7 2.2z"/>
  <path class="hbcls-9" d="M2978.8 63.7a2.7 2.7 0 01.7.2h.6a11.3 11.3 0 013 .4c22.5-52.5-50.5-22-50.5-22 36.1-8.8 44.5 9.6 46.2 21.4z" transform="translate(-11.8 -18.6)"/>
  <path class="hbcls-9" d="M2982 64a10 10 0 012.8 1 12.2 12.2 0 012.5-.3c9.3-9.6 28.6-19.5 57.2 14.8 0 0-51.6-83.5-62.6-15.5z" transform="translate(-11.8 -18.6)"/>
  <path class="hbcls-9" d="M2961 148.5a31 31 0 003 1.4l5.1 2c1.8-2.4 3.1-4.7 4.8-7 8.7-12 16.8-8.7 27.4-18.2 9.6-8.8 20.2-27 14-42.3-5.8-14.6-23.5-18.4-26-18.9l-9.7-.6-9.6-.7c-14.6-.3-27.4 7.7-32.7 19.1s-3 26.3 12.5 39.6c11.6 10.3 13.1 19 11.1 25.6zM2960.2 154c1.6.7 3.1 1.6 4.6 2.5a24.9 24.9 0 002.8-2.8 72.9 72.9 0 01-7.5-3 19.3 19.3 0 01-1.4 2.6zM2962.3 157.6l-4.3-2.2-.6-.3a27.4 27.4 0 01-2 2.6c-3.2 3.2-6.2 5.1-6 5.3.3.8 7-.6 12.7-4.5l.8-.5z" transform="translate(-11.8 -18.6)"/>
  <path class="hbcls-9" d="M2955.9 135.1l1.5-1.8-8.3-3.4-.8 2.2M2953 137.9l-1.8 1.5-5.5-2.9 1.3-1.8 6 3.2"/>
  <path class="hbcls-3" d="M2178.2 252.4l-10.8-4.9a7.1 7.1 0 01-3.4-9.5l.2-.3 5.7-10.7c3-5.7-2.5-12.3-8.4-9.9l-10.9 4.5a6.7 6.7 0 01-8.6-3.6 7.2 7.2 0 01-.3-1l-3.2-11.7a6.7 6.7 0 00-12.7-.8l-4.5 11.2a6.6 6.6 0 01-8.6 3.7 6 6 0 01-.9-.4l-10.2-6c-5.5-3.2-11.9 2.6-9.6 8.7l4.4 11.3a7 7 0 01-4 9.2l-.5.2-11.3 3.3c-6 1.8-6.6 10.5-.8 13.1l10.8 4.9a7.1 7.1 0 013.4 9.4l-.2.4-5.8 10.6c-3 5.8 2.5 12.3 8.4 10l10.8-4.5a6.7 6.7 0 018.7 3.7 7.5 7.5 0 01.3.9l3.2 11.7a6.7 6.7 0 0012.6.8l4.7-11.2a6.6 6.6 0 018.6-3.7 8 8 0 01.9.4l10.2 6c5.6 3.2 12-2.6 9.6-8.7l-4.4-11.3a7 7 0 014-9.2l.5-.2 11.3-3.3c6-1.8 6.6-10.5.8-13.1zm-34 10.5a13 13 0 01-3.4 5.6 12.5 12.5 0 01-5.4 3.6 12.1 12.1 0 01-6.4 1.5 33 33 0 01-4.7-.6c-2.5-.5-5.7-2.8-7.5-4.6s-3.9-5.2-4.3-7.7a37.1 37.1 0 01-.6-4.9 18 18 0 012.3-8.8l2.6-3.5a16.7 16.7 0 017.4-4.5l4.5-.6a12.3 12.3 0 016.4 1.5 12.6 12.6 0 015.4 3.6l.3.2.1.2a13.5 13.5 0 011 1.2 17.8 17.8 0 013.2 6.3l.6 4.7a13.4 13.4 0 01-1.4 6.8z" transform="translate(-11.8 -18.6)"/>
  <path class="hbcls-4" d="M2335.5 247.9s-5.4-14-22.8-25.5c0 0-28.6-18.3-52-6.7 0 0-13.6 6-16.8 38s-15.4 38.1-15.4 38.1 21.5 23.2 70.4 13.4l-.1-1a19 19 0 01-11.6-17 18.1 18.1 0 0117.5-18.3c9.9 0 17.2 8.4 17.6 18.3a16.5 16.5 0 01-2.6 9.4 5.6 5.6 0 01.6.4c25.6-17 15.2-49.1 15.2-49.1z" transform="translate(-11.8 -18.6)"/>
  <path class="hbcls-4" d="M2324.2 189l-18.2 18.4-4.6-3.3 8.2-25 14.6 9.9z"/>
  <path class="hbcls-6" d="M2511 229.1c-24.2-52.3-83.3-20-71.9 23.4l3.4 14.6-39.4 40.6c-3.8 4-1.3 10.7 4 11 3 3 41.9-41.4 44.3-42.6 43.7 13.1 66.7-16 59.6-47zm-7.7 24c-14.8 36.8-68.5 17.5-59-21.1 13.6-43.4 74.9-20.8 59 21.1z" transform="translate(-11.8 -18.6)"/>
  <ellipse class="hbcls-6" cx="2462.8" cy="221.7" rx="31.3" ry="32.6"/>
  <path class="hbcls-7" d="M2584.8 275l-1-.5-2.8 5c-3.5 6.1-6.7 12.3-10 18.4-3 5.6-6.1 11-8.3 17-.4 1.2-1.7 4.5.4 4.6 1.6.2 2.8-2.7 3.5-3.9 2.9-5.6 5.5-11.5 8.3-17.2a287 287 0 0111.8-22zM2587.6 271.5l-1.3-1-1.3 2.1 1.6 1.1 1.2.9 1.2-1.9zM2690 222a40.1 40.1 0 00-30.9-12.7 60.6 60.6 0 00-33 13.8 163 163 0 00-38.7 45.5c.8.5 1.5 1.1 2.1 1.7l.7.5a198.4 198.4 0 0127-34.2 89.8 89.8 0 0129.3-20.9 43.7 43.7 0 0135.9 1.4 46.2 46.2 0 017.7 4.9z" transform="translate(-11.8 -18.6)"/>
  <path class="hbcls-7" d="M2575 257.8l1-1.9-2.8-2-1 2 2.7 2zM2577.2 254l1.2-1.8-2.7-2.2-1.2 1.9 2.7 2.2z"/>
  <path class="hbcls-9" d="M2793.6 223.3l.7.2h.5a11.3 11.3 0 013.1.4c22.5-52.4-50.5-21.9-50.5-21.9 36.1-8.9 44.4 9.4 46.2 21.3z" transform="translate(-11.8 -18.6)"/>
  <path class="hbcls-9" d="M2796.7 223.7a10 10 0 013 1 12.2 12.2 0 012.3-.3c9.4-9.6 28.7-19.5 57.3 14.7 0 0-51.6-83.5-62.6-15.4z" transform="translate(-11.8 -18.6)"/>
  <path class="hbcls-9" d="M2775.7 308.1a31 31 0 003.2 1.4l5 2c1.8-2.3 3.1-4.7 4.8-7 8.7-11.9 16.8-8.7 27.3-18.2 9.7-8.7 20.3-27 14.1-42.3-5.8-14.6-23.6-18.3-26.1-18.9l-9.6-.6-9.7-.7c-14.5-.3-27.3 7.7-32.6 19.1s-3 26.3 12.5 39.6c11.6 10.3 13.1 19 11 25.6zM2775 313.6c1.6.7 3 1.6 4.6 2.5a27.8 27.8 0 002.8-2.8 71 71 0 01-7.5-3 19.4 19.4 0 01-1.4 2.6zM2777 317.3l-4.2-2.3-.6-.2a27.1 27.1 0 01-2.1 2.5c-3.1 3.3-6.1 5.1-6 5.4.4.8 7-.7 12.8-4.6l.8-.5z" transform="translate(-11.8 -18.6)"/>
  <path class="hbcls-9" d="M2770.7 294.7l1.5-1.8-8.3-3.4-.8 2.2M2767.9 297.5l-2 1.5-5.4-2.8 1.3-2 6 3.3"/>
  <path class="hbcls-1" d="M2950.3 201c9.3 1 10.5 3 15.7 3.4 8.2.5 9-4.4 19.5-5 4.5-.4 7.6.3 13.7 1.6 9.9 2.1 19 6.2 18.8 7.3-.2.5-3.1-.2-8.7-.2-3.9 0-6.1.4-14 1.6a315 315 0 01-19 2.7c-6 .4-9.8.7-14.6-1-3.9-1.3-4.1-2.4-11.5-5.6-5.5-2.5-8.5-3.3-8.4-4s5.1-1.2 8.5-.8z" transform="translate(-11.8 -18.6)"/>
  <path class="hbcls-1" d="M2941.8 201.8a146.6 146.6 0 0114.1 16 56.4 56.4 0 015.5 9.1c1.3 2.8 2 5.5 5.4 6 0 0 15-2.5 24.9-.3h-.4a2.4 2.4 0 001.7-.6 70.6 70.6 0 0125-23.7" transform="translate(-11.8 -18.6)"/>
  <path class="hbcls-1" d="M2938.3 246.4c-11.9 10.9-23.2 32.5-16.4 48.2 1.8 4 5 8.2 13.2 13.3 34.8 21.4 75 6.7 77.4 5.7 8.4-3.4 14.1-5.9 18.5-12.3 9.4-13.9 4.7-35.8-4.3-48.5-18.3-25.8-64.4-28.3-88.4-6.4zM52.2 21.9c9.2.9 10.4 3 15.7 3.3 8.2.6 8.9-4.4 19.5-5 4.4-.3 7.6.4 13.6 1.7 10 2 19.1 6.1 18.8 7.2-.1.6-3-.2-8.6-.2-4 0-6.2.4-14 1.7-11 1.7-16.5 2.5-19 2.7-6 .4-9.9.6-14.6-1-4-1.3-4.2-2.4-11.6-5.7-5.5-2.4-8.5-3.2-8.4-4s5.2-1 8.6-.8z" transform="translate(-11.8 -18.6)"/>
  <path class="hbcls-1" d="M43.7 22.6a145.7 145.7 0 0114.1 16 56.4 56.4 0 015.4 9.2c1.3 2.8 2 5.5 5.5 6 0 0 14.9-2.5 24.8-.3h-.4a2.5 2.5 0 001.8-.7 70.6 70.6 0 0125-23.7" transform="translate(-11.8 -18.6)"/>
  <path class="hbcls-1" d="M40.2 67.3c-11.9 10.9-23.3 32.4-16.4 48.2 1.7 4 5 8.1 13.2 13.2 34.8 21.5 75 6.7 77.4 5.7 8.3-3.4 14.1-5.8 18.4-12.2 9.5-13.9 4.7-35.8-4.3-48.5-18.2-25.8-64.3-28.3-88.3-6.4z" transform="translate(-11.8 -18.6)"/>
  <path class="hbcls-3" d="M299 81.3L288 76.5a7.1 7.1 0 01-3.3-9.5l.1-.3 5.8-10.7c3-5.7-2.5-12.3-8.4-10l-10.9 4.6a6.7 6.7 0 01-8.7-3.7 7.6 7.6 0 01-.3-.9l-3.2-11.7a6.7 6.7 0 00-12.6-1l-4.7 11.3a6.6 6.6 0 01-8.6 3.8 7.3 7.3 0 01-.9-.5l-10.2-6c-5.5-3.2-11.9 2.6-9.5 8.7L217 62a7 7 0 01-4 9.2l-.5.1-11.2 3.3c-6.1 1.8-6.7 10.6-.9 13.2l10.8 4.8a7.1 7.1 0 013.4 9.5l-.2.3-5.7 10.7c-3 5.7 2.5 12.3 8.4 9.9l10.9-4.5a6.7 6.7 0 018.7 3.7 5.7 5.7 0 01.3.9l3.2 11.7a6.7 6.7 0 0012.6.9l4.7-11.2a6.7 6.7 0 019.4-3.4l10.3 6c5.5 3.2 11.8-2.6 9.5-8.7l-4.3-11.3a7 7 0 014-9.2l.4-.1 11.3-3.4c6-1.7 6.6-10.5.8-13zm-34 10.5a13.2 13.2 0 01-3.5 5.7 12.5 12.5 0 01-5.4 3.6 12.3 12.3 0 01-6.4 1.5 33 33 0 01-4.7-.7c-2.4-.4-5.7-2.7-7.5-4.5s-3.9-5.2-4.3-7.8a35.5 35.5 0 01-.6-4.8 18 18 0 012.3-8.8l2.6-3.5A16.7 16.7 0 01245 68l4.5-.6a12.3 12.3 0 016.4 1.5 12.6 12.6 0 015.4 3.6l.3.2.2.2 1 1.2a17.5 17.5 0 013.2 6.3l.6 4.7a13.5 13.5 0 01-1.6 6.8z" transform="translate(-11.8 -18.6)"/>
  <path class="hbcls-4" d="M468.2 79.8s-5.3-14-22.8-25.4c0 0-28.5-18.4-51.9-6.8 0 0-13.7 6.1-16.9 38s-15.3 38.1-15.3 38.1 21.4 23.2 70.3 13.4v-1a19 19 0 01-11.7-17 18.1 18.1 0 0117.6-18.3c9.8 0 17.1 8.3 17.5 18.2a16.6 16.6 0 01-2.5 9.4 5.6 5.6 0 01.5.4c25.6-16.8 15.2-49 15.2-49z" transform="translate(-11.8 -18.6)"/>
  <path class="hbcls-4" d="M457 21l-18.2 18.4L434 36l8.2-25.1L457 21z"/>
  <path class="hbcls-6" d="M643.8 61c-24.3-52.2-83.3-20-72 23.5l3.5 14.6-39.5 40.6c-3.8 3.9-1.3 10.7 4 11 3 3 42-41.4 44.3-42.7 43.7 13.2 66.8-15.9 59.6-47zM636 85c-14.8 36.9-68.4 17.6-58.9-21C590.6 20.5 652 43.1 636 85z" transform="translate(-11.8 -18.6)"/>
  <ellipse class="hbcls-6" cx="595.6" cy="53.6" rx="31.3" ry="32.6"/>
  <path class="hbcls-7" d="M717.5 107l-.9-.5-2.9 5c-3.4 6-6.6 12.3-9.9 18.4-3 5.6-6.2 11-8.4 17-.4 1.1-1.7 4.5.4 4.6 1.6.2 2.9-2.7 3.5-4 3-5.5 5.5-11.4 8.3-17.1q5.4-11.3 11.8-22zM720.3 103.5a24 24 0 00-1.3-1l-1.2 2 1.6 1.2 1.2.8 1.1-1.8zM822.8 53.9a40.1 40.1 0 00-31-12.7 60.6 60.6 0 00-33 13.9 163 163 0 00-38.6 45.4l2 1.8.7.5A198.2 198.2 0 01750 68.5a89.7 89.7 0 0129.3-20.8 43.7 43.7 0 0135.8 1.4 45.5 45.5 0 017.7 4.9z" transform="translate(-11.8 -18.6)"/>
  <path class="hbcls-7" d="M707.7 89.8l1.1-1.9-2.8-2-1.1 2 2.8 1.9zM710 86l1.1-1.8-2.7-2.3-1.1 2L710 86z"/>
  <path class="hbcls-9" d="M928.2 60.6a2.7 2.7 0 01.7.2h.5a11 11 0 013.1.4c22.5-52.5-50.6-22-50.6-22 36.2-8.8 44.5 9.5 46.3 21.4z" transform="translate(-11.8 -18.6)"/>
  <path class="hbcls-9" d="M931.3 60.9a10 10 0 012.9 1 12.2 12.2 0 012.4-.3C946 52 965.3 42.1 994 76.3c0 0-51.7-83.4-62.6-15.4z" transform="translate(-11.8 -18.6)"/>
  <path class="hbcls-9" d="M910.3 145.4a31 31 0 003.1 1.4l5 2c1.8-2.4 3.2-4.8 4.8-7 8.7-12 16.8-8.8 27.4-18.3 9.7-8.7 20.2-27 14.1-42.2-5.8-14.6-23.6-18.4-26.1-19l-9.7-.6-9.6-.6c-14.6-.3-27.4 7.7-32.6 19.1s-3.1 26.2 12.4 39.5c11.6 10.3 13.2 19 11.2 25.7zM909.6 150.8l4.6 2.5a24 24 0 002.8-2.7 73.8 73.8 0 01-7.6-3 20 20 0 01-1.3 2.6zM911.6 154.5l-4.3-2.2-.5-.3a27.4 27.4 0 01-2.1 2.5c-3.1 3.3-6.2 5.2-6 5.4.4.8 7-.7 12.8-4.5l.8-.6z" transform="translate(-11.8 -18.6)"/>
  <path class="hbcls-9" d="M905.2 132l1.5-1.9-8.2-3.3-.8 2.1M902.4 134.7l-1.9 1.5-5.5-2.8 1.3-1.9 6.1 3.2"/>
  <path class="hbcls-3" d="M127.5 249.2l-10.8-4.8a7.1 7.1 0 01-3.3-9.5l.1-.3 5.8-10.7c3-5.7-2.5-12.3-8.4-9.9l-10.9 4.5a6.7 6.7 0 01-8.7-3.7 7.6 7.6 0 01-.3-.9l-3.2-11.7a6.7 6.7 0 00-12.6-.9l-4.6 11.2a6.6 6.6 0 01-8.6 3.8 7.3 7.3 0 01-.9-.5l-10.2-6c-5.6-3.2-11.9 2.6-9.6 8.7l4.4 11.4a7 7 0 01-4 9.1 3.8 3.8 0 01-.5.2L30 242.5c-6 1.8-6.6 10.6-.8 13.2l10.7 4.8a7.1 7.1 0 013.4 9.5l-.2.4-5.7 10.6c-3.1 5.8 2.5 12.3 8.4 10l10.8-4.5a6.7 6.7 0 018.7 3.7 5.7 5.7 0 01.3.9l3.2 11.7a6.7 6.7 0 0012.6.8l4.7-11.2a6.6 6.6 0 019.5-3.3l10.2 6c5.6 3.2 11.9-2.6 9.6-8.7L111 275a7 7 0 014-9.2l.5-.1 11.2-3.3c6-1.8 6.6-10.6.8-13.2zm-33.9 10.5a13 13 0 01-3.4 5.7 12.6 12.6 0 01-5.4 3.6 12.2 12.2 0 01-6.5 1.5 33 33 0 01-4.6-.7c-2.5-.4-5.8-2.7-7.5-4.5s-4-5.2-4.4-7.8a37.1 37.1 0 01-.6-4.8 18 18 0 012.3-8.8l2.7-3.5a16.7 16.7 0 017.4-4.5l4.4-.6a12.3 12.3 0 016.5 1.4 12.5 12.5 0 015.4 3.7l.2.2.2.2a12.1 12.1 0 011 1.2 17.7 17.7 0 013.2 6.3l.6 4.7a13.4 13.4 0 01-1.5 6.7z" transform="translate(-11.8 -18.6)"/>
  <path class="hbcls-4" d="M284.8 244.7s-5.4-14-22.8-25.4c0 0-28.5-18.3-51.9-6.7 0 0-13.7 6-16.9 38S178 288.7 178 288.7s21.4 23.2 70.3 13.3v-.9a19 19 0 01-11.7-17 18.1 18.1 0 0117.6-18.3c9.8 0 17.1 8.3 17.5 18.2a16.6 16.6 0 01-2.5 9.4 5.6 5.6 0 01.5.5c25.6-17 15.2-49.2 15.2-49.2z" transform="translate(-11.8 -18.6)"/>
  <path class="hbcls-4" d="M273.5 185.9l-18.1 18.4-4.7-3.3 8.2-25.1 14.6 10z"/>
  <path class="hbcls-6" d="M460.4 226c-24.3-52.3-83.3-20-72 23.4L392 264l-39.5 40.6c-3.8 4-1.3 10.7 4 11 3 3 42-41.4 44.3-42.6 43.7 13.1 66.8-16 59.7-47zm-7.8 24c-14.8 36.8-68.4 17.5-58.9-21.1 13.5-43.4 74.8-20.8 59 21.1z" transform="translate(-11.8 -18.6)"/>
  <ellipse class="hbcls-6" cx="412.2" cy="218.5" rx="31.3" ry="32.6"/>
  <path class="hbcls-7" d="M534.1 272l-.9-.6-2.9 5c-3.4 6.1-6.6 12.3-9.9 18.5-3 5.5-6.2 11-8.4 17-.4 1-1.7 4.4.4 4.6 1.6 0 2.9-2.8 3.5-4 3-5.6 5.5-11.5 8.3-17.2a287 287 0 0111.8-22zM537 268.4l-1.4-1-1.2 2c.5.5 1 .8 1.6 1.2l1.2.9 1.1-2zM639.4 218.8a40.1 40.1 0 00-31-12.7 60.6 60.6 0 00-33 13.9 163 163 0 00-38.6 45.4l2 1.8.7.5a198 198 0 0127-34.3 89.8 89.8 0 0129.4-20.8 43.7 43.7 0 0135.8 1.4 45.5 45.5 0 017.7 4.9z" transform="translate(-11.8 -18.6)"/>
  <path class="hbcls-7" d="M524.3 254.7l1.1-1.9-2.8-2-1.1 2 2.8 1.9zM526.6 251l1.1-2-2.7-2.2-1.1 2 2.7 2.1z"/>
  <path class="hbcls-9" d="M743 220.2l.7.2h.5a11.3 11.3 0 013.1.4c22.5-52.5-50.5-22-50.5-22 36-8.8 44.4 9.5 46.2 21.4z" transform="translate(-11.8 -18.6)"/>
  <path class="hbcls-9" d="M746 220.5a10 10 0 013 1 12.2 12.2 0 012.4-.2c9.3-9.7 28.7-19.5 57.2 14.7 0 0-51.6-83.5-62.5-15.5z" transform="translate(-11.8 -18.6)"/>
  <path class="hbcls-9" d="M725 305a31 31 0 003.2 1.4l5 2c1.8-2.4 3.1-4.7 4.8-7 8.7-12 16.8-8.7 27.3-18.3 9.7-8.7 20.3-27 14.1-42.2-5.8-14.6-23.5-18.4-26.1-18.9l-9.6-.6-9.7-.7c-14.5-.3-27.3 7.7-32.6 19.1s-3 26.3 12.5 39.6c11.7 10.3 13.2 19 11.1 25.6zM724.4 310.5c1.6.7 3 1.6 4.6 2.5a27.8 27.8 0 002.8-2.8 75.5 75.5 0 01-7.6-3 19.4 19.4 0 01-1.3 2.6zM726.4 314.1l-4.3-2.2-.5-.3a28.5 28.5 0 01-2.1 2.6c-3.1 3.2-6.2 5.1-6 5.3.4.8 7-.6 12.8-4.5l.8-.5z" transform="translate(-11.8 -18.6)"/>
  <path class="hbcls-9" d="M720 291.6l1.5-1.9-8.2-3.3-.8 2.2M717.2 294.4l-2 1.5-5.4-2.9 1.3-1.9 6.1 3.3"/>
  <path class="hbcls-1" d="M899.6 197.8c9.3 1 10.5 3 15.7 3.4 8.3.6 9-4.4 19.5-5 4.5-.3 7.7.4 13.7 1.7 10 2 19.1 6.1 18.8 7.2-.1.6-3-.2-8.6-.2-4 0-6.2.4-14 1.7a315 315 0 01-19 2.7c-6 .4-9.9.6-14.6-1-4-1.3-4.2-2.4-11.6-5.7-5.5-2.4-8.5-3.2-8.4-4s5.1-1.1 8.5-.8z" transform="translate(-11.8 -18.6)"/>
  <path class="hbcls-1" d="M891.2 198.6a145.7 145.7 0 0114 16 56.4 56.4 0 015.5 9.2c1.3 2.8 2 5.5 5.4 6 0 0 15-2.5 25-.3h-.5a2.5 2.5 0 001.7-.6 70.6 70.6 0 0125-23.8" transform="translate(-11.8 -18.6)"/>
  <path class="hbcls-1" d="M887.7 243.3c-12 10.9-23.3 32.5-16.4 48.2 1.7 4 5 8.1 13.2 13.2 34.8 21.5 75 6.7 77.4 5.7 8.3-3.4 14.1-5.8 18.4-12.2 9.5-13.9 4.7-35.8-4.3-48.5-18.2-25.8-64.3-28.3-88.3-6.4z" transform="translate(-11.8 -18.6)"/>
  <path class="hbcls-3" d="M983 416.7l-10.8-4.8a7.1 7.1 0 01-3.4-9.5l.2-.4 5.7-10.6c3-5.8-2.5-12.4-8.4-10l-10.9 4.6a6.7 6.7 0 01-8.7-3.7 7.2 7.2 0 01-.3-.9l-3.2-11.7a6.7 6.7 0 00-12.6-.9L926 380a6.6 6.6 0 01-9.5 3.3l-10.2-6c-5.5-3.2-11.9 2.6-9.5 8.7l4.3 11.4a7 7 0 01-4 9.1l-.5.2-11.2 3.3c-6.1 1.8-6.7 10.6-.9 13.2l10.8 4.8a7.1 7.1 0 013.4 9.5l-.2.3-5.7 10.7c-3 5.7 2.5 12.3 8.4 9.9l10.8-4.5a6.7 6.7 0 018.7 3.7 6 6 0 01.3.9l3.2 11.7a6.7 6.7 0 0012.6.9l4.7-11.2a6.6 6.6 0 018.6-3.8 7.3 7.3 0 01.9.5l10.2 6c5.6 3.1 12-2.6 9.6-8.8l-4.3-11.3a7 7 0 014-9.1l.4-.2 11.3-3.3c6-1.8 6.5-10.6.7-13.2zm-34 10.5a13 13 0 01-3.4 5.6 12.5 12.5 0 01-5.4 3.6 12.1 12.1 0 01-6.5 1.5 33 33 0 01-4.6-.6c-2.5-.4-5.8-2.7-7.5-4.5s-4-5.2-4.4-7.8a39 39 0 01-.6-4.8 18 18 0 012.3-8.8l2.7-3.5a16.7 16.7 0 017.4-4.5l4.4-.7a12.3 12.3 0 016.5 1.5 12.5 12.5 0 015.4 3.6l.2.3.2.2a13.5 13.5 0 011 1.1 17.8 17.8 0 013.2 6.4l.6 4.6a13.4 13.4 0 01-1.5 6.8z" transform="translate(-11.8 -18.6)"/>
  <path class="hbcls-4" d="M1140.2 412.2s-5.3-14-22.8-25.4c0 0-28.5-18.4-51.9-6.8 0 0-13.7 6.1-16.9 38s-15.3 38.2-15.3 38.2 21.4 23.2 70.4 13.3l-.2-1a19 19 0 01-11.6-17 18.1 18.1 0 0117.6-18.3c9.8 0 17.1 8.4 17.5 18.3a16.5 16.5 0 01-2.5 9.4 5.6 5.6 0 01.5.4c25.6-16.9 15.2-49 15.2-49z" transform="translate(-11.8 -18.6)"/>
  <path class="hbcls-4" d="M1129 353.3l-18.2 18.4-4.6-3.2 8.1-25.1 14.6 10z"/>
  <path class="hbcls-6" d="M1315.8 393.4c-24.3-52.2-83.3-20-72 23.5l3.5 14.5-39.4 40.7c-3.9 3.9-1.4 10.6 4 11 3 3 41.8-41.5 44.2-42.7 43.8 13.2 66.8-15.9 59.7-47zm-7.8 24c-14.7 36.9-68.4 17.6-58.9-21 13.5-43.5 74.8-20.9 59 21z" transform="translate(-11.8 -18.6)"/>
  <ellipse class="hbcls-6" cx="1267.6" cy="386" rx="31.3" ry="32.6"/>
  <path class="hbcls-7" d="M1389.5 439.4l-.9-.6-2.9 5c-3.4 6.1-6.6 12.3-9.9 18.5-3 5.6-6.2 11-8.4 17-.4 1.1-1.7 4.4.4 4.6 1.6.1 3-2.8 3.5-4 3-5.6 5.5-11.4 8.3-17.2a287 287 0 0111.8-22zM1392.3 435.9l-1.3-1-1.2 2 1.6 1.2 1.2.8 1.1-1.8zM1494.8 386.3a40.1 40.1 0 00-30.9-12.7 60.6 60.6 0 00-33 13.8 163 163 0 00-38.7 45.5l2.1 1.7.6.5A198.4 198.4 0 011422 401a89.8 89.8 0 0129.3-20.8 43.7 43.7 0 0135.8 1.3 46.2 46.2 0 017.7 5z" transform="translate(-11.8 -18.6)"/>
  <path class="hbcls-7" d="M1379.7 422.2l1.1-2-2.8-1.9-1.1 2 2.8 1.9zM1382 418.4l1.2-1.9-2.8-2.2-1.1 2 2.7 2.1z"/>
  <path class="hbcls-9" d="M1598.4 387.7l.7.2h.5a11.2 11.2 0 013.1.4c22.5-52.5-50.6-22-50.6-22 36.2-8.8 44.5 9.5 46.3 21.4z" transform="translate(-11.8 -18.6)"/>
  <path class="hbcls-9" d="M1601.5 388a10 10 0 012.9 1 12.3 12.3 0 012.4-.3c9.4-9.6 28.7-19.5 57.3 14.8 0 0-51.7-83.5-62.6-15.5z" transform="translate(-11.8 -18.6)"/>
  <path class="hbcls-9" d="M1580.5 472.5a31 31 0 003.1 1.4l5 2c1.8-2.4 3.2-4.8 4.8-7 8.7-12 16.8-8.8 27.4-18.3 9.7-8.7 20.2-27 14.1-42.2-5.8-14.6-23.6-18.4-26.1-19l-9.7-.6-9.6-.6c-14.6-.3-27.4 7.7-32.6 19s-3 26.3 12.4 39.7c11.7 10.2 13.2 19 11.2 25.6zM1579.8 478c1.6.7 3 1.6 4.6 2.5a27.8 27.8 0 002.8-2.8 71.9 71.9 0 01-7.6-3 19.4 19.4 0 01-1.3 2.6zM1581.8 481.6l-4.3-2.2-.5-.3a27.1 27.1 0 01-2.1 2.5c-3.1 3.3-6.2 5.2-6 5.4.4.8 7-.7 12.8-4.5l.8-.6z" transform="translate(-11.8 -18.6)"/>
  <path class="hbcls-9" d="M1575.4 459l1.5-1.8-8.2-3.3-.8 2.1M1572.6 461.8l-2 1.5-5.4-2.8 1.3-1.9 6.1 3.2"/>
  <path class="hbcls-1" d="M1755 365.3c9.3 1 10.5 3 15.7 3.4 8.3.6 9-4.4 19.5-5 4.5-.4 7.7.3 13.7 1.6 10 2.2 19.1 6.2 18.8 7.3-.1.6-3-.2-8.6-.2-4 0-6.1.4-14 1.6a315 315 0 01-19 2.7c-6 .4-9.9.7-14.6-1-4-1.3-4.2-2.4-11.6-5.6-5.5-2.5-8.5-3.2-8.4-4s5.2-1.1 8.6-.8z" transform="translate(-11.8 -18.6)"/>
  <path class="hbcls-1" d="M1746.6 366.1a146.6 146.6 0 0114 16 56.4 56.4 0 015.5 9.2c1.3 2.8 2 5.5 5.4 6 0 0 15-2.5 25-.3h-.5a2.4 2.4 0 001.7-.7 70.6 70.6 0 0125-23.8" transform="translate(-11.8 -18.6)"/>
  <path class="hbcls-1" d="M1743.1 410.8c-12 10.8-23.3 32.4-16.4 48.1 1.7 4.1 5 8.2 13.2 13.3 34.8 21.4 75 6.7 77.4 5.7 8.3-3.4 14.1-5.9 18.4-12.2 9.5-14 4.7-35.8-4.3-48.5-18.2-25.8-64.3-28.4-88.3-6.4z" transform="translate(-11.8 -18.6)"/>
  <path class="hbcls-3" d="M2014.5 419.2l-10.8-4.8a7.1 7.1 0 01-3.4-9.5l.2-.4 5.7-10.6c3.1-5.8-2.4-12.4-8.3-10l-11 4.6a6.7 6.7 0 01-8.6-3.7 7 7 0 01-.3-1l-3.2-11.7a6.7 6.7 0 00-12.7-.8l-4.6 11.2a6.6 6.6 0 01-8.5 3.7 8 8 0 01-1-.4l-10.2-6c-5.5-3.2-11.8 2.6-9.5 8.7l4.3 11.3a7 7 0 01-4 9.2 3.8 3.8 0 01-.4.1l-11.3 3.4c-6.1 1.7-6.7 10.5-.9 13.1l10.8 4.8a7.1 7.1 0 013.4 9.5l-.2.4-5.7 10.6c-3 5.8 2.5 12.4 8.4 10l10.8-4.5a6.7 6.7 0 018.7 3.7 5.7 5.7 0 01.3.9l3.2 11.7a6.7 6.7 0 0012.6.9l4.7-11.2a6.6 6.6 0 018.6-3.8 8 8 0 01.9.5l10.2 6c5.6 3.1 12-2.7 9.6-8.8L1998 445a7 7 0 014-9.2l.5-.1 11.2-3.3c6-1.8 6.6-10.6.8-13.2zm-33.9 10.5a13 13 0 01-3.5 5.6 12.5 12.5 0 01-5.4 3.6 12.2 12.2 0 01-6.4 1.5 33 33 0 01-4.7-.6c-2.4-.4-5.7-2.7-7.5-4.5s-3.9-5.2-4.3-7.8a37.1 37.1 0 01-.6-4.8 18 18 0 012.3-8.8l2.6-3.6a16.7 16.7 0 017.4-4.4l4.5-.7a18 18 0 0111.8 5.1l.3.3.2.2a13.5 13.5 0 011 1.1 17.7 17.7 0 013.1 6.4l.6 4.6a13.4 13.4 0 01-1.4 6.8z" transform="translate(-11.8 -18.6)"/>
  <path class="hbcls-4" d="M2171.8 414.7s-5.4-14-22.8-25.4c0 0-28.5-18.4-51.9-6.8 0 0-13.7 6.1-16.9 38s-15.3 38.2-15.3 38.2 21.4 23.2 70.3 13.3l-.1-1a19 19 0 01-11.6-17 18.1 18.1 0 0117.6-18.3c9.8 0 17 8.4 17.5 18.3a16.6 16.6 0 01-2.5 9.4 5.6 5.6 0 01.5.4c25.6-16.9 15.2-49.1 15.2-49.1z" transform="translate(-11.8 -18.6)"/>
  <path class="hbcls-4" d="M2160.5 355.8l-18.2 18.4-4.6-3.3 8.2-25 14.6 10z"/>
  <path class="hbcls-6" d="M2347.3 396c-24.2-52.3-83.2-20.1-71.9 23.4l3.4 14.5-39.4 40.6c-3.8 4-1.3 10.7 4 11 3 3 42-41.4 44.3-42.6 43.7 13.2 66.7-15.9 59.6-47zm-7.7 24c-14.8 36.8-68.5 17.5-58.9-21.2 13.5-43.4 74.8-20.8 58.9 21.2z" transform="translate(-11.8 -18.6)"/>
  <ellipse class="hbcls-6" cx="2299.1" cy="388.5" rx="31.3" ry="32.6"/>
  <path class="hbcls-7" d="M2421 442l-.8-.7-3 5-9.8 18.5c-3 5.6-6.2 11-8.4 17-.4 1-1.7 4.4.4 4.6 1.6.1 2.9-2.8 3.5-4 3-5.6 5.5-11.4 8.3-17.2a287 287 0 0111.8-22zM2423.9 438.4l-1.3-1-1.3 2 1.7 1.2 1.1.8 1.2-1.9zM2526.4 388.8a40.1 40.1 0 00-31-12.7 60.6 60.6 0 00-33 13.8 163 163 0 00-38.7 45.5l2.2 1.7.6.5a198 198 0 0127-34.2 89.8 89.8 0 0129.3-20.8 43.7 43.7 0 0135.9 1.3 46.2 46.2 0 017.7 5z" transform="translate(-11.8 -18.6)"/>
  <path class="hbcls-7" d="M2411.2 424.7l1.2-2-2.8-1.9-1.2 2 2.8 1.9zM2413.5 420.9l1.2-1.9-2.7-2.2-1.2 2 2.7 2.1z"/>
  <path class="hbcls-9" d="M2630 390.1l.7.2h.5a11.2 11.2 0 013 .5c22.5-52.5-50.5-22-50.5-22 36.1-8.8 44.5 9.5 46.2 21.3z" transform="translate(-11.8 -18.6)"/>
  <path class="hbcls-9" d="M2633 390.5a10 10 0 013 1 12.2 12.2 0 012.3-.3c9.4-9.6 28.7-19.5 57.3 14.8 0-.1-51.6-83.6-62.6-15.5z" transform="translate(-11.8 -18.6)"/>
  <path class="hbcls-9" d="M2612 475a31 31 0 003.2 1.4l5 2c1.8-2.4 3.1-4.7 4.8-7 8.7-12 16.8-8.7 27.3-18.3 9.7-8.7 20.3-27 14.1-42.2-5.8-14.6-23.5-18.4-26.1-18.9l-9.6-.6-9.7-.7c-14.5-.3-27.3 7.7-32.6 19.1s-3 26.3 12.5 39.6c11.7 10.2 13.1 19 11.1 25.6zM2611.3 480.4l4.6 2.5a27.8 27.8 0 002.8-2.7 76.5 76.5 0 01-7.5-3 19.4 19.4 0 01-1.4 2.5zM2613.4 484l-4.3-2.1-.6-.3a28.5 28.5 0 01-2 2.5c-3.2 3.3-6.2 5.2-6 5.4.3.8 7-.7 12.8-4.5l.7-.6z" transform="translate(-11.8 -18.6)"/>
  <path class="hbcls-9" d="M2607 461.6l1.5-1.9-8.3-3.3-.8 2.1M2604.2 464.3l-2 1.5-5.4-2.8 1.3-1.9 6 3.2"/>
  <path class="hbcls-1" d="M2786.6 367.8c9.3 1 10.5 3 15.7 3.4 8.3.6 9-4.4 19.5-5 4.5-.4 7.6.3 13.7 1.6 9.9 2.1 19 6.2 18.8 7.3-.1.6-3-.2-8.7-.2-3.9 0-6 .4-14 1.6a315 315 0 01-19 2.7c-6 .4-9.8.7-14.6-1-3.9-1.3-4.1-2.4-11.5-5.6-5.5-2.5-8.5-3.2-8.4-4s5.1-1.1 8.5-.8z" transform="translate(-11.8 -18.6)"/>
  <path class="hbcls-1" d="M2778.2 368.6a146.6 146.6 0 0114 16 56.4 56.4 0 015.5 9.1c1.3 2.9 2 5.6 5.4 6 0 0 15-2.4 24.9-.2h-.4a2.5 2.5 0 001.7-.7 70.6 70.6 0 0125-23.8" transform="translate(-11.8 -18.6)"/>
  <path class="hbcls-1" d="M2774.7 413.2c-12 11-23.3 32.5-16.5 48.2 1.8 4 5 8.2 13.3 13.3 34.7 21.4 75 6.7 77.3 5.7 8.4-3.4 14.2-5.9 18.5-12.2 9.4-14 4.7-35.8-4.3-48.5-18.2-25.8-64.4-28.4-88.3-6.5z" transform="translate(-11.8 -18.6)"/>
  <path class="hbcls-4" d="M121.2 411.6s-5.4-14-22.8-25.5c0 0-28.6-18.3-52-6.7 0 0-13.6 6-16.8 38s-15.4 38.1-15.4 38.1 21.4 23.2 70.4 13.4l-.2-1A19 19 0 0173 451a18.1 18.1 0 0117.5-18.3c9.9 0 17.1 8.4 17.6 18.3a16.6 16.6 0 01-2.6 9.4 5.6 5.6 0 01.5.4c25.7-17 15.3-49.1 15.3-49.1z" transform="translate(-11.8 -18.6)"/>
  <path class="hbcls-4" d="M109.8 352.7L91.8 371l-4.6-3.3 8.2-25 14.5 9.9z"/>
  <path class="hbcls-6" d="M296.7 392.8c-24.2-52.3-83.3-20-71.9 23.4l3.4 14.6-39.4 40.6c-3.9 4-1.4 10.7 4 11 3 3 41.9-41.4 44.3-42.6 43.7 13.1 66.7-16 59.6-47zm-7.7 24c-14.8 36.8-68.5 17.5-59-21.1 13.5-43.4 74.8-20.8 59 21.1z" transform="translate(-11.8 -18.6)"/>
  <ellipse class="hbcls-6" cx="248.5" cy="385.4" rx="31.3" ry="32.6"/>
  <path class="hbcls-7" d="M370.4 438.8l-.8-.6-3 5c-3.4 6.1-6.6 12.3-9.8 18.4-3 5.6-6.3 11-8.5 17-.4 1.2-1.7 4.5.4 4.6 1.6.2 3-2.7 3.5-3.9 3-5.6 5.6-11.5 8.3-17.2a287 287 0 0111.8-22zM373.3 435.2l-1.4-1-1.2 2.1 1.6 1.1 1.2.9 1.1-1.9zM475.7 385.6a40.1 40.1 0 00-30.9-12.6 60.6 60.6 0 00-33 13.8 163.2 163.2 0 00-38.7 45.5l2.1 1.7.6.5a198 198 0 0127.1-34.2 89.8 89.8 0 0129.3-20.9 43.7 43.7 0 0135.8 1.4 45.5 45.5 0 017.7 4.9z" transform="translate(-11.8 -18.6)"/>
  <path class="hbcls-7" d="M360.6 421.5l1.1-1.9-2.8-2-1.1 2 2.8 2zM362.9 417.8l1.2-2-2.8-2.1-1.1 1.9 2.7 2.2z"/>
  <path class="hbcls-9" d="M579.3 387l.7.2h.5a11.2 11.2 0 013.1.4c22.5-52.4-50.6-21.9-50.6-21.9 36.2-8.9 44.5 9.4 46.3 21.3z" transform="translate(-11.8 -18.6)"/>
  <path class="hbcls-9" d="M582.4 387.4a9.7 9.7 0 012.9 1 11 11 0 012.4-.3c9.4-9.6 28.7-19.5 57.3 14.7 0 0-51.7-83.5-62.6-15.4z" transform="translate(-11.8 -18.6)"/>
  <path class="hbcls-9" d="M561.4 471.8a31 31 0 003.1 1.4l5 2c1.8-2.3 3.2-4.7 4.8-7 8.7-11.9 16.8-8.7 27.4-18.2 9.7-8.7 20.2-27 14.1-42.3-5.8-14.6-23.6-18.3-26.1-18.9l-9.7-.6-9.6-.7c-14.6-.3-27.4 7.7-32.7 19.2s-3 26.2 12.5 39.5c11.7 10.3 13.2 19 11.2 25.6zM560.7 477.3c1.6.7 3 1.6 4.6 2.5a27.8 27.8 0 002.8-2.8 76.5 76.5 0 01-7.5-3 20 20 0 01-1.4 2.6zM562.7 481l-4.3-2.2-.5-.3a28.5 28.5 0 01-2.1 2.5c-3.1 3.3-6.2 5.2-6 5.4.4.8 7-.7 12.8-4.5l.8-.6z" transform="translate(-11.8 -18.6)"/>
  <path class="hbcls-9" d="M556.3 458.4l1.5-1.8-8.2-3.4-.8 2.2M553.5 461.2l-1.9 1.5-5.5-2.8 1.3-2 6.1 3.3"/>
  <path class="hbcls-1" d="M736 364.7c9.3 1 10.5 3 15.7 3.4 8.2.5 9-4.4 19.5-5.1 4.5-.3 7.6.4 13.7 1.7 9.9 2.1 19 6.2 18.8 7.2-.2.6-3.1-.1-8.7-.1-3.9 0-6.1.4-14 1.6a315 315 0 01-19 2.7c-6 .4-9.8.6-14.6-1-3.9-1.3-4.1-2.4-11.5-5.7-5.5-2.4-8.5-3.2-8.4-4s5-1 8.5-.7z" transform="translate(-11.8 -18.6)"/>
  <path class="hbcls-1" d="M727.5 365.5a145.7 145.7 0 0114.1 16 55.3 55.3 0 015.4 9.1c1.4 2.8 2 5.5 5.5 6 0 0 14.9-2.5 24.8-.3h-.4a2.4 2.4 0 001.8-.6 70.6 70.6 0 0125-23.8" transform="translate(-11.8 -18.6)"/>
  <path class="hbcls-1" d="M724 410.1c-12 10.9-23.3 32.5-16.4 48.2 1.7 4 5 8.2 13.2 13.3 34.8 21.4 75 6.7 77.4 5.7 8.3-3.4 14.1-5.9 18.4-12.3 9.5-13.9 4.7-35.8-4.3-48.5-18.2-25.8-64.3-28.3-88.3-6.4z" transform="translate(-11.8 -18.6)"/>
  <path class="hbcls-3" d="M3031.2 427.4l-10.8-4.8a7.1 7.1 0 01-3.4-9.5 3.6 3.6 0 01.2-.3l5.7-10.7c3.1-5.7-2.5-12.3-8.3-10l-11 4.6a6.7 6.7 0 01-8.6-3.7 7.6 7.6 0 01-.3-1l-3.2-11.7a6.7 6.7 0 00-12.7-.8l-4.5 11.2a6.6 6.6 0 01-8.6 3.7 8 8 0 01-.9-.4l-10.2-6c-5.5-3.2-11.9 2.6-9.6 8.7l4.4 11.3a7 7 0 01-4 9.2l-.5.2-11.3 3.3c-6 1.8-6.6 10.5-.8 13.1l10.8 4.9a7.1 7.1 0 013.4 9.4l-.2.4-5.8 10.7c-3 5.7 2.5 12.3 8.4 9.9l10.8-4.5a6.7 6.7 0 018.7 3.7 6.1 6.1 0 01.3 1l3.2 11.6a6.7 6.7 0 0012.6.9l4.7-11.2a6.6 6.6 0 018.6-3.8 5.7 5.7 0 01.9.5l10.2 6c5.6 3.2 12-2.6 9.6-8.7l-4.4-11.4a7 7 0 014-9.1l.5-.2 11.3-3.3c6-1.8 6.6-10.6.8-13.2zm-34 10.5a13.1 13.1 0 01-3.4 5.6 12.6 12.6 0 01-5.4 3.7 12.3 12.3 0 01-6.4 1.5 33 33 0 01-4.7-.7c-2.5-.4-5.7-2.7-7.5-4.5s-3.9-5.2-4.3-7.8a37.1 37.1 0 01-.6-4.8 18 18 0 012.3-8.8l2.6-3.5a16.6 16.6 0 017.4-4.5l4.5-.6a12.2 12.2 0 016.4 1.4 12.3 12.3 0 015.4 3.6l.3.3.1.2a12.1 12.1 0 011 1.1 17.6 17.6 0 013.2 6.4l.6 4.6a13.4 13.4 0 01-1.4 6.8zM814.9 587.7l-10.8-4.8a7.1 7.1 0 01-3.4-9.5 3.6 3.6 0 01.2-.4l5.7-10.6c3.1-5.8-2.5-12.4-8.3-10l-11 4.6a6.7 6.7 0 01-8.6-3.7 6.1 6.1 0 01-.3-.9l-3.2-11.7a6.7 6.7 0 00-12.7-.9L758 551a6.6 6.6 0 01-8.5 3.8 7.1 7.1 0 01-1-.5l-10.2-6c-5.5-3.2-11.8 2.6-9.5 8.7l4.3 11.3a7 7 0 01-4 9.2l-.5.2-11.2 3.3c-6 1.8-6.6 10.6-.8 13.2l10.8 4.8a7.1 7.1 0 013.4 9.5l-.2.3-5.7 10.7c-3.1 5.7 2.4 12.3 8.3 9.9l10.8-4.5a6.7 6.7 0 018.7 3.7 7.6 7.6 0 01.3 1l3.2 11.6a6.7 6.7 0 0012.7 1l4.6-11.3a6.6 6.6 0 018.6-3.7 5.8 5.8 0 011 .4l10.2 6c5.5 3.2 11.9-2.6 9.5-8.7l-4.3-11.4a7 7 0 014-9.1l.5-.2L814 601c6-1.8 6.6-10.6.8-13.2zM781 598.2a13.3 13.3 0 01-3.5 5.6 12.7 12.7 0 01-5.4 3.6 12.3 12.3 0 01-6.4 1.5 32.8 32.8 0 01-4.7-.6c-2.5-.4-5.7-2.7-7.5-4.5s-3.9-5.2-4.3-7.8a35.5 35.5 0 01-.6-4.8 17.9 17.9 0 012.3-8.8l2.6-3.5a16.6 16.6 0 017.4-4.5l4.5-.7a12.2 12.2 0 016.4 1.5 12.4 12.4 0 015.4 3.6l.3.3.1.2a14 14 0 011 1.1 17.8 17.8 0 013.2 6.4l.6 4.6a13.6 13.6 0 01-1.4 6.8z" transform="translate(-11.8 -18.6)"/>
  <path class="hbcls-4" d="M972.2 583.2s-5.4-14-22.8-25.4c0 0-28.5-18.4-52-6.8 0 0-13.6 6.1-16.8 38s-15.4 38.2-15.4 38.2 21.5 23.2 70.4 13.3l-.1-1a19 19 0 01-11.6-17 18.1 18.1 0 0117.5-18.3c9.9 0 17.2 8.4 17.6 18.3a16.6 16.6 0 01-2.6 9.4 5.6 5.6 0 01.6.4c25.6-16.9 15.2-49 15.2-49z" transform="translate(-11.8 -18.6)"/>
  <path class="hbcls-4" d="M960.9 524.3l-18.2 18.4-4.6-3.3 8.2-25 14.6 10z"/>
  <path class="hbcls-6" d="M1147.7 564.5c-24.2-52.3-83.3-20.1-71.9 23.4l3.4 14.5-39.4 40.6c-3.8 4-1.3 10.7 4 11 3 3 41.9-41.4 44.3-42.6 43.7 13.2 66.7-15.9 59.6-47zm-7.7 24c-14.8 36.8-68.5 17.5-59-21.2 13.6-43.4 74.9-20.8 59 21.2z" transform="translate(-11.8 -18.6)"/>
  <ellipse class="hbcls-6" cx="1099.5" cy="557" rx="31.3" ry="32.6"/>
  <path class="hbcls-7" d="M1221.5 610.4l-1-.6-2.8 5-9.9 18.5c-3 5.6-6.2 11-8.4 17-.4 1.1-1.7 4.4.3 4.6 1.7.1 3-2.8 3.6-4 2.9-5.6 5.5-11.4 8.3-17.2a287 287 0 0111.8-22zM1224.3 606.9l-1.3-1-1.3 2 1.6 1.2 1.2.8 1.2-1.8zM1326.8 557.3a40.1 40.1 0 00-31-12.7 60.6 60.6 0 00-33 13.8 163 163 0 00-38.7 45.5l2.1 1.7.7.5a197.1 197.1 0 0127-34.2 89.7 89.7 0 0129.3-20.8 43.6 43.6 0 0135.9 1.3 46.4 46.4 0 017.7 5z" transform="translate(-11.8 -18.6)"/>
  <path class="hbcls-7" d="M1211.6 593.2l1.2-2-2.8-1.9-1.2 2 2.8 1.9zM1214 589.4l1-1.9-2.6-2.2-1.2 2 2.7 2.1z"/>
  <path class="hbcls-9" d="M1430.3 558.7l.7.2h.5a10.8 10.8 0 013.1.4c22.5-52.5-50.5-22-50.5-22 36.1-8.8 44.5 9.5 46.2 21.4z" transform="translate(-11.8 -18.6)"/>
  <path class="hbcls-9" d="M1433.4 559a9.5 9.5 0 013 1 11 11 0 012.3-.3c9.4-9.6 28.7-19.5 57.3 14.8 0 0-51.6-83.5-62.6-15.5z" transform="translate(-11.8 -18.6)"/>
  <path class="hbcls-9" d="M1412.4 643.5a31 31 0 003.2 1.4l5 2c1.8-2.4 3.1-4.8 4.8-7 8.7-12 16.8-8.8 27.4-18.3 9.6-8.7 20.2-27 14-42.2-5.8-14.6-23.5-18.4-26.1-19l-9.6-.6-9.7-.6c-14.5-.3-27.3 7.7-32.6 19s-3 26.3 12.5 39.7c11.6 10.2 13.1 19 11.1 25.6zM1411.7 649c1.6.7 3.1 1.6 4.6 2.5a29 29 0 002.8-2.8 75.7 75.7 0 01-7.5-3 20 20 0 01-1.4 2.6zM1413.8 652.6l-4.3-2.2-.6-.3a32.4 32.4 0 01-2 2.5c-3.2 3.3-6.2 5.2-6 5.4.3.8 7-.7 12.7-4.5l.8-.6z" transform="translate(-11.8 -18.6)"/>
  <path class="hbcls-9" d="M1407.3 630l1.6-1.8-8.3-3.3-.8 2.1M1404.6 632.8l-2 1.5-5.4-2.8 1.3-1.9 6 3.2"/>
  <path class="hbcls-1" d="M1587 536.3c9.3 1 10.5 3 15.7 3.4 8.2.6 9-4.4 19.5-5 4.5-.4 7.6.3 13.7 1.6 9.9 2.2 19 6.2 18.8 7.3-.2.6-3.1-.2-8.7-.2-3.9 0-6.1.4-14 1.6a315 315 0 01-19 2.8c-6 .3-9.8.6-14.6-1-3.9-1.4-4.1-2.5-11.5-5.7-5.5-2.5-8.5-3.2-8.4-4s5.1-1.1 8.5-.8z" transform="translate(-11.8 -18.6)"/>
  <path class="hbcls-1" d="M1578.5 537.1a147.8 147.8 0 0114.1 16 56.7 56.7 0 015.5 9.2c1.3 2.8 2 5.5 5.4 6 0 0 15-2.5 24.9-.3h-.4a2.5 2.5 0 001.7-.7 70.6 70.6 0 0125-23.8" transform="translate(-11.8 -18.6)"/>
  <path class="hbcls-1" d="M1575 581.8c-11.9 10.8-23.2 32.4-16.4 48.1 1.8 4.1 5 8.2 13.2 13.3 34.8 21.4 75 6.7 77.4 5.7 8.4-3.4 14.2-5.9 18.5-12.2 9.4-14 4.7-35.8-4.3-48.5-18.3-25.8-64.4-28.4-88.4-6.5z" transform="translate(-11.8 -18.6)"/>
  <path class="hbcls-3" d="M1846.4 590.2l-10.7-4.8a7.1 7.1 0 01-3.4-9.5l.2-.4 5.7-10.6c3-5.8-2.5-12.4-8.4-10l-10.9 4.6a6.7 6.7 0 01-8.7-3.7 7.6 7.6 0 01-.3-1l-3.2-11.7a6.7 6.7 0 00-12.6-.8l-4.6 11.2a6.6 6.6 0 01-8.6 3.7 8 8 0 01-.9-.4l-10.2-6c-5.5-3.2-11.9 2.6-9.5 8.7l4.3 11.3a7 7 0 01-4 9.2l-.4.1-11.3 3.4c-6.1 1.8-6.7 10.5-.9 13.1l10.8 4.9a7 7 0 013.4 9.4l-.2.4-5.7 10.6c-3 5.8 2.5 12.4 8.4 10l10.8-4.5a6.7 6.7 0 018.7 3.7 5.8 5.8 0 01.3.9l3.2 11.7a6.7 6.7 0 0012.6.9l4.7-11.2a6.6 6.6 0 018.6-3.8 6.2 6.2 0 01.9.5l10.2 6c5.6 3.2 12-2.6 9.6-8.7l-4.4-11.4a7 7 0 014-9.2 4 4 0 01.5-.1l11.3-3.3c6-1.9 6.5-10.6.7-13.2zm-33.9 10.5a13.1 13.1 0 01-3.4 5.6 12.7 12.7 0 01-5.4 3.6 12.3 12.3 0 01-6.5 1.5 33 33 0 01-4.6-.6c-2.5-.4-5.8-2.7-7.5-4.5s-4-5.2-4.4-7.8a39.4 39.4 0 01-.6-4.8 18 18 0 012.3-8.8l2.7-3.6a16.5 16.5 0 017.4-4.4l4.4-.7a12.2 12.2 0 016.5 1.5 12.3 12.3 0 015.4 3.6l.2.3.2.2a11 11 0 011 1.1 17.5 17.5 0 013.2 6.4l.6 4.6a13.5 13.5 0 01-1.5 6.8z" transform="translate(-11.8 -18.6)"/>
  <path class="hbcls-4" d="M2003.7 585.7s-5.3-14-22.8-25.4c0 0-28.5-18.4-51.9-6.8 0 0-13.7 6.1-16.9 38s-15.3 38.2-15.3 38.2 21.4 23.2 70.4 13.3l-.2-1a19 19 0 01-11.6-17 18.1 18.1 0 0117.6-18.3c9.8 0 17.1 8.4 17.5 18.2a16.6 16.6 0 01-2.5 9.5 3.6 3.6 0 01.5.4c25.6-16.9 15.2-49.1 15.2-49.1z" transform="translate(-11.8 -18.6)"/>
  <path class="hbcls-4" d="M1992.4 526.8l-18.1 18.4-4.6-3.3 8.1-25 14.6 10z"/>
  <path class="hbcls-6" d="M2179.3 567c-24.3-52.3-83.3-20.1-72 23.4l3.5 14.5-39.4 40.6c-3.9 4-1.4 10.7 4 11 3 3 41.9-41.4 44.3-42.6 43.7 13.2 66.7-15.9 59.6-47zm-7.8 24c-14.7 36.8-68.4 17.5-58.8-21.2 13.4-43.4 74.7-20.8 58.8 21.2z" transform="translate(-11.8 -18.6)"/>
  <ellipse class="hbcls-6" cx="2131.1" cy="559.5" rx="31.3" ry="32.6"/>
  <path class="hbcls-7" d="M2253 613l-.9-.7-2.9 5c-3.4 6.1-6.6 12.3-9.9 18.5-3 5.6-6.2 11-8.4 17-.4 1-1.7 4.4.4 4.6 1.6.1 2.9-2.8 3.5-4 3-5.6 5.5-11.4 8.3-17.2a287 287 0 0111.8-22zM2255.8 609.4l-1.3-1-1.2 2 1.6 1.2 1.2.8 1.1-1.9zM2358.3 559.8a40 40 0 00-30.9-12.7 60.6 60.6 0 00-33 13.8 163 163 0 00-38.7 45.5l2.1 1.7.6.5a197.7 197.7 0 0127-34.2 89.8 89.8 0 0129.4-20.8 43.6 43.6 0 0135.8 1.3 45 45 0 017.7 5z" transform="translate(-11.8 -18.6)"/>
  <path class="hbcls-7" d="M2243.2 595.6l1.1-1.8-2.8-2-1.1 1.9 2.8 2zM2245.5 591.9l1.2-1.9-2.8-2.2-1.1 1.9 2.7 2.2z"/>
  <path class="hbcls-9" d="M2461.9 561.1l.7.2h.5a10.9 10.9 0 013.1.5c22.5-52.5-50.6-22-50.6-22 36.2-8.8 44.5 9.5 46.3 21.4z" transform="translate(-11.8 -18.6)"/>
  <path class="hbcls-9" d="M2465 561.5a9.4 9.4 0 013 1 11 11 0 012.3-.3c9.4-9.6 28.7-19.5 57.3 14.7 0 0-51.7-83.5-62.6-15.4z" transform="translate(-11.8 -18.6)"/>
  <path class="hbcls-9" d="M2444 646a31 31 0 003.2 1.4l5 2c1.8-2.4 3.1-4.7 4.8-7 8.7-12 16.8-8.7 27.3-18.2 9.7-8.8 20.3-27 14.1-42.3-5.8-14.6-23.5-18.4-26.1-18.9l-9.6-.6-9.7-.7c-14.5-.3-27.3 7.7-32.6 19.1s-3 26.3 12.5 39.6c11.6 10.2 13.1 19 11.1 25.6zM2443.3 651.4l4.6 2.5a28.9 28.9 0 002.8-2.7 76.5 76.5 0 01-7.6-3 20 20 0 01-1.3 2.6zM2445.3 655l-4.3-2.1-.5-.3a30 30 0 01-2.1 2.5c-3.1 3.3-6.2 5.2-6 5.4.4.8 7-.7 12.8-4.5l.8-.6z" transform="translate(-11.8 -18.6)"/>
  <path class="hbcls-9" d="M2439 632.6l1.4-1.9-8.2-3.3-.8 2.1M2436.1 635.3l-2 1.5-5.4-2.8 1.3-2 6.1 3.3"/>
  <path class="hbcls-1" d="M2618.6 538.8c9.2 1 10.4 3 15.7 3.4 8.2.6 8.9-4.4 19.4-5 4.5-.4 7.7.3 13.7 1.6 10 2.1 19.1 6.2 18.8 7.3-.1.6-3-.2-8.6-.2-4 0-6.1.4-14 1.6a315 315 0 01-19 2.7c-6 .4-9.9.7-14.6-1-4-1.3-4.2-2.4-11.6-5.6-5.5-2.5-8.5-3.2-8.4-4s5.2-1.1 8.6-.8z" transform="translate(-11.8 -18.6)"/>
  <path class="hbcls-1" d="M2610.1 539.6a145.7 145.7 0 0114 16 56 56 0 015.5 9.2c1.3 2.8 2 5.5 5.5 6 0 0 14.9-2.5 24.8-.3h-.4a2.5 2.5 0 001.8-.7 70.6 70.6 0 0125-23.8" transform="translate(-11.8 -18.6)"/>
  <path class="hbcls-1" d="M2606.6 584.2c-12 11-23.3 32.5-16.4 48.2 1.7 4 5 8.2 13.2 13.3 34.8 21.4 75 6.7 77.4 5.7 8.3-3.4 14.1-5.9 18.4-12.2 9.5-14 4.7-35.9-4.3-48.6-18.2-25.7-64.3-28.3-88.3-6.4z" transform="translate(-11.8 -18.6)"/>
  <path class="hbcls-6" d="M128.6 563.8c-24.2-52.3-83.2-20-71.8 23.4l3.3 14.6-39.4 40.6c-3.8 4-1.3 10.7 4 11 3 3 42-41.4 44.3-42.7 43.7 13.2 66.7-15.9 59.6-46.9zm-7.7 24c-14.8 36.8-68.5 17.5-58.9-21.1 13.5-43.4 74.8-20.8 58.9 21.1z" transform="translate(-11.8 -18.6)"/>
  <ellipse class="hbcls-6" cx="80.4" cy="556.4" rx="31.3" ry="32.6"/>
  <path class="hbcls-7" d="M202.4 609.8l-.9-.6-3 5-9.8 18.4c-3 5.6-6.2 11-8.4 17-.4 1.1-1.7 4.5.4 4.6 1.6.2 2.9-2.7 3.5-3.9 3-5.6 5.5-11.5 8.3-17.2a287 287 0 0111.8-22zM205.2 606.2l-1.3-1-1.3 2.1 1.7 1.1 1.1.9 1.2-1.9zM307.7 556.6a40.2 40.2 0 00-31-12.6 60.6 60.6 0 00-33 13.8 163 163 0 00-38.6 45.5l2 1.7.7.5a197.5 197.5 0 0127-34.2 89.8 89.8 0 0129.3-20.8 43.7 43.7 0 0135.9 1.3 47 47 0 017.7 4.9z" transform="translate(-11.8 -18.6)"/>
  <path class="hbcls-7" d="M192.5 592.5l1.2-1.9-2.8-2-1.2 2 2.8 2zM194.8 588.8l1.2-2-2.7-2.1-1.2 1.9 2.7 2.2z"/>
  <path class="hbcls-9" d="M411.2 558l.8.2h.5a11.3 11.3 0 013 .4c22.5-52.5-50.5-21.9-50.5-21.9 36.1-8.9 44.5 9.4 46.2 21.3z" transform="translate(-11.8 -18.6)"/>
  <path class="hbcls-9" d="M414.3 558.4a10.1 10.1 0 013 1 12.2 12.2 0 012.4-.3c9.3-9.6 28.7-19.5 57.2 14.7 0 0-51.6-83.5-62.6-15.4z" transform="translate(-11.8 -18.6)"/>
  <path class="hbcls-9" d="M393.3 642.8a31 31 0 003.2 1.4l5 2c1.8-2.3 3.1-4.7 4.8-7 8.7-11.9 16.8-8.7 27.4-18.2 9.7-8.7 20.2-27 14-42.3-5.8-14.6-23.5-18.3-26-18.9l-9.7-.6-9.6-.7c-14.6-.3-27.4 7.7-32.7 19.1s-3 26.3 12.5 39.6c11.7 10.3 13.1 19 11.1 25.6zM392.6 648.3c1.6.7 3.1 1.6 4.6 2.5a28.9 28.9 0 002.8-2.8 72.3 72.3 0 01-7.5-3 22 22 0 01-1.4 2.6zM394.7 652l-4.3-2.2-.5-.3a30.6 30.6 0 01-2.2 2.5c-3 3.3-6.1 5.2-6 5.4.4.8 7-.7 12.9-4.5l.7-.6z" transform="translate(-11.8 -18.6)"/>
  <path class="hbcls-9" d="M388.3 629.4l1.5-1.8-8.3-3.4-.8 2.2M385.5 632.2l-2 1.5-5.4-2.9 1.3-1.8 6 3.2"/>
  <path class="hbcls-1" d="M568 535.7c9.2 1 10.4 3 15.6 3.4 8.3.5 9-4.4 19.5-5.1 4.5-.3 7.6.4 13.7 1.7 9.9 2.1 19 6.2 18.8 7.2-.1.6-3-.2-8.7-.1-3.9 0-6 .4-14 1.6a315 315 0 01-19 2.7c-6 .4-9.8.6-14.6-1-3.9-1.3-4.1-2.4-11.5-5.7-5.5-2.4-8.5-3.2-8.4-4s5.1-1 8.5-.7z" transform="translate(-11.8 -18.6)"/>
  <path class="hbcls-1" d="M559.5 536.5a147.7 147.7 0 0114 16 57.1 57.1 0 015.5 9.1c1.3 2.8 2 5.5 5.4 6 0 0 15-2.5 24.9-.3h-.4a2.5 2.5 0 001.7-.7 70.6 70.6 0 0125-23.7" transform="translate(-11.8 -18.6)"/>
  <path class="hbcls-1" d="M556 581.1c-12 10.9-23.3 32.5-16.4 48.2 1.7 4 5 8.2 13.2 13.3 34.8 21.4 75 6.6 77.4 5.7 8.3-3.4 14.1-6 18.4-12.3 9.5-13.9 4.7-35.8-4.3-48.5-18.2-25.8-64.4-28.3-88.3-6.4z" transform="translate(-11.8 -18.6)"/>
  <path class="hbcls-3" d="M2863.1 598.4l-10.8-4.8a7.1 7.1 0 01-3.3-9.5l.1-.4 5.8-10.6c3-5.8-2.5-12.4-8.4-10l-11 4.6a6.7 6.7 0 01-8.6-3.7 7 7 0 01-.3-1l-3.2-11.6a6.7 6.7 0 00-12.7-1l-4.5 11.3a6.6 6.6 0 01-8.6 3.8 8 8 0 01-.9-.5l-10.2-6c-5.6-3.2-11.9 2.6-9.6 8.7l4.4 11.3a7 7 0 01-4 9.2 3.8 3.8 0 01-.5.2l-11.3 3.3c-6 1.8-6.6 10.5-.8 13.1l10.7 4.9a7.1 7.1 0 013.4 9.4l-.1.4-5.7 10.6c-3 5.8 2.5 12.4 8.4 10l10.8-4.5a6.7 6.7 0 018.7 3.7 5.7 5.7 0 01.3 1l3.2 11.6a6.7 6.7 0 0012.6.9l4.7-11.2a6.6 6.6 0 018.6-3.8 7.3 7.3 0 01.9.5l10.2 6c5.6 3.2 12-2.6 9.6-8.7l-4.4-11.4a7 7 0 014-9.1l.5-.2 11.3-3.3c6-1.8 6.5-10.6.7-13.2zm-33.9 10.5a13 13 0 01-3.4 5.6 12.5 12.5 0 01-5.4 3.6 12.2 12.2 0 01-6.5 1.5 33 33 0 01-4.6-.6c-2.5-.4-5.8-2.7-7.5-4.5s-4-5.2-4.4-7.8a39 39 0 01-.6-4.8 18 18 0 012.3-8.8l2.6-3.5a16.7 16.7 0 017.4-4.5l4.5-.6a18 18 0 0111.9 5l.2.3.2.2a12.1 12.1 0 011 1.1 17.7 17.7 0 013.2 6.4l.6 4.6a13.4 13.4 0 01-1.5 6.8z" transform="translate(-11.8 -18.6)"/>
  <path class="hbcls-4" d="M3028.4 597.6s-5.4-14-22.8-25.4c0 0-28.6-18.4-52-6.8 0 0-13.6 6.1-16.8 38s-15.4 38.2-15.4 38.2 21.5 23.2 70.4 13.3l-.1-1a19 19 0 01-11.6-17 18.1 18.1 0 0117.5-18.3c9.9 0 17.2 8.4 17.6 18.3a16.5 16.5 0 01-2.6 9.4 5.6 5.6 0 01.6.4c25.6-16.9 15.2-49.1 15.2-49.1z" transform="translate(-11.8 -18.6)"/>
  <path class="hbcls-4" d="M3017 538.7l-18 18.4-4.7-3.3 8.2-25 14.6 10z"/>
</svg>