<svg id="Layer_1" data-name="Layer 1" xmlns="http://www.w3.org/2000/svg" viewBox="0 0 3031.3 646.7">
  <defs>
    <style>
      .htcls-1,.htcls-10,.htcls-2,.htcls-3,.htcls-4,.htcls-5,.htcls-6,.htcls-8,.htcls-9{fill:none}.htcls-1{stroke:#8cc63f}.htcls-1,.htcls-10,.htcls-11,.htcls-2,.htcls-3,.htcls-4,.htcls-5,.htcls-6,.htcls-7,.htcls-8,.htcls-9{stroke-miterlimit:10}.htcls-1,.htcls-10,.htcls-11,.htcls-3,.htcls-4,.htcls-6,.htcls-8,.htcls-9{stroke-width:3px}.htcls-11,.htcls-2,.htcls-3{stroke:#ffbee5}.htcls-4,.htcls-5{stroke:#ffc292}.htcls-6{stroke:#a3efff}.htcls-7{fill:#fff;stroke:#dfcca8}.htcls-8{stroke:#fed9ae}.htcls-9{stroke:#000}.htcls-10{stroke:#ff8181}.htcls-11{fill:#e6e6e6}
    </style>
  </defs>
  <path class="htcls-1" d="M1172.7 89s-5.4-14-22.8-25.4c0 0-28.6-18.4-52-6.8 0 0-13.6 6.1-16.8 38s-15.4 38.1-15.4 38.1 21.4 23.2 70.3 13.4v-1a19 19 0 01-11.7-17A18.1 18.1 0 011142 110c9.8 0 17.1 8.4 17.5 18.3a16.6 16.6 0 01-2.5 9.4l.5.4c25.6-16.9 15.3-49.1 15.3-49.1z" transform="translate(-20 -26.4)"/>
  <path class="htcls-1" d="M1153 22.3L1135 40.7l-4.7-3.3 8.2-25 14.6 9.9z"/>
  <path class="htcls-3" d="M1332.5 64c-24.2-52.4-83.3-20-71.9 23.3l3.4 14.6-39.4 40.6c-3.8 4-1.4 10.7 4 11 3 3 41.9-41.4 44.3-42.6 43.7 13.1 66.7-15.9 59.6-47zm-7.7 24c-14.8 36.8-68.5 17.5-59-21.2 13.5-43.4 74.9-20.8 59 21.2z" transform="translate(-20 -26.4)"/>
  <ellipse class="htcls-3" cx="1276" cy="48.6" rx="31.3" ry="32.6"/>
  <path class="htcls-4" d="M1414.2 109.5l-1-.6c-1 1.6-2 3.3-2.8 5-3.5 6-6.7 12.3-10 18.4-3 5.6-6.1 11-8.3 17-.4 1.1-1.8 4.5.3 4.6 1.7.2 3-2.7 3.6-4 2.9-5.5 5.5-11.4 8.3-17.1q5.4-11.3 11.8-22l-2-1.3zM1417 106a24 24 0 00-1.3-1l-1.3 2 1.6 1 1.2.8 1.1-1.8zM1519.5 56.3a40.1 40.1 0 00-31-12.7 60.5 60.5 0 00-33 13.9 163.2 163.2 0 00-38.7 45.4l2.1 1.7.6.5a198.1 198.1 0 0127.2-34.2 89.7 89.7 0 0129.2-20.8 43.6 43.6 0 0136 1.4 45.5 45.5 0 017.6 4.8z" transform="translate(-20 -26.4)"/>
  <path class="htcls-4" d="M1396 84.4l1.1-2-2.8-1.9-1 2 2.7 1.9zM1398.3 80.6l1.2-1.9-2.8-2.2-1.1 2 2.7 2.1z"/>
  <path class="htcls-6" d="M1627.1 58.7l.8.2h.5a11.2 11.2 0 013 .5c22.5-52.5-50.5-22-50.5-22 36.1-8.9 44.5 9.5 46.2 21.3z" transform="translate(-20 -26.4)"/>
  <path class="htcls-6" d="M1630.3 59a10 10 0 012.9 1 10.9 10.9 0 012.4-.2c9.3-9.6 28.7-19.5 57.2 14.7 0 0-51.6-83.5-62.5-15.4z" transform="translate(-20 -26.4)"/>
  <path class="htcls-6" d="M1609.2 143.6a30.3 30.3 0 003.2 1.4l5 1.9c1.8-2.3 3.1-4.7 4.7-7 8.8-11.9 16.9-8.7 27.4-18.2 9.7-8.7 20.3-27 14.1-42.3-5.8-14.5-23.6-18.3-26.1-18.8l-9.6-.7-9.6-.6c-14.6-.4-27.4 7.6-32.6 19s-3.1 26.3 12.4 39.6c11.6 10.3 13.1 19 11.1 25.7zM1608.6 149c1.5.7 3 1.6 4.6 2.5a27.8 27.8 0 002.7-2.8 72.7 72.7 0 01-7.5-3 21.2 21.2 0 01-1.4 2.6l1.6.7zM1610.6 152.7l-4.3-2.3-.5-.2a30 30 0 01-2.1 2.5c-3.1 3.3-6.2 5.1-6 5.4.4.8 7-.7 12.8-4.5l.8-.6z" transform="translate(-20 -26.4)"/>
  <path class="htcls-6" d="M1595.9 122.3l1.5-1.8-8.3-3.4-.8 2.2M1593 125l-1.9 1.6-5.4-2.9 1.3-1.9 6 3.3"/>
  <path class="htcls-8" d="M1774.5 32.5c9.3 1 10.5 3 15.7 3.4 8.3.6 9-4.4 19.5-5 4.5-.4 7.6.3 13.7 1.6 9.9 2.1 19 6.2 18.8 7.3-.1.6-3-.2-8.7-.2-3.9 0-6.1.4-14 1.6-11 1.7-16.5 2.6-19 2.7-6 .4-9.8.7-14.6-1-3.9-1.3-4.1-2.4-11.5-5.7-5.5-2.4-8.5-3.2-8.4-4s5.1-1 8.5-.7z" transform="translate(-20 -26.4)"/>
  <path class="htcls-8" d="M1766 33.3a146.6 146.6 0 0114.1 16 56.4 56.4 0 015.5 9.1c1.3 2.8 2 5.5 5.4 6 0 0 15-2.4 24.9-.2h-.4a2.5 2.5 0 001.7-.7 70.6 70.6 0 0125-23.7" transform="translate(-20 -26.4)"/>
  <path class="htcls-8" d="M1762.5 78c-11.8 10.8-23.2 32.4-16.4 48.1 1.8 4 5 8.2 13.3 13.3 34.7 21.4 75 6.7 77.3 5.7 8.4-3.4 14.2-5.9 18.5-12.3 9.4-13.9 4.7-35.8-4.3-48.5-18.2-25.7-64.4-28.3-88.4-6.4z" transform="translate(-20 -26.4)"/>
  <path class="htcls-10" d="M2012.8 92l-10.8-4.8a7.1 7.1 0 01-3.4-9.5l.2-.4 5.7-10.6c3.1-5.8-2.5-12.4-8.3-10l-11 4.5a6.7 6.7 0 01-8.7-3.6 7 7 0 01-.3-1l-3.1-11.7a6.7 6.7 0 00-12.7-.9l-4.6 11.2a6.6 6.6 0 01-8.6 3.8 6 6 0 01-.9-.4l-10.2-6c-5.6-3.2-11.9 2.6-9.6 8.7l4.4 11.4a7 7 0 01-4 9.1l-.5.2-11.3 3.3c-6 1.8-6.6 10.5-.8 13.1l10.8 4.9a7.1 7.1 0 013.4 9.5l-.2.3-5.7 10.7c-3.1 5.7 2.5 12.3 8.3 9.9l11-4.5a6.7 6.7 0 018.6 3.7 6.2 6.2 0 01.3.9l3.2 11.7a6.7 6.7 0 0012.7.9l4.6-11.2a6.6 6.6 0 018.6-3.8 7.1 7.1 0 01.9.4l10.2 6c5.6 3.3 12-2.5 9.6-8.6l-4.3-11.4a7 7 0 013.9-9.2l.5-.1 11.3-3.4c6-1.8 6.6-10.5.8-13.1zm-34 10.5a13 13 0 01-3.4 5.6 12.5 12.5 0 01-5.4 3.6 12.1 12.1 0 01-6.5 1.5 33 33 0 01-4.6-.6c-2.5-.4-5.8-2.7-7.5-4.5s-4-5.2-4.3-7.8a37.1 37.1 0 01-.6-4.8 18 18 0 012.2-8.8l2.7-3.5a16.7 16.7 0 017.4-4.5l4.4-.6a18.2 18.2 0 0111.9 5l.3.3.2.2a13.5 13.5 0 011 1.2 17.6 17.6 0 013 6.4l.7 4.6a13.5 13.5 0 01-1.4 6.7z" transform="translate(-20 -26.4)"/>
  <path class="htcls-3" d="M1155.6 231c-24.3-52.3-83.3-20-72 23.4l3.4 14.6-39.3 40.6c-3.8 4-1.4 10.7 4 11 3 3 41.9-41.4 44.3-42.7 43.7 13.2 66.7-15.8 59.6-46.9zm-7.8 24c-14.7 36.9-68.4 17.6-58.9-21 13.5-43.5 74.8-21 59 21z" transform="translate(-20 -26.4)"/>
  <ellipse class="htcls-3" cx="1099" cy="215.7" rx="31.3" ry="32.6"/>
  <path class="htcls-4" d="M1225.3 276.5l-1-.6c-1 1.7-2 3.4-2.8 5.1-3.5 6-6.7 12.2-10 18.4-3 5.6-6.2 11-8.3 17-.4 1.1-1.8 4.4.3 4.6 1.7.1 3-2.8 3.5-4 3-5.6 5.6-11.4 8.3-17.2 3.7-7.4 7.6-14.8 11.9-22zM1228 273l-1.2-1-1.3 2.1 1.6 1.1 1.2.9 1.2-2zM1330.5 223.4a40.2 40.2 0 00-30.8-12.7 60.6 60.6 0 00-33 13.9A163 163 0 001228 270l2 1.7.7.6a198.2 198.2 0 0127-34.3 89.8 89.8 0 0129.4-20.8 43.6 43.6 0 0135.8 1.3 45.5 45.5 0 017.7 5z" transform="translate(-20 -26.4)"/>
  <path class="htcls-4" d="M1207 251.4l1.2-1.8-2.8-2-1.1 1.9 2.8 2zM1209.4 247.7l1.2-1.9-2.8-2.2-1.1 1.9 2.7 2.2z"/>
  <path class="htcls-6" d="M1438.2 225.8l.7.2h.6a11.3 11.3 0 013 .4c22.5-52.5-50.5-22-50.5-22 36.1-8.8 44.5 9.5 46.2 21.4z" transform="translate(-20 -26.4)"/>
  <path class="htcls-6" d="M1441.3 226.2a9.4 9.4 0 013 1 10.9 10.9 0 012.4-.3c9.3-9.7 28.7-19.5 57.2 14.7 0 0-51.6-83.5-62.6-15.4z" transform="translate(-20 -26.4)"/>
  <path class="htcls-6" d="M1420.3 310.6a31 31 0 003.2 1.4l5 2c1.7-2.4 3-4.7 4.7-7 8.7-11.9 16.8-8.7 27.4-18.2 9.7-8.7 20.2-27 14.1-42.3-5.8-14.6-23.6-18.4-26.1-18.9l-9.6-.6-9.6-.6c-14.6-.4-27.4 7.6-32.7 19s-3 26.3 12.5 39.6c11.6 10.3 13.1 19 11.1 25.6zM1419.7 316.1c1.5.7 3 1.6 4.6 2.5a27.8 27.8 0 002.8-2.8 76.1 76.1 0 01-7.6-3 21.2 21.2 0 01-1.3 2.6zM1421.7 319.8l-4.3-2.3-.6-.3a25.8 25.8 0 01-2.1 2.6c-3.1 3.3-6.1 5.1-6 5.3.4.8 7-.6 12.8-4.5l.8-.5z" transform="translate(-20 -26.4)"/>
  <path class="htcls-6" d="M1407 289.4l1.5-1.9-8.3-3.3-.8 2.1M1404.2 292.1l-2 1.5-5.4-2.8 1.3-1.9 6 3.2"/>
  <path class="htcls-8" d="M1585.6 199.6c9.3 1 10.5 3 15.7 3.4 8.2.5 9-4.4 19.5-5.1 4.5-.3 7.6.4 13.7 1.7 9.9 2.1 19 6.2 18.8 7.2-.2.6-3-.2-8.7-.1-3.9 0-6.1.4-14 1.6-11 1.7-16.5 2.5-19 2.7-6 .4-9.8.6-14.6-1-3.9-1.3-4.1-2.4-11.5-5.7-5.5-2.4-8.5-3.2-8.4-4s5.1-1 8.5-.7z" transform="translate(-20 -26.4)"/>
  <path class="htcls-8" d="M1577.2 200.4a146.6 146.6 0 0114 16 56.8 56.8 0 015.5 9.1c1.3 2.8 2 5.5 5.4 6 0 0 15-2.5 24.9-.3h-.4a2.5 2.5 0 001.7-.7 70.5 70.5 0 0125-23.7" transform="translate(-20 -26.4)"/>
  <path class="htcls-8" d="M1573.7 245c-12 10.9-23.3 32.5-16.5 48.2 1.8 4 5 8.2 13.3 13.3 34.7 21.4 75 6.7 77.4 5.7 8.3-3.4 14-6 18.4-12.3 9.4-13.9 4.7-35.8-4.3-48.5-18.3-25.8-64.4-28.3-88.3-6.4z" transform="translate(-20 -26.4)"/>
  <path class="htcls-10" d="M1844.4 259l-10.8-4.8a7 7 0 01-3.4-9.4l.2-.4 5.7-10.7c3-5.7-2.5-12.3-8.4-9.9l-10.9 4.5a6.7 6.7 0 01-8.7-3.6 7 7 0 01-.3-1l-3.1-11.7a6.7 6.7 0 00-12.7-.9l-4.6 11.2a6.6 6.6 0 01-8.6 3.8 6.2 6.2 0 01-.9-.4l-10.2-6c-5.6-3.2-11.9 2.6-9.6 8.7l4.4 11.3a7 7 0 01-4 9.2l-.5.2-11.3 3.3c-6 1.8-6.6 10.5-.8 13.1l10.7 4.9a7.1 7.1 0 013.4 9.5l-.2.3-5.7 10.7c-3 5.7 2.5 12.3 8.4 9.9l10.9-4.5a6.7 6.7 0 018.7 3.6 7.6 7.6 0 01.3 1l3.2 11.7a6.7 6.7 0 0012.6.9l4.7-11.2a6.6 6.6 0 018.6-3.8 7.1 7.1 0 01.8.4l10.3 6c5.5 3.2 11.8-2.6 9.5-8.7l-4.3-11.3a7 7 0 014-9.2l.4-.1 11.3-3.3c6.2-1.9 6.7-10.6.9-13.2zm-34 10.6a13 13 0 01-3.4 5.6 12.4 12.4 0 01-5.4 3.6 12.2 12.2 0 01-6.5 1.5 33 33 0 01-4.6-.6c-2.5-.5-5.8-2.7-7.5-4.5s-4-5.2-4.3-7.8a39 39 0 01-.6-4.8 17.9 17.9 0 012.3-8.9l2.6-3.5a16.7 16.7 0 017.4-4.5l4.4-.6a12.1 12.1 0 016.5 1.5 12.6 12.6 0 015.4 3.6l.2.3h.1l.2.2a13.5 13.5 0 011 1.1 17.7 17.7 0 013.1 6.4l.6 4.6a13.4 13.4 0 01-1.4 6.8z" transform="translate(-20 -26.4)"/>
  <path class="htcls-1" d="M2012.6 257.5s-5.4-14-22.8-25.4c0 0-28.6-18.3-52-6.7 0 0-13.6 6-16.8 38s-15.3 38-15.3 38 21.4 23.3 70.3 13.4v-1a19 19 0 01-11.7-17 18.1 18.1 0 0117.6-18.2c9.8 0 17.1 8.3 17.5 18.2a16.5 16.5 0 01-2.5 9.4l.5.4c25.6-16.8 15.2-49 15.2-49z" transform="translate(-20 -26.4)"/>
  <path class="htcls-1" d="M1993 190.8l-18.2 18.5-4.6-3.3 8.2-25.1 14.6 10z"/>
  <path class="htcls-4" d="M1063.5 443.4l-.8-.6-3 5c-3.4 6.1-6.6 12.3-9.8 18.4-3 5.6-6.3 11-8.5 17-.4 1.2-1.7 4.5.4 4.6 1.6.2 3-2.7 3.5-3.9 3-5.6 5.6-11.5 8.3-17.2 3.6-7.5 7.6-14.9 11.8-22l-1.9-1.3zM1066.4 439.8a24 24 0 00-1.4-1l-1.2 2.1 1.6 1.1 1.2.9 1.2-2zM1168.8 390.2a40.1 40.1 0 00-30.9-12.6 60.6 60.6 0 00-33 13.8 163 163 0 00-38.7 45.5l2.1 1.7.6.5a198.7 198.7 0 0127.1-34.3 90 90 0 0129.3-20.8 43.7 43.7 0 0135.8 1.4 44.9 44.9 0 017.7 4.9z" transform="translate(-20 -26.4)"/>
  <path class="htcls-4" d="M1045.4 418.3l1.1-2-2.8-1.9-1.1 2 2.8 1.9zM1047.7 414.5l1.1-1.9-2.7-2.2-1.1 2 2.7 2.1z"/>
  <path class="htcls-6" d="M1264.5 392.6l.7.2h.5a11.3 11.3 0 013.2.5c22.4-52.5-50.6-22-50.6-22 36.1-8.9 44.5 9.5 46.2 21.3z" transform="translate(-20 -26.4)"/>
  <path class="htcls-6" d="M1267.7 393a10.4 10.4 0 012.9 1 12.2 12.2 0 012.4-.3c9.4-9.6 28.7-19.5 57.3 14.8-.1-.1-51.7-83.6-62.6-15.5z" transform="translate(-20 -26.4)"/>
  <path class="htcls-6" d="M1246.6 477.5l3.2 1.4 5 2c1.7-2.4 3-4.8 4.7-7 8.7-12 16.8-8.8 27.4-18.3 9.7-8.7 20.2-27 14-42.3-5.8-14.5-23.5-18.3-26-18.8l-9.7-.7-9.6-.6c-14.6-.3-27.4 7.7-32.6 19s-3 26.3 12.4 39.6c11.7 10.3 13.3 19 11.2 25.7zM1246 483c1.5.6 3 1.5 4.5 2.4a24 24 0 002.8-2.8 72.7 72.7 0 01-7.5-3 20 20 0 01-1.4 2.6l1.5.7zM1248 486.6l-4.3-2.3-.5-.2a27.4 27.4 0 01-2.2 2.5c-3 3.3-6.1 5.2-6 5.4.4.8 7-.7 12.8-4.5l.8-.6z" transform="translate(-20 -26.4)"/>
  <path class="htcls-6" d="M1233.2 456.2l1.5-1.8-8.2-3.4-.8 2.2M1230.5 459l-2 1.5-5.4-2.9 1.2-1.8 6.2 3.2"/>
  <path class="htcls-8" d="M1411.9 366.4c9.3 1 10.5 3 15.7 3.4 8.2.6 8.9-4.4 19.5-5 4.5-.4 7.6.3 13.7 1.6 9.9 2.2 19 6.2 18.8 7.3-.2.6-3.1-.2-8.7-.2-3.9 0-6.1.4-14 1.6a315 315 0 01-19 2.7c-6 .4-9.8.7-14.6-1-3.9-1.3-4.1-2.4-11.5-5.6-5.5-2.5-8.5-3.2-8.4-4s5-1.1 8.5-.8z" transform="translate(-20 -26.4)"/>
  <path class="htcls-8" d="M1403.4 367.2a145.7 145.7 0 0114.1 16 56.5 56.5 0 015.5 9.2c1.3 2.8 2 5.5 5.4 6 0 0 15-2.5 24.9-.3h-.4a2.5 2.5 0 001.7-.7 70.5 70.5 0 0125-23.8" transform="translate(-20 -26.4)"/>
  <path class="htcls-8" d="M1400 411.8c-12 11-23.3 32.5-16.5 48.2 1.8 4 5 8.2 13.2 13.3 34.8 21.4 75 6.7 77.4 5.7 8.4-3.4 14.1-5.9 18.5-12.2 9.4-14 4.7-35.9-4.3-48.6-18.3-25.7-64.4-28.3-88.4-6.4z" transform="translate(-20 -26.4)"/>
  <path class="htcls-10" d="M1670.7 426l-10.8-5a7.1 7.1 0 01-3.4-9.4l.2-.4 5.7-10.6c3.1-5.7-2.5-12.3-8.4-10l-10.9 4.6a6.7 6.7 0 01-8.6-3.7 6.5 6.5 0 01-.4-1L1631 379a6.7 6.7 0 00-12.6-1l-4.6 11.3a6.6 6.6 0 01-8.6 3.7 6 6 0 01-.9-.4l-10.2-6c-5.5-3.2-11.9 2.6-9.5 8.7l4.3 11.4a7 7 0 01-4 9.1l-.4.2-11.3 3.3c-6.1 1.8-6.7 10.6-.9 13.2l10.8 4.8a7.1 7.1 0 013.4 9.5l-.2.3-5.7 10.7c-3.1 5.7 2.5 12.3 8.3 9.9l11-4.5a6.7 6.7 0 018.6 3.7 6.3 6.3 0 01.3.9l3.2 11.7a6.7 6.7 0 0012.7.9l4.6-11.2a6.7 6.7 0 019.5-3.3l10.2 6c5.5 3.1 11.9-2.7 9.5-8.8l-4.3-11.3a7 7 0 014-9.2l.4-.1 11.3-3.3c6.1-1.9 6.7-10.6.9-13.2zm-34 10.4a13 13 0 01-3.4 5.6 12.5 12.5 0 01-5.4 3.6 12.1 12.1 0 01-6.5 1.5 33 33 0 01-4.6-.6c-2.5-.4-5.8-2.7-7.5-4.5s-4-5.2-4.3-7.8a39 39 0 01-.6-4.8 17.9 17.9 0 012.2-8.8l2.7-3.5a16.7 16.7 0 017.4-4.5l4.4-.7a12.3 12.3 0 016.5 1.5 12.6 12.6 0 015.4 3.7l.2.2.2.2a12.2 12.2 0 011 1.2 17.5 17.5 0 013.2 6.4l.6 4.6a13.6 13.6 0 01-1.4 6.7z" transform="translate(-20 -26.4)"/>
  <path class="htcls-1" d="M1840 424.4s-5.4-14-22.8-25.5c0 0-28.5-18.3-51.9-6.7 0 0-13.7 6-16.9 38s-15.4 38.1-15.4 38.1 21.4 23.2 70.4 13.4l-.2-1a19 19 0 01-11.5-17 18.1 18.1 0 0117.5-18.3c9.8 0 17.1 8.4 17.6 18.3a16.5 16.5 0 01-2.6 9.4c.2 0 .4.2.5.4 25.6-16.9 15.3-49.1 15.3-49.1z" transform="translate(-20 -26.4)"/>
  <path class="htcls-1" d="M1820.3 357.7l-18.1 18.4-4.7-3.3 8.2-25 14.6 9.9z"/>
  <path class="htcls-6" d="M1093.8 565.8c.2 0 .5 0 .7.2h.5a11.2 11.2 0 013.1.4c22.5-52.5-50.6-22-50.6-22 36.2-8.8 44.5 9.5 46.3 21.4z" transform="translate(-20 -26.4)"/>
  <path class="htcls-6" d="M1096.9 566.1a9.6 9.6 0 012.9 1 12.2 12.2 0 012.4-.3c9.4-9.6 28.7-19.5 57.3 14.7 0 0-51.7-83.4-62.6-15.4z" transform="translate(-20 -26.4)"/>
  <path class="htcls-6" d="M1075.9 650.6a31.3 31.3 0 003.1 1.4l5 2c1.8-2.4 3.1-4.7 4.7-7 8.8-12 16.8-8.7 27.4-18.2 9.7-8.8 20.3-27 14.1-42.3-5.8-14.6-23.6-18.4-26.1-18.9l-9.6-.7-9.7-.6c-14.5-.3-27.3 7.7-32.6 19s-3 26.3 12.4 39.7c11.8 10.2 13.3 19 11.3 25.6zM1075.2 656c1.6.7 3 1.6 4.6 2.5a27.8 27.8 0 002.8-2.8 72.7 72.7 0 01-7.5-3 20 20 0 01-1.4 2.6l1.5.7zM1077.3 659.7l-4.3-2.2-.6-.3a27.2 27.2 0 01-2.1 2.5c-3.1 3.3-6.2 5.2-6 5.4.4.8 7-.7 12.8-4.5l.8-.6-.7-.3z" transform="translate(-20 -26.4)"/>
  <path class="htcls-6" d="M1062.5 629.3l1.5-1.8-8.2-3.4-.8 2.2M1059.7 632l-2 1.6-5.4-2.9 1.3-1.8 6.1 3.2"/>
  <path class="htcls-8" d="M1229.2 539.5c9.2 1 10.4 3 15.7 3.4 8.2.6 8.9-4.4 19.5-5 4.4-.3 7.6.3 13.6 1.6 10 2.2 19.1 6.2 18.8 7.3-.1.6-3-.2-8.6-.2-4 0-6.2.4-14 1.6a315 315 0 01-19 2.7c-6 .4-9.9.7-14.6-1-4-1.3-4.2-2.4-11.6-5.6-5.5-2.5-8.5-3.2-8.3-4s5-1.1 8.5-.8z" transform="translate(-20 -26.4)"/>
  <path class="htcls-8" d="M1220.7 540.3a146.6 146.6 0 0114 16 56 56 0 015.5 9.2c1.3 2.8 2 5.5 5.4 6 0 0 15-2.6 24.9-.4h-.4a2.5 2.5 0 001.7-.6 70.7 70.7 0 0125-23.8" transform="translate(-20 -26.4)"/>
  <path class="htcls-8" d="M1217.2 585c-12 10.9-23.3 32.5-16.4 48.2 1.7 4 5 8.2 13.2 13.3 34.8 21.4 75 6.6 77.4 5.7 8.3-3.5 14.1-6 18.4-12.3 9.5-13.9 4.7-35.8-4.3-48.5-18.2-25.8-64.3-28.4-88.3-6.4z" transform="translate(-20 -26.4)"/>
  <path class="htcls-10" d="M1488 599l-10.9-4.8a7.1 7.1 0 01-3.3-9.5l.1-.4 5.8-10.6c3-5.8-2.5-12.4-8.4-10l-10.9 4.6a6.7 6.7 0 01-8.7-3.7 7 7 0 01-.3-1l-3.2-11.7a6.7 6.7 0 00-12.6-.9l-4.7 11.2a6.6 6.6 0 01-8.6 3.8 8 8 0 01-.8-.4l-10.3-6c-5.5-3.2-11.8 2.5-9.5 8.7l4.3 11.3a7 7 0 01-3.9 9.1 5.1 5.1 0 01-.5.2l-11.3 3.3c-6 1.8-6.6 10.6-.8 13.2l10.8 4.8a7.1 7.1 0 013.4 9.5l-.2.4-5.8 10.6c-3 5.8 2.5 12.4 8.4 10l10.9-4.6a6.7 6.7 0 018.7 3.7 7.6 7.6 0 01.3 1l3.2 11.7a6.7 6.7 0 0012.7.8l4.6-11.2a6.7 6.7 0 019.5-3.3l10.2 6c5.5 3.2 11.9-2.6 9.5-8.7l-4.3-11.3a7 7 0 014-9.2l.5-.2 11.3-3.3c6-1.7 6.5-10.5.7-13.1zm-34 10.5a13.1 13.1 0 01-3.5 5.6 12.4 12.4 0 01-5.4 3.6 12.1 12.1 0 01-6.4 1.5 33 33 0 01-4.7-.6c-2.5-.4-5.7-2.7-7.5-4.5s-3.9-5.2-4.3-7.8a37 37 0 01-.6-4.8 18 18 0 012.3-8.8l2.6-3.5a16.7 16.7 0 017.4-4.5l4.5-.6a12.2 12.2 0 016.4 1.5 12.6 12.6 0 015.4 3.6l.3.2.1.2a13.5 13.5 0 011 1.2 17.7 17.7 0 013.2 6.3l.6 4.7a13.4 13.4 0 01-1.4 6.7z" transform="translate(-20 -26.4)"/>
  <path class="htcls-1" d="M1657.2 597.5s-5.4-14-22.8-25.4c0 0-28.5-18.4-51.9-6.8 0 0-13.7 6-16.9 38s-15.3 38.1-15.3 38.1 21.4 23.2 70.4 13.4l-.1-1a19 19 0 01-11.6-17 18.1 18.1 0 0117.5-18.3c9.9 0 17.1 8.3 17.6 18.2a16.6 16.6 0 01-2.6 9.4 4.4 4.4 0 01.5.4c25.7-16.8 15.2-49 15.2-49z" transform="translate(-20 -26.4)"/>
  <path class="htcls-1" d="M1637.6 530.8l-18.2 18.4-4.6-3.3 8.2-25 14.6 9.9z"/>
  <path class="htcls-3" d="M1832.7 578.8c-24.2-52.3-83.2-20-71.8 23.4l3.4 14.5-39.5 40.7c-3.8 3.9-1.3 10.6 4 11 3 3 42-41.5 44.3-42.7 43.7 13.2 66.8-15.9 59.6-47zm-7.7 24c-14.8 36.8-68.5 17.5-58.9-21.2 13.5-43.4 74.8-20.8 59 21.2z" transform="translate(-20 -26.4)"/>
  <ellipse class="htcls-3" cx="1776.2" cy="563.5" rx="31.3" ry="32.6"/>
  <path class="htcls-4" d="M1906.5 624.7l-.9-.6-2.9 5.1c-3.4 6-6.6 12.2-9.9 18.4-3 5.6-6.2 11-8.4 17-.4 1.1-1.7 4.4.4 4.6 1.6.1 2.9-2.8 3.5-4 3-5.6 5.5-11.4 8.3-17.2 3.6-7.4 7.5-14.8 11.8-22l-1.9-1.3zM1909.3 621.2a24 24 0 00-1.3-1l-1.3 2 1.7 1.2 1.2.8 1.1-1.9-1.4-1.1zM2011.8 571.6a40.1 40.1 0 00-31-12.7 60.6 60.6 0 00-33 13.8 163 163 0 00-38.6 45.5l2 1.7.7.5a198.3 198.3 0 0127.1-34.2 89.9 89.9 0 0129.3-20.8 43.7 43.7 0 0135.8 1.3 44.9 44.9 0 017.7 5z" transform="translate(-20 -26.4)"/>
  <path class="htcls-4" d="M1888.3 599.6l1.2-1.9-2.8-2-1.2 2 2.8 2zM1890.6 595.9l1.2-1.9-2.7-2.2-1.2 1.9 2.7 2.2z"/>
  <path class="htcls-3" d="M2015.5 402c-24.2-52.4-83.2-20.2-71.8 23.3l3.4 14.5-39.5 40.7c-3.8 4-1.3 10.7 4 11 3 3 42-41.4 44.3-42.7 43.7 13.2 66.8-15.9 59.6-46.9zm-7.7 24c-14.8 36.7-68.5 17.4-58.9-21.2 13.5-43.4 74.8-20.8 58.9 21.1z" transform="translate(-20 -26.4)"/>
  <ellipse class="htcls-3" cx="1959" cy="386.6" rx="31.3" ry="32.6"/>
  <path class="htcls-1" d="M2204.2 91.5s-5.3-14-22.7-25.5c0 0-28.6-18.3-52-6.7 0 0-13.7 6-16.9 38s-15.4 38.1-15.4 38.1 21.5 23.2 70.4 13.3l-.1-.9a19 19 0 01-11.6-17 18.1 18.1 0 0117.5-18.3c9.9 0 17.2 8.3 17.6 18.2a16.7 16.7 0 01-2.6 9.4l.6.5c25.6-17 15.2-49.1 15.2-49.1z" transform="translate(-20 -26.4)"/>
  <path class="htcls-1" d="M2184.6 24.8l-18.2 18.4-4.6-3.3 8.2-25.1 14.6 10z"/>
  <path class="htcls-3" d="M2364 66.4c-24.2-52.3-83.3-20-71.9 23.4l3.4 14.6-39.4 40.6c-3.8 4-1.3 10.7 4 11 3 3 42-41.4 44.3-42.7 43.7 13.2 66.7-15.8 59.6-46.9zm-7.7 24c-14.8 36.9-68.5 17.6-58.9-21.1 13.4-43.4 74.8-20.8 58.9 21.2z" transform="translate(-20 -26.4)"/>
  <ellipse class="htcls-3" cx="2307.5" cy="51.1" rx="31.3" ry="32.6"/>
  <path class="htcls-4" d="M2445.7 112l-.8-.7-3 5.1c-3.4 6-6.6 12.3-9.9 18.4-3 5.6-6.2 11-8.4 17-.4 1.1-1.7 4.4.4 4.6 1.6.1 3-2.7 3.5-4 3-5.6 5.5-11.4 8.3-17.1q5.4-11.3 11.8-22l-1.9-1.4zM2448.5 108.4a24 24 0 00-1.3-1l-1.2 2 1.6 1.1 1.2.9 1.1-2zM2551 58.8a40.1 40.1 0 00-31-12.7 60.5 60.5 0 00-33 13.9 163.2 163.2 0 00-38.6 45.4l2 1.7.7.5a198.1 198.1 0 0127.1-34.2 89.7 89.7 0 0129.3-20.8 43.6 43.6 0 0135.9 1.4 44.9 44.9 0 017.6 4.9z" transform="translate(-20 -26.4)"/>
  <path class="htcls-4" d="M2427.6 86.9l1-2-2.7-1.9-1.1 2 2.8 1.9zM2429.8 83l1.2-1.8-2.7-2.2-1.2 1.9 2.8 2.2z"/>
  <path class="htcls-6" d="M2658.7 61.2l.7.2h.5a10.8 10.8 0 013.1.5c22.5-52.5-50.6-22-50.6-22 36.2-8.9 44.5 9.5 46.3 21.3z" transform="translate(-20 -26.4)"/>
  <path class="htcls-6" d="M2661.8 61.6a10 10 0 013 1 10.9 10.9 0 012.3-.3c9.4-9.6 28.7-19.5 57.3 14.7 0 0-51.6-83.5-62.6-15.4z" transform="translate(-20 -26.4)"/>
  <path class="htcls-6" d="M2640.8 146a30.3 30.3 0 003.2 1.4l5 2c1.7-2.3 3-4.7 4.7-7 8.7-11.9 16.8-8.7 27.4-18.2 9.7-8.7 20.2-27 14-42.3-5.8-14.6-23.5-18.3-26-18.8l-9.6-.7-9.7-.6c-14.6-.4-27.3 7.6-32.6 19s-3 26.3 12.4 39.6c11.6 10.3 13.2 19 11.2 25.7zM2640.1 151.5c1.6.7 3.1 1.6 4.6 2.5a27.8 27.8 0 002.8-2.8 72.7 72.7 0 01-7.5-3 22.7 22.7 0 01-1.4 2.6l1.5.7zM2642.2 155.2l-4.3-2.3-.6-.2a31.7 31.7 0 01-2 2.5c-3.2 3.3-6.2 5.1-6 5.4.3.8 7-.7 12.8-4.6l.8-.5z" transform="translate(-20 -26.4)"/>
  <path class="htcls-6" d="M2627.4 124.8l1.5-1.9-8.2-3.3-.8 2.2M2624.6 127.5l-1.9 1.6-5.5-2.9 1.3-1.9 6.1 3.3"/>
  <path class="htcls-8" d="M2806 35c9.3 1 10.5 3 15.8 3.4 8.2.6 8.9-4.4 19.5-5 4.4-.4 7.6.3 13.6 1.6 10 2.1 19.1 6.2 18.9 7.3-.2.6-3.1-.2-8.7-.2-4 0-6.1.4-14 1.6-11 1.7-16.5 2.6-19 2.7-6 .4-9.8.7-14.6-1-3.9-1.3-4.2-2.4-11.6-5.7-5.4-2.4-8.4-3.2-8.3-4s5-1 8.5-.7z" transform="translate(-20 -26.4)"/>
  <path class="htcls-8" d="M2797.6 35.8a145.7 145.7 0 0114.1 16 56 56 0 015.5 9.1c1.3 2.8 2 5.5 5.4 6 0 0 15-2.4 24.8-.2h-.4a2.5 2.5 0 001.8-.7 70.6 70.6 0 0125-23.7" transform="translate(-20 -26.4)"/>
  <path class="htcls-8" d="M2794.1 80.4c-11.9 10.9-23.3 32.5-16.4 48.2 1.8 4 5 8.2 13.2 13.3 34.8 21.4 75 6.7 77.4 5.7 8.3-3.4 14.1-5.9 18.4-12.3 9.5-13.9 4.7-35.8-4.2-48.5-18.3-25.8-64.4-28.3-88.4-6.4z" transform="translate(-20 -26.4)"/>
  <path class="htcls-10" d="M3044.3 94.5l-10.8-4.9a7.1 7.1 0 01-3.3-9.5l.1-.3 5.7-10.7c3.1-5.7-2.4-12.3-8.3-9.9l-11 4.5a6.7 6.7 0 01-8.6-3.6 7.6 7.6 0 01-.3-1l-3.2-11.7a6.7 6.7 0 00-12.6-.9l-4.7 11.2a6.6 6.6 0 01-8.5 3.8 6 6 0 01-1-.4l-10.2-6c-5.5-3.2-11.8 2.6-9.5 8.7l4.3 11.3a7 7 0 01-4 9.2l-.5.2-11.2 3.3c-6.1 1.8-6.7 10.5-.9 13.1l10.8 4.9a7.1 7.1 0 013.4 9.4l-.2.4-5.7 10.7c-3.1 5.7 2.5 12.3 8.4 9.9l10.9-4.5a6.7 6.7 0 018.7 3.7 7.6 7.6 0 01.3.9l3.2 11.7a6.7 6.7 0 0012.6.9l4.7-11.2a6.6 6.6 0 018.5-3.8 7.1 7.1 0 011 .4l10.2 6c5.5 3.3 11.8-2.5 9.5-8.6l-4.3-11.4a7 7 0 013.9-9.2 5.4 5.4 0 01.5-.1l11.3-3.4c6-1.8 6.6-10.5.8-13.1zm-33.9 10.5a13 13 0 01-3.4 5.6 12.6 12.6 0 01-5.4 3.6 12.3 12.3 0 01-6.5 1.5 33 33 0 01-4.6-.6c-2.5-.4-5.8-2.7-7.5-4.5s-4-5.2-4.4-7.8a37.1 37.1 0 01-.6-4.8 18 18 0 012.3-8.8l2.6-3.5a16.5 16.5 0 017.4-4.5l4.5-.6a18.2 18.2 0 0111.8 5l.3.3.2.2a12.1 12.1 0 011 1.2 17.6 17.6 0 013.1 6.4l.6 4.6a13.5 13.5 0 01-1.4 6.7z" transform="translate(-20 -26.4)"/>
  <path class="htcls-3" d="M2187.1 233.5c-24.2-52.3-83.2-20.1-71.9 23.4l3.4 14.6-39.4 40.6c-3.8 4-1.3 10.7 4 11 3 3 42-41.4 44.3-42.7 43.7 13.2 66.7-15.9 59.6-47zm-7.7 24c-14.8 36.8-68.5 17.6-58.9-21.1 13.5-43.4 74.7-20.8 58.9 21.1z" transform="translate(-20 -26.4)"/>
  <ellipse class="htcls-3" cx="2130.6" cy="218.2" rx="31.3" ry="32.6"/>
  <path class="htcls-4" d="M2256.8 279l-.9-.6-2.9 5c-3.4 6-6.6 12.3-9.9 18.5-3 5.6-6.2 11-8.4 17-.4 1-1.7 4.4.4 4.6 1.6.1 2.9-2.8 3.5-4 3-5.6 5.5-11.4 8.3-17.2 3.6-7.5 7.5-14.8 11.8-22zM2259.6 275.5l-1.3-1-1.2 2 1.6 1.2 1.2.8 1.1-1.8zM2362.1 225.9a40.1 40.1 0 00-30.9-12.7 60.6 60.6 0 00-33 13.9 163 163 0 00-38.7 45.4l2.1 1.7.6.5a198.2 198.2 0 0127.2-34.2 89.8 89.8 0 0129.2-20.8 43.7 43.7 0 0135.9 1.3 45 45 0 017.7 5z" transform="translate(-20 -26.4)"/>
  <path class="htcls-4" d="M2238.6 254l1.2-2-2.8-2-1.1 2 2.7 2zM2241 250.2l1.1-1.9-2.7-2.2-1.2 1.9 2.7 2.2z"/>
  <path class="htcls-6" d="M2469.8 228.3l.7.2h.5a11 11 0 013.1.4c22.5-52.5-50.6-22-50.6-22 36.2-8.8 44.5 9.5 46.3 21.4z" transform="translate(-20 -26.4)"/>
  <path class="htcls-6" d="M2472.9 228.6a9.4 9.4 0 013 1 10.9 10.9 0 012.3-.2c9.4-9.7 28.7-19.5 57.3 14.7 0 0-51.7-83.5-62.6-15.5z" transform="translate(-20 -26.4)"/>
  <path class="htcls-6" d="M2451.9 313.1a31 31 0 003.1 1.4l5 2c1.8-2.4 3.2-4.7 4.8-7 8.8-11.9 16.8-8.7 27.4-18.2 9.7-8.8 20.2-27 14.1-42.3-5.8-14.6-23.6-18.4-26.1-18.9l-9.7-.6-9.6-.7c-14.5-.3-27.3 7.7-32.6 19.1s-3 26.3 12.4 39.6c11.7 10.3 13.2 19 11.2 25.6zM2451.2 318.6c1.6.7 3.1 1.6 4.6 2.5a27.8 27.8 0 002.8-2.8 78.7 78.7 0 01-7.5-3 21.2 21.2 0 01-1.4 2.6zM2453.2 322.2l-4.3-2.2-.5-.3a27.2 27.2 0 01-2.2 2.6c-3 3.2-6 5.1-6 5.3.5.8 7-.6 12.9-4.5l.8-.5z" transform="translate(-20 -26.4)"/>
  <path class="htcls-6" d="M2438.5 291.9l1.5-1.9-8.2-3.3-.8 2.1M2435.7 294.6l-2 1.5-5.4-2.8 1.3-1.9 6.1 3.2"/>
  <path class="htcls-8" d="M2617.2 202c9.2 1 10.4 3 15.7 3.5 8.2.5 8.9-4.5 19.5-5.1 4.4-.3 7.6.4 13.6 1.7 10 2.1 19.1 6.2 18.8 7.2-.1.6-3-.2-8.6-.1-4 0-6.2.3-14 1.6-11 1.7-16.5 2.5-19 2.7-6 .4-9.9.6-14.6-1-3.9-1.3-4.2-2.4-11.6-5.7-5.5-2.4-8.5-3.2-8.3-4s5-1 8.5-.7z" transform="translate(-20 -26.4)"/>
  <path class="htcls-8" d="M2608.7 202.8a145.7 145.7 0 0114.1 16 56.4 56.4 0 015.4 9.2c1.3 2.8 2 5.5 5.5 6 0 0 14.9-2.5 24.8-.3h-.4a2.5 2.5 0 001.8-.6 70.5 70.5 0 0125-23.8" transform="translate(-20 -26.4)"/>
  <path class="htcls-8" d="M2605.2 247.5c-11.9 10.9-23.2 32.5-16.4 48.2 1.8 4 5 8.2 13.2 13.3 34.8 21.4 75 6.7 77.4 5.7 8.4-3.4 14.1-6 18.5-12.3 9.4-13.9 4.7-35.8-4.3-48.5-18.3-25.8-64.4-28.3-88.4-6.4z" transform="translate(-20 -26.4)"/>
  <path class="htcls-10" d="M2876 261.6l-10.8-4.9a7.1 7.1 0 01-3.4-9.4l.1-.4 5.8-10.7c3-5.7-2.5-12.3-8.4-9.9l-10.9 4.5a6.7 6.7 0 01-8.7-3.7 7.6 7.6 0 01-.3-.9l-3.2-11.7a6.7 6.7 0 00-12.6-.9l-4.7 11.2a6.6 6.6 0 01-8.5 3.8 6.2 6.2 0 01-1-.4l-10.2-6c-5.5-3.3-11.8 2.5-9.5 8.6l4.3 11.4a7 7 0 01-4 9.1l-.4.2-11.3 3.3c-6.1 1.8-6.7 10.6-.9 13.2l10.8 4.8a7.1 7.1 0 013.4 9.5l-.2.3-5.7 10.7c-3.1 5.7 2.4 12.3 8.3 9.9l11-4.5a6.7 6.7 0 018.6 3.7 7.6 7.6 0 01.3.9l3.2 11.7a6.7 6.7 0 0012.7.9l4.6-11.2a6.6 6.6 0 018.6-3.8 7.1 7.1 0 01.9.5l10.2 6c5.6 3.2 11.9-2.6 9.6-8.7l-4.4-11.4a7 7 0 014-9.1l.5-.2 11.3-3.3c6.1-1.8 6.6-10.5.8-13.1zm-34 10.5a13.1 13.1 0 01-3.5 5.6 12.5 12.5 0 01-5.4 3.6 12.2 12.2 0 01-6.4 1.5 32.8 32.8 0 01-4.7-.6c-2.5-.5-5.7-2.8-7.5-4.6s-3.9-5.2-4.3-7.7a39 39 0 01-.6-4.9 17.9 17.9 0 012.3-8.8l2.6-3.5a16.6 16.6 0 017.4-4.5l4.5-.6a12.1 12.1 0 016.4 1.5 12.5 12.5 0 015.4 3.6l.3.3.2.2a12.1 12.1 0 011 1.1 17.7 17.7 0 013.2 6.4l.6 4.6a13.4 13.4 0 01-1.5 6.8z" transform="translate(-20 -26.4)"/>
  <path class="htcls-1" d="M3044.1 260s-5.3-14-22.7-25.4c0 0-28.6-18.4-52-6.8 0 0-13.7 6.1-16.9 38s-15.3 38.2-15.3 38.2 21.4 23.2 70.4 13.3l-.1-.9a19 19 0 01-11.6-17 18.1 18.1 0 0117.5-18.3c9.9 0 17.2 8.3 17.6 18.2a16.5 16.5 0 01-2.6 9.4l.6.5c25.5-17 15.1-49.2 15.1-49.2z" transform="translate(-20 -26.4)"/>
  <path class="htcls-1" d="M3024.5 193.3l-18.1 18.4-4.7-3.2 8.2-25.1 14.6 10z"/>
  <path class="htcls-4" d="M2095.1 445.9l-.9-.6-2.9 5c-3.4 6-6.6 12.3-9.9 18.4-3 5.6-6.2 11-8.4 17-.4 1.1-1.7 4.5.4 4.6 1.6.2 2.9-2.7 3.5-4 3-5.6 5.5-11.4 8.3-17.1 3.6-7.5 7.5-14.9 11.8-22l-1.9-1.3zM2098 442.3a24 24 0 00-1.4-1l-1.2 2c.5.5 1 .8 1.6 1.2l1.1.9 1.2-2zM2200.4 392.7a40.1 40.1 0 00-31-12.7 60.6 60.6 0 00-33 13.9 163 163 0 00-38.6 45.5l2 1.7.7.5a198.7 198.7 0 0127-34.3 90 90 0 0129.4-20.8 43.7 43.7 0 0135.8 1.4 44.9 44.9 0 017.7 4.9z" transform="translate(-20 -26.4)"/>
  <path class="htcls-4" d="M2077 420.8l1-2-2.7-1.9-1.2 2 2.8 1.9zM2079.2 417l1.2-1.9-2.7-2.2-1.2 2 2.7 2.1z"/>
  <path class="htcls-6" d="M2296 395.1l.8.2h.5a11 11 0 013.1.5c22.5-52.5-50.6-22-50.6-22 36.2-8.9 44.5 9.5 46.3 21.3z" transform="translate(-20 -26.4)"/>
  <path class="htcls-6" d="M2299.2 395.5a10.1 10.1 0 013 1 10.9 10.9 0 012.4-.3c9.3-9.6 28.6-19.5 57.2 14.7 0 0-51.7-83.5-62.6-15.4z" transform="translate(-20 -26.4)"/>
  <path class="htcls-6" d="M2278.2 480l3.1 1.4 5 2c1.8-2.4 3.2-4.7 4.8-7 8.8-12 16.8-8.7 27.4-18.3 9.7-8.7 20.2-27 14.1-42.2-5.8-14.6-23.6-18.4-26.1-18.9l-9.7-.6-9.6-.7c-14.5-.3-27.4 7.7-32.6 19.1s-3 26.3 12.4 39.6c11.6 10.2 13.2 19 11.2 25.6zM2277.5 485.4c1.6.7 3 1.6 4.6 2.5a24 24 0 002.8-2.8 75 75 0 01-7.6-3 21.2 21.2 0 01-1.3 2.6l1.5.7zM2279.5 489l-4.3-2.2-.5-.2a28.8 28.8 0 01-2.1 2.5c-3.1 3.3-6.2 5.2-6 5.4.4.8 7-.7 12.8-4.5l.8-.6z" transform="translate(-20 -26.4)"/>
  <path class="htcls-6" d="M2264.8 458.7l1.5-1.8-8.2-3.4-.8 2.2M2262 461.5l-2 1.5-5.4-2.9 1.3-1.9 6.1 3.3"/>
  <path class="htcls-8" d="M2443.4 368.9c9.3 1 10.5 3 15.7 3.4 8.3.5 9-4.4 19.5-5 4.5-.4 7.7.3 13.7 1.6 10 2.1 19.1 6.2 18.8 7.3-.1.5-3-.2-8.6-.2-4 0-6.2.4-14 1.6a315 315 0 01-19 2.7c-6 .4-9.9.7-14.6-1-4-1.3-4.2-2.4-11.6-5.7-5.5-2.4-8.5-3.2-8.4-4s5.2-1 8.5-.7z" transform="translate(-20 -26.4)"/>
  <path class="htcls-8" d="M2435 369.7a145.7 145.7 0 0114 16 56 56 0 015.5 9.2c1.3 2.8 2 5.5 5.5 6 0 0 14.9-2.5 24.8-.3h-.4a2.5 2.5 0 001.8-.7 70.5 70.5 0 0125-23.8" transform="translate(-20 -26.4)"/>
  <path class="htcls-8" d="M2431.5 414.3c-12 11-23.3 32.5-16.5 48.2 1.8 4 5 8.2 13.3 13.3 34.7 21.4 75 6.7 77.4 5.7 8.3-3.4 14.1-5.9 18.4-12.2 9.4-14 4.7-35.9-4.3-48.6-18.2-25.7-64.3-28.3-88.3-6.4z" transform="translate(-20 -26.4)"/>
  <path class="htcls-10" d="M2702.2 428.4l-10.7-4.8a7.1 7.1 0 01-3.4-9.5l.1-.4 5.8-10.6c3-5.8-2.5-12.4-8.4-10l-10.9 4.6a6.7 6.7 0 01-8.7-3.7 7.9 7.9 0 01-.3-1l-3.2-11.7a6.7 6.7 0 00-12.7-.9l-4.6 11.2a6.6 6.6 0 01-8.5 3.8 6 6 0 01-1-.4l-10.2-6c-5.5-3.2-11.9 2.6-9.5 8.7l4.3 11.3a7 7 0 01-4 9.2l-.4.1-11.3 3.4c-6.1 1.8-6.7 10.5-.9 13.1l10.8 4.8a7.1 7.1 0 013.4 9.5l-.2.4-5.7 10.7c-3 5.7 2.5 12.3 8.4 9.9l10.9-4.5a6.7 6.7 0 018.6 3.7 6.3 6.3 0 01.3.9l3.2 11.7a6.7 6.7 0 0012.7.9l4.6-11.2a6.6 6.6 0 019.5-3.3l10.2 5.9c5.6 3.2 11.9-2.6 9.6-8.7l-4.4-11.3a7 7 0 014-9.2l.5-.1 11.3-3.4c6-1.8 6.6-10.5.8-13.1zm-33.9 10.5a13 13 0 01-3.5 5.6 12.5 12.5 0 01-5.3 3.6 12.3 12.3 0 01-6.5 1.5 33 33 0 01-4.6-.6c-2.5-.4-5.8-2.7-7.5-4.5s-4-5.2-4.4-7.8a39 39 0 01-.6-4.8 17.9 17.9 0 012.3-8.8l2.6-3.6a16.7 16.7 0 017.4-4.4l4.5-.7a12.3 12.3 0 016.5 1.5 12.6 12.6 0 015.4 3.6l.2.3.2.2a11.1 11.1 0 011 1.2 17.7 17.7 0 013.2 6.3l.6 4.7a13.7 13.7 0 01-1.5 6.7z" transform="translate(-20 -26.4)"/>
  <path class="htcls-1" d="M2871.5 426.9s-5.4-14-22.8-25.5c0 0-28.5-18.3-51.9-6.7 0 0-13.7 6-16.9 38s-15.3 38.1-15.3 38.1 21.4 23.2 70.3 13.4v-1a19 19 0 01-11.7-17.1 18.1 18.1 0 0117.6-18.3c9.8 0 17 8.4 17.5 18.3a16.5 16.5 0 01-2.5 9.4l.5.4c25.6-16.8 15.2-49 15.2-49z" transform="translate(-20 -26.4)"/>
  <path class="htcls-1" d="M2851.9 360.2l-18.2 18.4-4.6-3.3 8.2-25.1 14.6 10z"/>
  <path class="htcls-6" d="M2125.3 568.3c.3 0 .5 0 .8.2h.5a11.2 11.2 0 013 .4c22.5-52.5-50.5-22-50.5-22 36.1-8.8 44.5 9.5 46.2 21.4z" transform="translate(-20 -26.4)"/>
  <path class="htcls-6" d="M2128.4 568.6a9.7 9.7 0 013 1 11.5 11.5 0 012.4-.3c9.3-9.7 28.7-19.5 57.2 14.7 0 0-51.6-83.5-62.6-15.4z" transform="translate(-20 -26.4)"/>
  <path class="htcls-6" d="M2107.4 653a31.3 31.3 0 003.2 1.5l5 2c1.8-2.4 3.2-4.8 4.8-7 8.7-12 16.8-8.8 27.4-18.3 9.7-8.7 20.2-27 14-42.2-5.8-14.6-23.5-18.4-26-19l-9.7-.6-9.6-.6c-14.6-.4-27.4 7.6-32.7 19s-3 26.3 12.5 39.6c11.6 10.3 13.1 19 11.1 25.7zM2106.8 658.5l4.6 2.5a27.8 27.8 0 002.7-2.7 72.7 72.7 0 01-7.5-3 20.7 20.7 0 01-1.4 2.5l1.6.7zM2108.8 662.2l-4.3-2.2-.5-.3a28.6 28.6 0 01-2.2 2.5c-3 3.3-6.1 5.2-6 5.4.4.8 7-.7 12.9-4.5l.8-.6-.7-.3z" transform="translate(-20 -26.4)"/>
  <path class="htcls-6" d="M2094 631.8l1.6-1.8-8.3-3.4-.8 2.2M2091.3 634.6l-2 1.5-5.4-2.9 1.3-1.8 6 3.2"/>
  <path class="htcls-8" d="M2260.7 542c9.3 1 10.5 3 15.7 3.4 8.3.6 9-4.4 19.5-5 4.5-.4 7.6.3 13.7 1.6 9.9 2.1 19 6.2 18.8 7.3-.1.6-3-.2-8.7-.2-3.9 0-6.1.4-14 1.6a315 315 0 01-19 2.7c-6 .4-9.8.7-14.6-1-3.9-1.3-4.1-2.4-11.5-5.7-5.5-2.4-8.5-3.2-8.4-4s5.1-1 8.5-.7z" transform="translate(-20 -26.4)"/>
  <path class="htcls-8" d="M2252.2 542.8a145.7 145.7 0 0114.1 16 56 56 0 015.5 9.2c1.3 2.8 2 5.5 5.4 6 0 0 15-2.6 24.9-.4h-.4a2.5 2.5 0 001.7-.7 70.7 70.7 0 0125-23.7" transform="translate(-20 -26.4)"/>
  <path class="htcls-8" d="M2248.8 587.5c-12 10.8-23.3 32.4-16.5 48.1 1.8 4 5 8.2 13.3 13.3 34.7 21.4 75 6.7 77.3 5.7 8.4-3.4 14.2-5.9 18.5-12.2 9.4-14 4.7-35.8-4.3-48.5-18.2-25.8-64.4-28.4-88.3-6.4z" transform="translate(-20 -26.4)"/>
  <path class="htcls-10" d="M2519.5 601.5l-10.8-4.8a7.1 7.1 0 01-3.4-9.5l.2-.4 5.7-10.6c3.1-5.8-2.4-12.4-8.3-10l-10.9 4.6a6.7 6.7 0 01-8.7-3.7 7.6 7.6 0 01-.3-1l-3.2-11.7a6.7 6.7 0 00-12.6-.9l-4.7 11.2a6.6 6.6 0 01-8.6 3.8 7.1 7.1 0 01-.8-.4l-10.3-6c-5.5-3.2-11.9 2.5-9.5 8.7l4.3 11.3a7 7 0 01-3.9 9.1 5.1 5.1 0 01-.5.2l-11.3 3.3c-6 1.8-6.6 10.6-.8 13.2l10.7 4.8a7.1 7.1 0 013.4 9.5l-.1.4-5.8 10.6c-3 5.8 2.5 12.4 8.4 10l10.9-4.6a6.7 6.7 0 018.7 3.7 7.6 7.6 0 01.3 1l3.2 11.7a6.7 6.7 0 0012.6.8l4.7-11.2a6.6 6.6 0 018.6-3.7 5.6 5.6 0 01.9.4l10.2 6c5.5 3.2 11.9-2.6 9.5-8.7l-4.3-11.4a7 7 0 014-9.2l.5-.1 11.2-3.3c6-1.7 6.6-10.5.8-13.1zm-34 10.5a13.1 13.1 0 01-3.4 5.6 12.5 12.5 0 01-5.4 3.6 12.1 12.1 0 01-6.4 1.5 34.5 34.5 0 01-4.7-.6c-2.5-.4-5.7-2.7-7.5-4.5s-3.9-5.2-4.3-7.8a37.2 37.2 0 01-.6-4.8 18 18 0 012.3-8.8l2.6-3.6a16.6 16.6 0 017.4-4.4l4.5-.7a12.2 12.2 0 016.4 1.5 12.5 12.5 0 015.4 3.6l.3.3.1.2a12.1 12.1 0 011 1.2 17.7 17.7 0 013.2 6.3l.6 4.6a13.6 13.6 0 01-1.4 6.8z" transform="translate(-20 -26.4)"/>
  <path class="htcls-1" d="M2688.8 600s-5.4-14-22.8-25.4c0 0-28.6-18.4-52-6.8 0 0-13.6 6.1-16.8 38s-15.4 38.2-15.4 38.2 21.4 23.2 70.4 13.3v-1a19 19 0 01-11.7-17 18.1 18.1 0 0117.6-18.3c9.8 0 17 8.3 17.5 18.2a16.6 16.6 0 01-2.5 9.4 4.4 4.4 0 01.5.5c25.6-16.9 15.2-49.1 15.2-49.1z" transform="translate(-20 -26.4)"/>
  <path class="htcls-1" d="M2669.2 533.3l-18.2 18.4-4.6-3.3 8.2-25 14.6 9.9z"/>
  <path class="htcls-3" d="M2864.3 581.2c-24.2-52.2-83.3-20-71.9 23.5l3.4 14.5-39.4 40.6c-3.8 4-1.4 10.7 4 11 3 3 41.9-41.4 44.3-42.6 43.7 13.2 66.7-16 59.6-47zm-7.7 24c-14.8 36.9-68.5 17.6-59-21.1 13.6-43.4 74.9-20.8 59 21.2z" transform="translate(-20 -26.4)"/>
  <ellipse class="htcls-3" cx="2807.8" cy="566" rx="31.3" ry="32.6"/>
  <path class="htcls-4" d="M2938 627.2l-.8-.6-3 5-9.8 18.5c-3 5.6-6.2 11-8.4 17-.4 1.1-1.7 4.4.4 4.6 1.6.1 2.8-2.8 3.5-4 2.9-5.6 5.5-11.4 8.3-17.2 3.6-7.5 7.5-14.8 11.8-22l-2-1.3zM2940.9 623.6a24 24 0 00-1.3-1l-1.3 2.1 1.6 1.2 1.2.8 1.2-1.9-1.4-1.1zM3043.3 574a40.1 40.1 0 00-30.9-12.6 60.6 60.6 0 00-33 13.8 163 163 0 00-38.7 45.5l2.1 1.7.6.5a198.3 198.3 0 0127.2-34.2 89.9 89.9 0 0129.2-20.8 43.7 43.7 0 0135.9 1.3 44.9 44.9 0 017.7 4.9z" transform="translate(-20 -26.4)"/>
  <path class="htcls-4" d="M2919.9 602.1l1.1-1.9-2.8-2-1 2 2.7 2zM2922.2 598.4l1.2-2-2.8-2.1-1.1 1.9 2.7 2.2z"/>
  <path class="htcls-3" d="M3047 404.4c-24.1-52.3-83.2-20-71.8 23.4l3.4 14.5-39.4 40.7c-3.8 4-1.4 10.7 4 11 3 3 41.9-41.4 44.3-42.7 43.7 13.2 66.7-15.9 59.6-46.9zm-7.6 24c-14.8 36.8-68.5 17.5-59-21.1 13.5-43.4 74.8-20.8 59 21.1z" transform="translate(-20 -26.4)"/>
  <ellipse class="htcls-3" cx="2990.6" cy="389.1" rx="31.3" ry="32.6"/>
  <path class="htcls-1" d="M153.6 88.3s-5.4-14-22.8-25.4c0 0-28.6-18.4-52-6.8 0 0-13.6 6.1-16.8 38s-15.4 38.2-15.4 38.2S68 155.5 117 145.6l-.1-1a19 19 0 01-11.6-17 18.1 18.1 0 0117.5-18.2c9.9 0 17.2 8.3 17.6 18.2a16.6 16.6 0 01-2.6 9.4l.6.4c25.6-16.8 15.2-49 15.2-49z" transform="translate(-20 -26.4)"/>
  <path class="htcls-1" d="M134 21.6L115.7 40l-4.6-3.2 8.1-25.1 14.6 10z"/>
  <path class="htcls-3" d="M313.4 63.3c-24.2-52.3-83.3-20-71.9 23.4l3.4 14.6-39.4 40.6c-3.8 4-1.4 10.7 4 11 3 3 41.9-41.4 44.3-42.6 43.7 13.1 66.7-16 59.6-47zm-7.7 24c-14.8 36.8-68.5 17.5-59-21.1 13.5-43.4 74.9-20.8 59 21.1z" transform="translate(-20 -26.4)"/>
  <ellipse class="htcls-3" cx="256.9" cy="48" rx="31.3" ry="32.6"/>
  <path class="htcls-4" d="M395 108.8l-.8-.6-3 5c-3.3 6-6.5 12.3-9.8 18.5-3 5.6-6.2 11-8.4 17-.4 1.1-1.7 4.4.4 4.6 1.6.1 2.9-2.8 3.5-4 3-5.6 5.5-11.4 8.3-17.2q5.4-11.2 11.8-22l-2-1.3zM397.9 105.3a24 24 0 00-1.3-1l-1.3 2 1.6 1 1.2 1 1.2-2zM500.4 55.7a40.1 40.1 0 00-31-12.7 60.5 60.5 0 00-33 13.8 163.2 163.2 0 00-38.7 45.5l2.2 1.7.6.5a197.8 197.8 0 0127-34.2A89.7 89.7 0 01457 49.4a43.6 43.6 0 0135.8 1.4 44.9 44.9 0 017.7 4.9z" transform="translate(-20 -26.4)"/>
  <path class="htcls-4" d="M376.9 83.7l1.1-1.9-2.8-2-1 2 2.7 2zM379.2 80l1.2-2-2.7-2.1-1.2 1.9 2.7 2.2z"/>
  <path class="htcls-6" d="M608 58l.7.3h.5a10.5 10.5 0 013.1.4c22.5-52.5-50.5-22-50.5-22C598 28 606.3 46.4 608 58.2z" transform="translate(-20 -26.4)"/>
  <path class="htcls-6" d="M611.2 58.4a9.7 9.7 0 012.9 1 10.9 10.9 0 012.4-.2c9.3-9.7 28.7-19.5 57.2 14.7 0 0-51.6-83.5-62.5-15.5z" transform="translate(-20 -26.4)"/>
  <path class="htcls-6" d="M590.1 143a30.3 30.3 0 003.2 1.3l5 2c1.8-2.4 3.1-4.7 4.7-7 8.8-12 16.9-8.7 27.4-18.2 9.7-8.8 20.3-27 14.1-42.3-5.8-14.6-23.6-18.4-26.1-18.9l-9.6-.6-9.6-.7c-14.6-.3-27.4 7.7-32.6 19.1s-3.1 26.3 12.4 39.6c11.6 10.3 13.1 19 11.1 25.6zM589.5 148.4c1.5.7 3 1.6 4.6 2.5a27.8 27.8 0 002.8-2.8 75 75 0 01-7.6-3 21.2 21.2 0 01-1.3 2.6l1.5.7zM591.5 152l-4.3-2.2-.5-.3a31.7 31.7 0 01-2.1 2.5c-3.1 3.3-6.2 5.2-6 5.4.4.8 7-.7 12.8-4.5l.8-.6z" transform="translate(-20 -26.4)"/>
  <path class="htcls-6" d="M576.8 121.7l1.5-1.9-8.3-3.3-.8 2.1M574 124.4l-2 1.5-5.4-2.8 1.3-1.9 6 3.2"/>
  <path class="htcls-8" d="M755.4 31.9c9.3.9 10.5 3 15.7 3.4 8.3.5 9-4.5 19.5-5.1 4.5-.3 7.7.4 13.7 1.7 9.9 2 19 6.2 18.8 7.2-.1.6-3-.2-8.7-.1-3.9 0-6 .3-14 1.6-11 1.7-16.5 2.5-19 2.7-6 .4-9.8.6-14.6-1-3.8-1.3-4.1-2.4-11.5-5.7-5.5-2.4-8.5-3.2-8.4-4s5.1-1 8.5-.7z" transform="translate(-20 -26.4)"/>
  <path class="htcls-8" d="M747 32.6a145.7 145.7 0 0114 16 56 56 0 015.5 9.2c1.3 2.8 2 5.5 5.5 6 0 0 14.9-2.5 24.8-.3h-.4a2.5 2.5 0 001.8-.6 70.6 70.6 0 0125-23.8" transform="translate(-20 -26.4)"/>
  <path class="htcls-8" d="M743.5 77.3c-12 10.9-23.3 32.5-16.5 48.2 1.8 4 5 8.2 13.3 13.2 34.7 21.5 75 6.7 77.4 5.8 8.3-3.5 14-6 18.4-12.3 9.4-13.9 4.7-35.8-4.3-48.5-18.2-25.8-64.4-28.3-88.3-6.4z" transform="translate(-20 -26.4)"/>
  <path class="htcls-10" d="M993.7 91.3l-10.8-4.8a7.1 7.1 0 01-3.4-9.5 3.6 3.6 0 01.2-.3l5.7-10.7c3-5.8-2.5-12.3-8.3-10l-11 4.6a6.7 6.7 0 01-8.7-3.7 7.6 7.6 0 01-.3-1L954 44.4a6.7 6.7 0 00-12.7-.9l-4.6 11.2a6.6 6.6 0 01-8.6 3.8 7.2 7.2 0 01-.9-.5L917 52c-5.5-3.2-11.9 2.6-9.5 8.7l4.3 11.3a7 7 0 01-4 9.2l-.5.1-11.2 3.3c-6.1 1.8-6.7 10.6-.9 13.2l10.8 4.9a7.1 7.1 0 013.4 9.4l-.2.4-5.7 10.6c-3.1 5.8 2.5 12.4 8.3 10l11-4.6a6.7 6.7 0 018.6 3.7 5 5 0 01.3 1l3.2 11.7a6.7 6.7 0 0012.7.8l4.6-11.2a6.6 6.6 0 018.6-3.7 6 6 0 011 .4l10.1 6c5.6 3.2 12-2.6 9.6-8.7l-4.3-11.3a7 7 0 013.9-9.2 5.2 5.2 0 01.5-.2l11.3-3.3c6-1.8 6.6-10.5.8-13.2zm-34 10.6a13.1 13.1 0 01-3.4 5.6 12.6 12.6 0 01-5.4 3.6 12.3 12.3 0 01-6.5 1.5 33 33 0 01-4.6-.6c-2.5-.5-5.7-2.8-7.5-4.6s-3.9-5.2-4.3-7.7a37.1 37.1 0 01-.6-4.9 18 18 0 012.3-8.8l2.6-3.5a16.5 16.5 0 017.4-4.5l4.4-.6a12.2 12.2 0 016.5 1.5 12.2 12.2 0 015.4 3.6l.3.3.1.2a11 11 0 011 1.1 17.4 17.4 0 013.1 6.4l.6 4.6a13.5 13.5 0 01-1.3 6.8z" transform="translate(-20 -26.4)"/>
  <path class="htcls-3" d="M136.5 230.4c-24.3-52.3-83.3-20.1-72 23.4l3.5 14.5L28.6 309c-3.8 4-1.4 10.7 4 11 3 3 41.9-41.4 44.3-42.7 43.7 13.2 66.7-15.9 59.6-47zm-7.8 24C114 291.2 60.3 271.9 70 233.3c13.4-43.5 74.7-20.9 58.8 21z" transform="translate(-20 -26.4)"/>
  <ellipse class="htcls-3" cx="80" cy="215.1" rx="31.3" ry="32.6"/>
  <path class="htcls-4" d="M206.2 275.9l-1-.6-2.8 5c-3.5 6-6.7 12.3-10 18.5-3 5.5-6.1 11-8.3 17-.4 1-1.7 4.4.4 4.6 1.6 0 2.9-2.8 3.5-4 2.9-5.6 5.5-11.4 8.3-17.2 3.6-7.5 7.5-14.8 11.8-22zM209 272.3l-1.3-1-1.3 2.1 1.7 1.1 1.1.9 1.2-1.9zM311.4 222.7a40.1 40.1 0 00-30.8-12.6 60.6 60.6 0 00-33 13.8 163 163 0 00-38.7 45.5l2 1.7.7.5a198.2 198.2 0 0127.1-34.2 89.8 89.8 0 0129.3-20.9 43.6 43.6 0 0135.8 1.4 45 45 0 017.7 4.9z" transform="translate(-20 -26.4)"/>
  <path class="htcls-4" d="M188 250.8l1.1-1.9-2.8-2-1 2 2.7 1.9zM190.3 247l1.2-1.8-2.8-2.3-1.1 2 2.7 2.1z"/>
  <path class="htcls-6" d="M419.1 225.2l.8.2h.5a10.6 10.6 0 013 .4c22.5-52.5-50.5-22-50.5-22 36.1-8.8 44.5 9.5 46.2 21.4z" transform="translate(-20 -26.4)"/>
  <path class="htcls-6" d="M422.2 225.5a9.4 9.4 0 013 1 10.9 10.9 0 012.4-.3c9.3-9.6 28.7-19.5 57.2 14.8 0 0-51.6-83.5-62.6-15.5z" transform="translate(-20 -26.4)"/>
  <path class="htcls-6" d="M401.2 310a31 31 0 003.2 1.4l5 2c1.8-2.4 3.2-4.7 4.8-7 8.7-12 16.8-8.7 27.4-18.3 9.7-8.7 20.2-27 14-42.2-5.8-14.6-23.5-18.4-26-18.9l-9.7-.6-9.6-.7c-14.6-.3-27.4 7.7-32.7 19.1s-3 26.3 12.5 39.6c11.6 10.2 13.1 19 11.1 25.6zM400.6 315.5l4.6 2.4a27.8 27.8 0 002.8-2.7 78.7 78.7 0 01-7.6-3 20 20 0 01-1.3 2.6zM402.6 319.1l-4.3-2.2-.6-.3a27 27 0 01-2.1 2.5c-3 3.3-6.1 5.2-6 5.4.4.8 7-.7 12.8-4.5l.8-.5z" transform="translate(-20 -26.4)"/>
  <path class="htcls-6" d="M387.9 288.8l1.5-2-8.3-3.3-.8 2.2M385 291.5l-1.9 1.5-5.4-2.8 1.3-2 6 3.3"/>
  <path class="htcls-8" d="M566.5 199c9.3.9 10.5 3 15.7 3.3 8.2.6 9-4.4 19.5-5 4.5-.3 7.6.3 13.7 1.6 9.9 2.2 19 6.2 18.8 7.3-.2.6-3-.2-8.7-.2-3.9 0-6.1.4-14 1.6-11 1.8-16.5 2.6-19 2.8-6 .3-9.8.6-14.6-1-3.8-1.4-4.1-2.5-11.5-5.7-5.5-2.4-8.5-3.2-8.4-4s5.1-1.1 8.5-.8z" transform="translate(-20 -26.4)"/>
  <path class="htcls-8" d="M558 199.7a145.7 145.7 0 0114.1 16 56 56 0 015.5 9.2c1.3 2.8 2 5.5 5.4 6 0 0 15-2.5 24.9-.3h-.4a2.5 2.5 0 001.7-.7 70.5 70.5 0 0125-23.7" transform="translate(-20 -26.4)"/>
  <path class="htcls-8" d="M554.6 244.4c-12 10.8-23.3 32.4-16.4 48.1 1.7 4.1 5 8.2 13.2 13.3 34.8 21.5 75 6.7 77.4 5.7 8.3-3.4 14.1-5.8 18.4-12.2 9.4-14 4.7-35.8-4.3-48.5-18.2-25.8-64.4-28.3-88.3-6.4z" transform="translate(-20 -26.4)"/>
  <path class="htcls-10" d="M825.3 258.4l-10.8-4.8a7.1 7.1 0 01-3.4-9.5l.2-.3L817 233c3-5.8-2.5-12.3-8.4-10l-10.9 4.6a6.7 6.7 0 01-8.7-3.7 7.6 7.6 0 01-.3-1l-3.1-11.6a6.7 6.7 0 00-12.7-1l-4.6 11.3a6.6 6.6 0 01-8.6 3.7 6.9 6.9 0 01-.9-.4l-10.2-6c-5.5-3.2-11.9 2.6-9.6 8.7l4.4 11.3a7 7 0 01-4 9.2l-.5.2-11.3 3.3c-6 1.8-6.6 10.5-.8 13.1l10.7 4.9a7.1 7.1 0 013.4 9.5l-.2.3-5.7 10.7c-3 5.7 2.5 12.3 8.4 9.9l10.9-4.5a6.7 6.7 0 018.7 3.6 5 5 0 01.3 1l3.2 11.8a6.7 6.7 0 0012.7.9l4.6-11.2a6.6 6.6 0 018.6-3.8 6.5 6.5 0 01.9.4l10.2 6c5.5 3.2 11.9-2.6 9.6-8.7l-4.4-11.3a7 7 0 014-9.2l.5-.1 11.2-3.4c6.2-1.8 6.7-10.6.9-13.2zm-34 10.5a13 13 0 01-3.4 5.7 12.6 12.6 0 01-5.4 3.5 12.2 12.2 0 01-6.5 1.6 33 33 0 01-4.6-.7c-2.5-.4-5.7-2.7-7.5-4.5s-3.9-5.2-4.3-7.8a39 39 0 01-.6-4.8 17.9 17.9 0 012.3-8.8l2.6-3.5a16.6 16.6 0 017.4-4.5l4.5-.6a12.1 12.1 0 016.4 1.5 12.4 12.4 0 015.4 3.6l.3.2.2.2a11 11 0 011 1.2 17.6 17.6 0 013.1 6.3l.6 4.7a13.4 13.4 0 01-1.4 6.7z" transform="translate(-20 -26.4)"/>
  <path class="htcls-1" d="M993.5 256.9s-5.4-14-22.8-25.4c0 0-28.5-18.4-51.9-6.8 0 0-13.7 6.1-17 38s-15.2 38.1-15.2 38.1 21.4 23.2 70.3 13.4v-1a19 19 0 01-11.7-17 18.1 18.1 0 0117.6-18.3c9.8 0 17.1 8.4 17.5 18.3a16.5 16.5 0 01-2.5 9.4l.5.4c25.6-16.9 15.2-49.1 15.2-49.1z" transform="translate(-20 -26.4)"/>
  <path class="htcls-1" d="M973.9 190.2l-18.2 18.4-4.6-3.3 8.2-25 14.6 10z"/>
  <path class="htcls-4" d="M44.5 442.7l-1-.6c-1 1.7-2 3.4-2.8 5.1-3.5 6-6.7 12.2-10 18.4-3 5.6-6.2 11-8.3 17-.5 1.1-1.8 4.4.3 4.6 1.7.1 3-2.8 3.5-4 3-5.6 5.6-11.4 8.3-17.2 3.7-7.4 7.6-14.8 11.9-22l-2-1.3zM47.3 439.2a24 24 0 00-1.3-1l-1.3 2 1.6 1.2 1.2.8 1.2-1.8zM149.7 389.6a40.1 40.1 0 00-30.9-12.7 60.6 60.6 0 00-33 13.9 163 163 0 00-38.7 45.4l2.1 1.7.6.6A198.3 198.3 0 0177 404.2a90 90 0 0129.3-20.8 43.6 43.6 0 0135.9 1.4 44.9 44.9 0 017.7 4.8z" transform="translate(-20 -26.4)"/>
  <path class="htcls-4" d="M26.3 417.6l1.1-1.9-2.8-2-1.1 2 2.8 2zM28.6 413.9l1.1-1.9-2.7-2.2-1.1 1.9 2.7 2.2z"/>
  <path class="htcls-6" d="M245.4 392l.7.2h.6a10.6 10.6 0 013 .4c22.5-52.5-50.5-21.9-50.5-21.9 36.1-8.9 44.5 9.4 46.2 21.3z" transform="translate(-20 -26.4)"/>
  <path class="htcls-6" d="M248.6 392.3a10 10 0 012.9 1 10.9 10.9 0 012.4-.2c9.4-9.7 28.7-19.5 57.3 14.7 0 0-51.7-83.5-62.6-15.5z" transform="translate(-20 -26.4)"/>
  <path class="htcls-6" d="M227.5 476.8l3.2 1.4 5 2c1.7-2.4 3-4.7 4.7-7 8.8-11.9 16.8-8.7 27.4-18.2 9.7-8.7 20.2-27 14.1-42.3-5.8-14.6-23.6-18.4-26.1-18.9l-9.7-.6-9.6-.7c-14.6-.3-27.4 7.7-32.6 19.1s-3 26.3 12.4 39.6c11.7 10.3 13.3 19 11.2 25.6zM226.8 482.3c1.6.7 3.1 1.6 4.6 2.4a25.8 25.8 0 002.8-2.7 77.5 77.5 0 01-7.5-3 20 20 0 01-1.4 2.6l1.5.7zM228.9 486l-4.3-2.2-.6-.3a30.3 30.3 0 01-2 2.5c-3.2 3.3-6.2 5.2-6 5.4.3.8 7-.7 12.7-4.5l.8-.6z" transform="translate(-20 -26.4)"/>
  <path class="htcls-6" d="M214.1 455.6l1.6-1.9-8.3-3.3-.8 2.1M211.4 458.3l-2 1.5-5.4-2.8 1.3-1.9 6 3.2"/>
  <path class="htcls-8" d="M392.8 365.8c9.3 1 10.5 3 15.7 3.4 8.2.5 9-4.4 19.5-5.1 4.5-.3 7.6.4 13.7 1.7 9.9 2.1 19 6.2 18.8 7.2-.2.6-3-.2-8.7-.1-3.9 0-6.1.3-14 1.6a315 315 0 01-19 2.7c-6 .4-9.8.6-14.6-1-3.9-1.3-4.1-2.4-11.5-5.7-5.5-2.4-8.5-3.2-8.4-4s5.1-1 8.5-.7z" transform="translate(-20 -26.4)"/>
  <path class="htcls-8" d="M384.3 366.6a145.7 145.7 0 0114.1 16 56 56 0 015.5 9.1c1.3 2.8 2 5.5 5.4 6 0 0 15-2.4 24.9-.3h-.4a2.5 2.5 0 001.7-.7 70.5 70.5 0 0125-23.7" transform="translate(-20 -26.4)"/>
  <path class="htcls-8" d="M380.8 411.2c-11.9 10.9-23.2 32.5-16.4 48.2 1.8 4 5 8.2 13.2 13.3 34.8 21.4 75 6.7 77.4 5.7 8.4-3.4 14.1-6 18.5-12.3 9.4-13.9 4.7-35.8-4.3-48.5-18.2-25.8-64.4-28.3-88.4-6.4z" transform="translate(-20 -26.4)"/>
  <path class="htcls-10" d="M651.6 425.3l-10.8-4.9a7.1 7.1 0 01-3.4-9.4l.2-.4 5.7-10.6c3.1-5.7-2.5-12.3-8.3-10l-11 4.6a6.7 6.7 0 01-8.6-3.7 6 6 0 01-.3-.9l-3.2-11.7a6.7 6.7 0 00-12.7-1l-4.6 11.3a6.6 6.6 0 01-8.6 3.7 7.2 7.2 0 01-.9-.4l-10.2-6c-5.5-3.2-11.9 2.6-9.6 8.7l4.4 11.4a7 7 0 01-4 9.1l-.5.2-11.2 3.3c-6.1 1.8-6.7 10.5-.8 13.1l10.7 4.9a7.1 7.1 0 013.4 9.5l-.2.3-5.7 10.7c-3 5.7 2.5 12.3 8.4 9.9l10.9-4.5a6.7 6.7 0 018.7 3.7 6.3 6.3 0 01.2.9l3.2 11.7a6.7 6.7 0 0012.7.9l4.6-11.2a6.6 6.6 0 018.6-3.8 5.6 5.6 0 01.9.4l10.2 6c5.6 3.2 12-2.6 9.6-8.7L635 451a7 7 0 014-9.2l.4-.1 11.3-3.3c6.1-1.8 6.7-10.5.9-13.1zm-34 10.5a13 13 0 01-3.4 5.6 12.6 12.6 0 01-5.4 3.6 12.3 12.3 0 01-6.5 1.5 33 33 0 01-4.6-.6c-2.5-.5-5.8-2.7-7.5-4.6s-4-5.2-4.3-7.7a39 39 0 01-.6-4.9 17.8 17.8 0 012.3-8.8l2.6-3.5a16.6 16.6 0 017.4-4.5l4.4-.6a12.1 12.1 0 016.5 1.5 12.5 12.5 0 015.4 3.6l.2.3.2.2a11.1 11.1 0 011 1.2 17.4 17.4 0 013.2 6.3l.6 4.7a13.6 13.6 0 01-1.4 6.7z" transform="translate(-20 -26.4)"/>
  <path class="htcls-1" d="M820.9 423.7s-5.4-14-22.8-25.4c0 0-28.6-18.3-52-6.7 0 0-13.6 6-16.8 38s-15.4 38-15.4 38 21.4 23.3 70.4 13.4l-.1-1a19 19 0 01-11.6-17 18.1 18.1 0 0117.5-18.2c9.9 0 17.1 8.3 17.6 18.2a16.5 16.5 0 01-2.6 9.4l.5.4c25.7-16.8 15.3-49 15.3-49z" transform="translate(-20 -26.4)"/>
  <path class="htcls-1" d="M801.3 357L783 375.6l-4.6-3.3 8.1-25.1 14.6 10z"/>
  <path class="htcls-6" d="M74.7 565.1l.7.2h.5a10.8 10.8 0 013.1.5c22.5-52.5-50.6-22-50.6-22 36.2-8.9 44.5 9.5 46.3 21.3z" transform="translate(-20 -26.4)"/>
  <path class="htcls-6" d="M77.8 565.5a9.6 9.6 0 013 1 10.9 10.9 0 012.3-.4c9.4-9.6 28.7-19.5 57.3 14.8 0 0-51.7-83.5-62.6-15.4z" transform="translate(-20 -26.4)"/>
  <path class="htcls-6" d="M56.8 650a31.3 31.3 0 003.2 1.3l5 2c1.7-2.3 3-4.7 4.7-7 8.7-11.9 16.8-8.7 27.4-18.2 9.7-8.7 20.2-27 14-42.3-5.8-14.5-23.5-18.3-26-18.8l-9.7-.7-9.6-.7c-14.6-.3-27.4 7.7-32.7 19.1s-3 26.3 12.5 39.6c11.7 10.3 13.2 19 11.2 25.6zM56.1 655.4c1.6.7 3 1.6 4.6 2.5a27.8 27.8 0 002.8-2.8 75 75 0 01-7.5-3 20.7 20.7 0 01-1.4 2.6l1.5.7zM58.2 659l-4.3-2.2-.6-.2a28.6 28.6 0 01-2.1 2.5c-3.1 3.3-6.2 5.1-6 5.4.4.8 7-.7 12.8-4.6l.8-.5-.6-.3z" transform="translate(-20 -26.4)"/>
  <path class="htcls-6" d="M43.4 628.7l1.5-1.9-8.2-3.3-.8 2.1M40.6 631.5l-1.9 1.5-5.5-2.9 1.3-1.9 6.1 3.3"/>
  <path class="htcls-8" d="M210 538.9c9.3 1 10.5 3 15.8 3.4 8.2.5 8.9-4.4 19.5-5.1 4.4-.3 7.6.4 13.6 1.7 10 2.1 19.1 6.2 18.9 7.2-.2.6-3.1-.1-8.7-.1-4 0-6.2.4-14 1.6a315 315 0 01-19 2.7c-6 .4-9.9.6-14.6-1-4-1.3-4.2-2.4-11.6-5.7-5.5-2.4-8.5-3.2-8.3-4s5-1 8.5-.7z" transform="translate(-20 -26.4)"/>
  <path class="htcls-8" d="M201.6 539.7a145.7 145.7 0 0114 16 55.3 55.3 0 015.5 9.1c1.3 2.8 2 5.5 5.4 6 0 0 15-2.5 24.9-.3h-.4a2.5 2.5 0 001.7-.7 70.7 70.7 0 0125-23.7" transform="translate(-20 -26.4)"/>
  <path class="htcls-8" d="M198.1 584.3c-11.9 10.9-23.3 32.5-16.4 48.2 1.8 4 5 8.2 13.2 13.3 34.8 21.4 75 6.7 77.4 5.7 8.3-3.4 14.1-5.9 18.4-12.3 9.5-13.9 4.7-35.8-4.2-48.5-18.3-25.7-64.4-28.3-88.4-6.4z" transform="translate(-20 -26.4)"/>
  <path class="htcls-10" d="M468.8 598.4l-10.8-4.9a7.1 7.1 0 01-3.3-9.5l.1-.3 5.8-10.7c3-5.7-2.5-12.3-8.4-9.9l-10.9 4.5a6.7 6.7 0 01-8.7-3.6 7.6 7.6 0 01-.3-1l-3.2-11.7a6.7 6.7 0 00-12.6-.9l-4.7 11.2a6.6 6.6 0 01-8.5 3.8 7.2 7.2 0 01-1-.5l-10.2-6c-5.5-3.2-11.8 2.6-9.5 8.7l4.3 11.4a7 7 0 01-3.8 9.1l-.6.2-11.3 3.3c-6 1.8-6.6 10.6-.8 13.2l10.8 4.8a7.1 7.1 0 013.4 9.5l-.2.4-5.8 10.6c-3 5.8 2.5 12.4 8.4 10l11-4.6a6.7 6.7 0 018.6 3.7 4.7 4.7 0 01.3 1l3.2 11.6a6.7 6.7 0 0012.7 1l4.6-11.3a6.6 6.6 0 018.6-3.8 5.6 5.6 0 01.9.5l10.2 6c5.5 3.2 11.9-2.6 9.5-8.7l-4.3-11.3a7 7 0 014-9.2l.5-.2 11.2-3.4c6-1.7 6.6-10.4.8-13zM435 608.9a13.1 13.1 0 01-3.4 5.6 12.6 12.6 0 01-5.4 3.6 12.1 12.1 0 01-6.5 1.5 34.5 34.5 0 01-4.6-.6c-2.5-.4-5.8-2.7-7.5-4.5s-4-5.2-4.3-7.8a37.2 37.2 0 01-.6-4.8 18 18 0 012.3-8.8l2.6-3.6a16.6 16.6 0 017.4-4.4l4.4-.7a12 12 0 016.5 1.5 12.4 12.4 0 015.4 3.6l.2.3h.1l.2.2a11 11 0 011 1.2 17.6 17.6 0 013.1 6.3l.6 4.6a13.4 13.4 0 01-1.5 6.8z" transform="translate(-20 -26.4)"/>
  <path class="htcls-1" d="M638.1 596.8s-5.4-14-22.8-25.4c0 0-28.5-18.3-51.9-6.7 0 0-13.7 6-16.9 38s-15.3 38.1-15.3 38.1 21.4 23.2 70.4 13.3l-.1-1a19 19 0 01-11.6-17 18.1 18.1 0 0117.5-18.3c9.9 0 17.1 8.4 17.6 18.3a16.6 16.6 0 01-2.6 9.4 4.4 4.4 0 01.5.4c25.7-16.8 15.2-49 15.2-49z" transform="translate(-20 -26.4)"/>
  <path class="htcls-1" d="M618.5 530.2l-18.2 18.4-4.6-3.3 8.2-25.1 14.6 10z"/>
  <path class="htcls-3" d="M813.6 578.1c-24.2-52.3-83.2-20-71.8 23.4l3.4 14.6-39.5 40.6c-3.8 4-1.3 10.7 4 11 3 3 42-41.4 44.3-42.6 43.7 13.2 66.8-16 59.6-47zm-7.7 24C791.1 639 737.5 619.6 747 581c13.5-43.4 74.8-20.8 58.9 21.2z" transform="translate(-20 -26.4)"/>
  <ellipse class="htcls-3" cx="757.1" cy="562.8" rx="31.3" ry="32.6"/>
  <path class="htcls-4" d="M887.4 624l-.9-.5-2.9 5c-3.4 6.1-6.6 12.3-9.9 18.5-3 5.5-6.2 11-8.4 17-.4 1-1.7 4.4.4 4.6 1.6 0 2.9-2.8 3.5-4 3-5.6 5.5-11.5 8.3-17.2 3.6-7.5 7.6-14.8 11.8-22l-1.9-1.3zM890.2 620.5a24 24 0 00-1.3-1l-1.2 2.1 1.6 1.1 1.2.9 1.1-1.9-1.4-1.2zM992.7 571a40 40 0 00-31-12.7 60.6 60.6 0 00-33 13.8 163 163 0 00-38.6 45.5l2 1.7.7.5a198.3 198.3 0 0127.1-34.2 89.9 89.9 0 0129.3-20.9 43.6 43.6 0 0135.9 1.4 44.9 44.9 0 017.6 4.9z" transform="translate(-20 -26.4)"/>
  <path class="htcls-4" d="M869.3 599l1-1.9-2.7-2-1.1 2 2.8 1.9zM871.5 595.2l1.2-1.8-2.7-2.3-1.2 2 2.7 2.1z"/>
  <path class="htcls-3" d="M996.4 401.3c-24.2-52.3-83.2-20.1-71.8 23.4l3.4 14.5-39.4 40.6c-3.8 4-1.4 10.7 4 11 3 3 41.9-41.4 44.3-42.6 43.6 13.2 66.7-16 59.5-47zm-7.7 24C974 462 920.2 442.8 929.8 404c13.5-43.4 74.8-20.8 59 21.2z" transform="translate(-20 -26.4)"/>
  <ellipse class="htcls-3" cx="939.9" cy="386" rx="31.3" ry="32.6"/>
</svg>