<svg xmlns="http://www.w3.org/2000/svg" viewBox="0 0 241.56 240.11"><defs><style>.key-cls-1{fill:#fff;stroke:#fff;stroke-miterlimit:10;stroke-width:10px;}</style></defs><path class="key-cls-1" d="M126.36 97.33L6.87 213.56l16.7 19.29 32.48-31.24 24.13 23.89 18.56-19.29-23.2-22.97 20.42-18.15 20.42 19.07 19.49-19.07-19.49-21.36 28.18-28.83-18.2-17.57z" id="Layer_1" data-name="Layer 1"/><path class="key-cls-1" d="M179.75 11.08c-33.18 0-60.09 26.63-60.09 59.48s26.91 59.49 60.09 59.49 60.09-26.63 60.09-59.49-26.9-59.48-60.09-59.48zM179 105.5c-19.9 0-34.64-16.27-35.5-35.5s16.93-35.5 35.5-35.5c19.9 0 34.64 16.27 35.5 35.5s-16.93 35.5-35.5 35.5z" transform="translate(-3.29 -6.08)" id="Layer_2" data-name="Layer 2"/></svg>