<svg xmlns="http://www.w3.org/2000/svg" viewBox="0 0 656.6 442.61">
   <defs>
      <style>
     .loadcls-1{fill:#8f8f8f;stroke:#333;}.loadcls-1,.loadcls-2{stroke-miterlimit:10;stroke-width:2px;}.loadcls-2{fill:#4ae3b5;stroke:#2a5d67;}.loadcls-3{fill:#2a5d67;}.loadcls-4{fill:none;}

.lcog{
  stroke-width:2px;
  animation: 2s lcog-rotate infinite linear;
  transform-origin : 48.5% 43.85%; 
}

@keyframes lcog-rotate{
  from{transform:rotate(0deg);}
  to{transform:rotate(360deg);}
}

.ldot1{
  animation: 2s ldot-leap infinite alternate;
  
}
.ldot2{
  animation: 2s ldot-leap infinite alternate;
  animation-delay: 0.25s;
}
.ldot3{
  animation: 2s ldot-leap infinite alternate;
  animation-delay: 0.5s;
}

@keyframes ldot-leap{
  0%{
    transform: translate(0%, 0%)
  }
  50%{
    transform: translate(0%, 3%)
  }
  100{
    transform: translate(0%, 0%)
  }
}
     
     </style>
   </defs>
   <g id="lcog">
      <path class="lcog loadcls-1" d="M347.25,191.88,341,189.17a3.93,3.93,0,0,1-1.87-5.52l3.34-6a3.92,3.92,0,0,0-4.88-5.56l-6.36,2.52a3.92,3.92,0,0,1-5.22-2.58l-1.87-6.58a3.92,3.92,0,0,0-7.38-.49L314,171.28a3.93,3.93,0,0,1-5.52,1.87l-6-3.34a3.92,3.92,0,0,0-5.56,4.87l2.52,6.37a3.92,3.92,0,0,1-2.58,5.22l-6.58,1.86a3.93,3.93,0,0,0-.49,7.39l6.29,2.71a3.92,3.92,0,0,1,1.87,5.51l-3.34,6a3.92,3.92,0,0,0,4.88,5.56l6.36-2.52a3.92,3.92,0,0,1,5.22,2.57l1.87,6.59a3.93,3.93,0,0,0,7.38.49l2.71-6.29a3.93,3.93,0,0,1,5.52-1.87l6,3.34a3.92,3.92,0,0,0,5.56-4.88l-2.52-6.36a3.92,3.92,0,0,1,2.58-5.22l6.58-1.87A3.93,3.93,0,0,0,347.25,191.88Zm-19.77,5.9a7.25,7.25,0,0,1-2,3.15,10.83,10.83,0,0,1-6.92,2.87,20.15,20.15,0,0,1-2.7-.35,9.87,9.87,0,0,1-6.91-6.91,20.64,20.64,0,0,1-.35-2.7,9.75,9.75,0,0,1,1.34-4.94l1.53-2a9.85,9.85,0,0,1,4.32-2.52l2.6-.35a11,11,0,0,1,6.92,2.87l.14.15,0,0,.09.11c.2.21.39.42.57.64a9.84,9.84,0,0,1,1.86,3.57c.11.87.23,1.74.35,2.6A7.29,7.29,0,0,1,327.48,197.78Z"/>
   </g>
   <g id="lleaf">
      <path class="lleaf loadcls-2" d="M336.16,172.62s-3.14-7.87-13.29-14.27c0,0-16.65-10.29-30.27-3.78,0,0-8,3.41-9.87,21.32s-9,21.4-9,21.4,12.49,13,41.05,7.48l-.08-.53a10.65,10.65,0,0,1-6.76-9.58c-.24-5.53,4.89-10.24,10.24-10.24a10.42,10.42,0,0,1,10.24,10.24,9,9,0,0,1-1.49,5.28,3.65,3.65,0,0,1,.31.24C342.23,190.71,336.16,172.62,336.16,172.62Z"/>
      <polygon class="lleaf loadcls-2" points="337.38 150.05 326.78 160.38 324.09 158.53 328.87 144.45 337.38 150.05"/>
   </g>
   <g id="lloading">
      <path class="lloading loadcls-3" d="M173.34,270.49h5v32.84h19.46v4H173.34Z"/>
      <path class="lloading loadcls-3" d="M204.94,293.73c0-9.15,6.72-14.37,14.41-14.37s14.42,5.22,14.42,14.37S227,308,219.35,308,204.94,302.77,204.94,293.73Zm23.72,0c0-6.28-3.72-10.5-9.31-10.5s-9.31,4.22-9.31,10.5,3.73,10.39,9.31,10.39S228.66,300,228.66,293.73Z"/>
      <path class="lloading loadcls-3" d="M242.18,300.24c0-6.11,6.12-9.09,21.2-10.21-.18-3.71-2.1-6.85-7.75-6.85-3.78,0-7.51,1.68-10.21,3.25l-2-3.14a26.77,26.77,0,0,1,13-3.93c8,0,11.9,4.44,11.9,11.23v16.73h-4.15l-.42-3.71h-.18c-3.18,2.36-7.39,4.38-11.47,4.38C246.68,308,242.18,305.13,242.18,300.24Zm21.2-.05v-7.08c-12.49.9-16.28,3.2-16.28,6.8,0,3.09,3,4.32,6.37,4.32S260,302.77,263.38,300.19Z"/>
      <path class="lloading loadcls-3" d="M277,293.73c0-8.87,6.3-14.37,13.21-14.37a13,13,0,0,1,8.77,3.48h.12l-.24-5v-10.5h5v40h-4.09l-.42-3.6h-.18a14.37,14.37,0,0,1-9.55,4.27C282.06,308,277,302.83,277,293.73ZM298.88,300V286.43a11.19,11.19,0,0,0-7.63-3.14c-5,0-9.13,4.16-9.13,10.39,0,6.51,3.25,10.38,8.59,10.38C293.6,304.06,296.3,302.71,298.88,300Z"/>
      <path class="lloading loadcls-3" d="M328.37,283.8H314.86V280h18.5v27.28h-5Zm-2-13.08c0-2.14,1.68-3.6,4-3.6a3.64,3.64,0,0,1,4,3.6c0,2.19-1.68,3.59-4,3.59S326.39,272.91,326.39,270.72Z"/>
      <path class="lloading loadcls-3" d="M351.08,280h4.08l.42,4.6h.24c3.07-3,6.43-5.28,11-5.28,6.91,0,10.09,3.82,10.09,11v17h-5V291c0-5.16-1.92-7.58-6.66-7.58-3.49,0-5.83,1.63-9.2,4.89v19h-5Z"/>
      <path class="lloading loadcls-3" d="M385.86,312.31c0-2.19,1.68-4.38,4.8-6.06V306a4.94,4.94,0,0,1-3-4.49c0-1.74,1.26-3.71,3.48-5.11v-.23a8.51,8.51,0,0,1-3.6-7.07c0-5.95,5.28-9.77,11.47-9.77a12.62,12.62,0,0,1,4.33.68h12.07v3.76h-7.57a8,8,0,0,1,2.47,5.5c0,5.84-5,9.37-11.3,9.37a13.2,13.2,0,0,1-4.92-1c-1.45.84-2.29,1.85-2.29,3.15,0,2.13,2.23,3.14,6.07,3.14h6.55c7.51,0,11.11,1.8,11.11,6.4,0,5.11-6.31,9.54-16.22,9.54C390.78,319.89,385.86,317.14,385.86,312.31Zm24.81-1.23c0-2.58-2.23-3.31-6.67-3.31h-5.71a17.91,17.91,0,0,1-4.44-.45c-2.77,1.4-3.73,3-3.73,4.54,0,2.87,3.3,4.66,9.55,4.66C406.46,316.52,410.67,313.89,410.67,311.08Zm-4.93-21.95c0-3.82-3-6.4-6.73-6.4a6.44,6.44,0,1,0,0,12.86C402.74,295.59,405.74,293.06,405.74,289.13Z"/>
   </g>
   <g id="ldot1">
      <path class="ldot1 loadcls-3" d="M434.1,303.22A4.87,4.87,0,1,1,439,308,4.71,4.71,0,0,1,434.1,303.22Z"/>
   </g>
   <g id="ldot2">
      <path class="ldot2 loadcls-3" d="M465.64,303.22A4.87,4.87,0,1,1,470.5,308,4.7,4.7,0,0,1,465.64,303.22Z"/>
   </g>
   <g id="ldot3">
      <path class="ldot3 loadcls-3" d="M496.05,303.22a4.87,4.87,0,1,1,4.86,4.77A4.7,4.7,0,0,1,496.05,303.22Z"/>
   </g>
   <g id="lbox">
      <rect class="lbox loadcls-4" width="656.6" height="442.61"/>
   </g>
</svg>