<svg xmlns="http://www.w3.org/2000/svg" viewBox="0 0 121.4 129.1">
  <defs>
    <style>
      .logo2cls-1{fill:none;stroke:#000;stroke-miterlimit:10}.svg{position:absolute;top:0;bottom:0;left:0;right:0;margin:auto}.leaf{stroke-width:2px;stroke:#4AE3B5;fill:#4AE3B5;opacity:.9}@keyframes cog-rotate{from{transform:translate(-53.9%, -22.9%) rotate(0deg)}to{transform:translate(-53.9%, -22.9%) rotate(360deg)}}
    </style>
  </defs>
  <path d="M182 105.2l-10-4.3a6.2 6.2 0 01-3-8.8l5.3-9.5a6.2 6.2 0 00-7.7-8.8l-10.1 4a6.2 6.2 0 01-8.3-4.1l-3-10.5a6.2 6.2 0 00-11.7-.7l-4.4 10a6.2 6.2 0 01-8.7 3L111 70a6.2 6.2 0 00-8.8 7.8l4 10a6.2 6.2 0 01-4.1 8.3l-10.5 3A6.2 6.2 0 0091 111l10 4.3a6.2 6.2 0 013 8.7l-5.3 9.5a6.2 6.2 0 007.7 8.8l10-4a6.2 6.2 0 018.4 4.1l3 10.5a6.2 6.2 0 0011.7.8l4.3-10a6.2 6.2 0 018.8-3l9.4 5.3a6.2 6.2 0 008.9-7.8l-4-10a6.2 6.2 0 014-8.4l10.5-3a6.2 6.2 0 00.7-11.6zm-31.4 9.3a11.7 11.7 0 01-3.2 5 11.6 11.6 0 01-5 3.2 11.7 11.7 0 01-6 1.4 31 31 0 01-4.3-.6 15.7 15.7 0 01-10.9-11 31.1 31.1 0 01-.6-4.2 15.5 15.5 0 012.2-7.9l2.4-3.1a15.5 15.5 0 016.8-4l4.2-.6a11.6 11.6 0 016 1.4 11.5 11.5 0 015 3.2l.2.2.2.2a12.2 12.2 0 01.9 1 15.4 15.4 0 013 5.7l.5 4.1a11.7 11.7 0 01-1.3 6z" transform="translate(-64.9 -28.8)" style="animation:3s cog-rotate infinite linear;transform-origin:112.35% 84%" stroke-width="2" stroke-dasharray="500" stroke-dashoffset="500" fill="#2A5D67" stroke-miterlimit="10" id="Layer_1" data-name="Layer 1"/>
  <g id="Layer_2" data-name="Layer 2">
    <path class="logo2cls-1 leaf" d="M164.8 74.2s-5-12.5-21.1-22.6c0 0-26.5-16.4-48.1-6 0 0-12.7 5.4-15.6 33.8s-14.3 34-14.3 34 19.9 20.7 65.2 12l-.1-1a16.9 16.9 0 01-10.8-15.1c-.3-8.8 7.8-16.3 16.3-16.3 9.1 0 15.9 7.4 16.3 16.3a14.3 14.3 0 01-2.4 8.3 4.2 4.2 0 01.5.4c23.7-15 14-43.8 14-43.8z" transform="translate(-64.9 -28.8)"/>
    <path class="logo2cls-1 leaf" d="M100.3 9.7L83.5 26l-4.3-3L86.8.8l13.5 8.9z"/>
  </g>
</svg>