<svg xmlns="http://www.w3.org/2000/svg" viewBox="0 0 121.41 129.13">
  <defs>
     <style>
        .logo-cls-1{
        fill:none;stroke:#000;stroke-miterlimit:10;
        }
        .svg{
        position: absolute;
        top : 0;
        bottom: 0;
        left: 0;
        right: 0;
        margin : auto;
        }
        .logo-cls-1{
        stroke:#FF0000;
        stroke-miterlimit:10;
        }
        .leaf{
        stroke-width:2px;
        stroke:#4AE3B5; 
        fill: #4AE3B5;
        opacity : 0;
        stroke-dasharray: 400;
        stroke-dashoffset : 400;
        animation: 5s leafAnimate 1 forwards;
        }
        .logo-cog{
        stroke-width:2px;
        stroke-dasharray: 500;
        stroke-dashoffset : 500;
        stroke : #333333;
        fill: #8f8f8f;
        animation: 3s logo-cog-rotate infinite linear, 5s logo-cog-outline 1 forwards;
        transform-origin : 112.35% 84%;  
        }
        @keyframes leafAnimate {
        from{
        stroke-dashoffset : 400;
        opacity : 0;
        }
        to{
        stroke-dashoffset : 0;
        opacity : 1;
        }
        }
        @keyframes logo-cog-rotate{
        from{
        transform: translate(-53.9%, -22.9%) rotate(0deg);
        }
        to{
        transform: translate(-53.9%, -22.9%) rotate(360deg);
        }
        }
        @keyframes logo-cog-outline{
        from{
        stroke-dashoffset : 500;
        }
        to{
        stroke-dashoffset : 0;
        }
        }
     </style>
  </defs>
  <g id="Layer_1" data-name="Layer 1">
     <path class="logo-cls-1 logo-cog" d="M182,105.15l-10-4.3a6.23,6.23,0,0,1-3-8.76l5.3-9.49a6.23,6.23,0,0,0-7.74-8.83l-10.1,4a6.23,6.23,0,0,1-8.3-4.09l-3-10.45a6.23,6.23,0,0,0-11.71-.78l-4.31,10a6.23,6.23,0,0,1-8.76,3L111,70.11a6.23,6.23,0,0,0-8.83,7.74l4,10.1a6.22,6.22,0,0,1-4.1,8.29l-10.45,3a6.23,6.23,0,0,0-.77,11.72l10,4.31a6.22,6.22,0,0,1,3,8.76l-5.29,9.48a6.23,6.23,0,0,0,7.74,8.83l10.09-4a6.24,6.24,0,0,1,8.3,4.1l3,10.45a6.23,6.23,0,0,0,11.71.77l4.31-10a6.23,6.23,0,0,1,8.76-3l9.48,5.3a6.24,6.24,0,0,0,8.84-7.74l-4-10.09a6.23,6.23,0,0,1,4.09-8.3l10.45-3A6.23,6.23,0,0,0,182,105.15Zm-31.37,9.37a11.71,11.71,0,0,1-3.21,5,11.59,11.59,0,0,1-5,3.21,11.65,11.65,0,0,1-6,1.34,30.92,30.92,0,0,1-4.29-.56c-2.3-.39-5.33-2.42-6.93-4s-3.64-4.64-4-6.94a31.15,31.15,0,0,1-.56-4.29,15.53,15.53,0,0,1,2.12-7.84l2.43-3.14a15.54,15.54,0,0,1,6.86-4l4.13-.55a11.61,11.61,0,0,1,6,1.34,11.47,11.47,0,0,1,5,3.21l.23.23.05,0s.09.11.14.17a12.17,12.17,0,0,1,.9,1,15.45,15.45,0,0,1,2.95,5.67c.19,1.37.37,2.75.56,4.13A11.73,11.73,0,0,1,150.67,114.52Z" transform="translate(-64.9 -28.75)"/>
  </g>
  <g id="Layer_2" data-name="Layer 2">
     <path class="logo-cls-1 leaf" d="M164.77,74.24s-5-12.5-21.1-22.65c0,0-26.44-16.34-48.07-6,0,0-12.69,5.41-15.65,33.84s-14.22,34-14.22,34,19.84,20.65,65.16,11.88l-.11-.84a16.88,16.88,0,0,1-10.73-15.21C119.66,100.45,127.8,93,136.3,93c9.11,0,15.86,7.44,16.25,16.25a14.35,14.35,0,0,1-2.36,8.39,4.2,4.2,0,0,1,.49.37C174.4,103,164.77,74.24,164.77,74.24Z" transform="translate(-64.9 -28.75)"/>
     <polygon class="logo-cls-1 leaf" points="100.3 9.66 83.47 26.05 79.2 23.13 86.78 0.77 100.3 9.66"/>
  </g>
</svg>