<svg xmlns="http://www.w3.org/2000/svg" viewBox="0 0 690.38 108.12">
   <defs>
      <style>
        .named-cls-1{fill:#4ae3b5;}.named-cls-2{fill:#2a5d67;}.named-cls-3,.named-cls-4{fill:none;}.named-cls-4{stroke:#000;stroke-miterlimit:10;}

@keyframes layers {
  from{ transform: translate(100%, 0%)}
  to{ transform: translate(100%, 0%)}
}
.crossingText{
  stroke:#4AE3B5;
  opacity : 0;
  stroke-width:3px;
  animation: 2s text-outline 1 forwards;
  animation-delay: 3s;
}

.named-leaf-named-cls{
  stroke-width:2px;
  stroke:#2A5D67;
  fill: #4AE3B5;
  opacity : 0;
  stroke-dasharray: 400;
  stroke-dashoffset : 400;
  animation: 2s named-leaf-named-clsAnimate 1 forwards;
  animation-delay: 5s;
}

.named-cog-named-cls{
  stroke-width:2px;
  stroke-dasharray: 500;
  stroke-dashoffset : 500; 
  opacity:0;
  stroke : #333333;
  fill: #8f8f8f; 
  animation: 2s named-cog-named-cls-rotate infinite linear, 6s named-cog-named-cls-outline 1 forwards;
  transform-origin : 68.9% 50.8%;
}

@keyframes named-leaf-named-clsAnimate {
  from{
     stroke-dashoffset : 400;
     transform: translate(0%, 1%);
     opacity : 0;
  }
  to{
     stroke-dashoffset : 0;
     transform: translate(0%, 1%);
     opacity : 0.90;
  }
}

@keyframes named-cog-named-cls-rotate{
  from{
    transform: translate(-.1%, -.2%) rotate(0deg);
  }
  to{
   transform: translate(-.1%, -.2%) rotate(360deg);
  }
}

@keyframes named-cog-named-cls-outline{
  from{
    opacity:0;
    stroke-dashoffset : 500;
  }
  to{
    opacity:1;
    stroke-dashoffset : 0;
  }
}

@keyframes text-outline{
  from{
    opacity : 0;
  }
  to{
    opacity : 1;
  }
}
     </style>
   </defs>
   <g id="Layer_6" data-name="Layer 6">
      <polygon class="named-cls-1" points="618.3 0 690.38 0 690.38 108.12 551.86 108.12 618.3 0"/>
   </g>
   <g id="Layer_5" data-name="Layer 5">
      <polygon class="named-cls-2" points="0 0 0 108.12 551.86 108.12 618.3 0 0 0"/>
   </g>
   <g id="Layer_3" data-name="Layer 3">
      <path class="crossingText" d="M86.27,35A16.64,16.64,0,0,1,93.4,47H91.75a15.25,15.25,0,0,0-6.48-10.59,20.78,20.78,0,0,0-12.39-3.88C66,32.49,60.42,34.93,56.25,40c-3.89,4.76-5.84,10.66-5.84,17.86s2,12.82,5.84,17.43a19.6,19.6,0,0,0,15.84,7.2,20.82,20.82,0,0,0,12.82-4.11,19.59,19.59,0,0,0,7.56-12.53h1.65a21.54,21.54,0,0,1-8.06,13.83,22.44,22.44,0,0,1-14,4.54c-7.13,0-12.89-2.6-17.21-7.78-4.18-5-6.19-11.16-6.19-18.58S50.78,43.94,55,38.89c4.47-5.47,10.44-8.13,17.93-8.13A21.83,21.83,0,0,1,86.27,35Z"/>
      <path class="crossingText" d="M123.71,31.77c5,0,8.86,1.15,11.67,3.6s4.1,5.68,4.1,10.08a13.91,13.91,0,0,1-2.66,8.35,13,13,0,0,1-7.71,4.46v.15c5.69,1.22,8.79,4.53,9.29,9.86l.65,7.35a17.51,17.51,0,0,0,2.09,7.56h-1.95a18,18,0,0,1-1.8-7.13l-.64-7.63a9,9,0,0,0-4.18-7.35,16.86,16.86,0,0,0-8.71-1.94H104.49V83.18h-1.73V31.77ZM104.49,57.4h19.29c4.47,0,8-1.15,10.52-3.46a11.06,11.06,0,0,0,3.45-8.49c0-3.89-1.08-6.77-3.24-8.79-2.37-2.16-6-3.17-10.8-3.17H104.49Z"/>
      <path class="crossingText"  d="M188.58,38.61c4,4.89,6.13,11.23,6.13,18.86s-2.09,13.9-6.2,18.87c-4.39,5.18-10.29,7.85-17.71,7.85s-13.39-2.67-17.71-7.85c-4.18-5-6.2-11.24-6.2-18.87s2-14,6.2-18.86c4.39-5.26,10.29-7.85,17.78-7.85S184.19,33.35,188.58,38.61Zm-34.13,1.15q-5.82,6.91-5.83,17.71c0,7.2,1.87,13.11,5.76,17.72,4,4.82,9.51,7.27,16.42,7.27s12.31-2.45,16.42-7.27C191,70.58,193,64.67,193,57.47S191,44.29,187.22,39.76c-4-4.9-9.51-7.27-16.35-7.27S158.49,34.86,154.45,39.76Z"/>
      <path class="crossingText"  d="M232.07,35.08A17.41,17.41,0,0,1,237.54,47h-1.72c-.44-4.61-2.09-8.14-4.9-10.66s-6.77-3.81-11.66-3.81-8.57.86-11.38,2.73a9.37,9.37,0,0,0-4.61,8.5c0,3.31,1.87,6,5.69,7.92a68.59,68.59,0,0,0,10.58,3.46c6.27,1.58,10.66,3.16,13.11,4.75a12.2,12.2,0,0,1,.57,20.81c-3.45,2.3-7.92,3.53-13.32,3.53q-8.42,0-13.39-4.32c-3.6-3.17-5.62-7.71-6-13.69h1.66c.43,5.41,2.3,9.51,5.61,12.39q4.54,3.89,12.1,3.89c5,0,9.15-1.08,12.39-3.24A10.19,10.19,0,0,0,237,70.5a10.36,10.36,0,0,0-5.54-9.36c-2.24-1.36-6.34-2.8-12.24-4.32s-9.94-3-11.81-4c-4-2.16-5.91-5.25-5.91-9.14A10.88,10.88,0,0,1,207,33.78c3.17-2,7.2-3,12.25-3C224.58,30.76,228.9,32.2,232.07,35.08Z"/>
      <path class="crossingText"  d="M275.42,35.08A17.45,17.45,0,0,1,280.89,47h-1.73c-.43-4.61-2.09-8.14-4.9-10.66s-6.77-3.81-11.66-3.81-8.57.86-11.38,2.73a9.39,9.39,0,0,0-4.61,8.5c0,3.31,1.88,6,5.69,7.92a68.83,68.83,0,0,0,10.59,3.46c6.26,1.58,10.65,3.16,13.1,4.75a12.21,12.21,0,0,1,.58,20.81c-3.46,2.3-7.92,3.53-13.32,3.53q-8.43,0-13.4-4.32c-3.6-3.17-5.61-7.71-6-13.69h1.66c.43,5.41,2.3,9.51,5.62,12.39q4.53,3.89,12.09,3.89c5,0,9.15-1.08,12.39-3.24a10.17,10.17,0,0,0,4.82-8.72,10.36,10.36,0,0,0-5.54-9.36c-2.23-1.36-6.34-2.8-12.24-4.32s-9.94-3-11.81-4c-4-2.16-5.91-5.25-5.91-9.14a10.87,10.87,0,0,1,5.48-9.94c3.17-2,7.2-3,12.24-3C267.93,30.76,272.25,32.2,275.42,35.08Z"/>
      <path class="crossingText"  d="M292.84,31.77V83.18h-1.73V31.77Z"/>
      <path class="crossingText"  d="M307.38,31.77,342.3,81.38h.15V31.77h1.72V83.18h-2.59l-35-49.83h-.15V83.18h-1.72V31.77Z"/>
      <path class="crossingText"  d="M391.19,35.87a21.86,21.86,0,0,1,6.63,12.82H396a19.31,19.31,0,0,0-6-11.52c-3.46-3.17-8-4.68-13.61-4.68-6.84,0-12.24,2.52-16.28,7.63-3.74,4.61-5.54,10.51-5.54,17.64s1.94,13,5.83,17.43c4.18,4.82,9.94,7.27,17.28,7.27a34.68,34.68,0,0,0,10-1.51,27.07,27.07,0,0,0,7.92-3.75V59.92H375.35V58.19h22V78.07a26.94,26.94,0,0,1-8.5,4.39,37.57,37.57,0,0,1-11.16,1.73c-8.06,0-14.25-2.67-18.72-7.85-4.1-4.83-6.12-11-6.12-18.58s1.95-13.75,6-18.72c4.32-5.55,10.15-8.28,17.57-8.28C382.41,30.76,387.37,32.41,391.19,35.87Z"/>
      <path class="crossingText"  d="M429.92,31.77c4.25,0,7.71,1,10.37,3.16a11.91,11.91,0,0,1,4.25,9.72,11.38,11.38,0,0,1-2.81,7.71,12.63,12.63,0,0,1-6.77,4,13.89,13.89,0,0,1,8.29,4.18,12.38,12.38,0,0,1,3.31,8.57q0,7-5.19,10.8c-3.09,2.16-7.05,3.24-11.95,3.24H407.89V31.77ZM409.62,55.6h20.23A14.31,14.31,0,0,0,439,52.79a9.83,9.83,0,0,0,3.81-8.14,10.15,10.15,0,0,0-3.74-8.42c-2.38-1.87-5.47-2.74-9.29-2.74H409.62Zm0,25.85h20.45a17.69,17.69,0,0,0,10.37-2.88,11.1,11.1,0,0,0,4.39-9.36,10.35,10.35,0,0,0-4.61-9,17.62,17.62,0,0,0-10.44-2.88H409.62Z"/>
      <path class="crossingText"  d="M541.31,31.77v1.72H521.15V83.18h-1.73V33.49H499.19V31.77Z"/>
   </g>
   <g id="Layer_4" data-name="Layer 4">
      <line class="named-cls-3" x1="58.95" y1="97.66" x2="541.31" y2="97.66"/>
   </g>
   <g id="Layer_1" data-name="Layer 1">
      <path class="named-cls-4 named-cog-named-cls" d="M504.5,52.81l-6.28-2.71a3.92,3.92,0,0,1-1.87-5.52l3.33-6a3.92,3.92,0,0,0-4.87-5.56l-6.36,2.52A3.93,3.93,0,0,1,483.22,33l-1.86-6.58a3.92,3.92,0,0,0-7.38-.49l-2.71,6.29a3.94,3.94,0,0,1-5.52,1.87l-6-3.34a3.92,3.92,0,0,0-5.56,4.87L456.74,42a3.93,3.93,0,0,1-2.58,5.23l-6.59,1.86a3.93,3.93,0,0,0-.48,7.38l6.28,2.72a3.91,3.91,0,0,1,1.87,5.51l-3.34,6a3.93,3.93,0,0,0,4.88,5.56l6.36-2.52a3.93,3.93,0,0,1,5.23,2.57l1.86,6.59a3.93,3.93,0,0,0,7.38.49l2.71-6.29a3.93,3.93,0,0,1,5.52-1.87l6,3.34a3.93,3.93,0,0,0,5.57-4.88l-2.53-6.36a3.92,3.92,0,0,1,2.58-5.22L504,60.19A3.93,3.93,0,0,0,504.5,52.81Zm-19.76,5.9a8.87,8.87,0,0,1-5.18,5.18,7.38,7.38,0,0,1-3.77.84,20.39,20.39,0,0,1-2.7-.35,9.86,9.86,0,0,1-4.37-2.54,9.75,9.75,0,0,1-2.53-4.37,19,19,0,0,1-.35-2.7,9.74,9.74,0,0,1,1.33-4.94l1.53-2A9.85,9.85,0,0,1,473,45.33l2.6-.35a11,11,0,0,1,6.92,2.87l.14.15,0,0,.1.11a6.75,6.75,0,0,1,.56.64,9.68,9.68,0,0,1,1.86,3.57c.12.87.23,1.73.35,2.6A7.38,7.38,0,0,1,484.74,58.71Z"/>
   </g>
   <g id="Layer_2" data-name="Layer 2">
      <path class="named-cls-4 named-leaf-named-cls" d="M494.09,33.36S491,25.49,480.8,19.09c0,0-16.65-10.29-30.27-3.78,0,0-8,3.41-9.87,21.32s-9,21.4-9,21.4,12.49,13,41.05,7.48l-.08-.53a10.67,10.67,0,0,1-6.76-9.58c-.24-5.53,4.89-10.24,10.24-10.24A10.42,10.42,0,0,1,486.4,55.4a9,9,0,0,1-1.49,5.28,2.34,2.34,0,0,1,.31.24C500.16,51.44,494.09,33.36,494.09,33.36Z"/>
      <polygon class="named-cls-4 named-leaf-named-cls" points="495.31 10.78 484.71 21.11 482.02 19.27 486.8 5.19 495.31 10.78"/>
   </g>
</svg>