<svg xmlns="http://www.w3.org/2000/svg" viewBox="0 0 178 82.47">
    <defs>
       <style>
          .pocket-cls-1{fill:#00a99d;}.pocket-cls-2{fill:#fff;}.pocket-cls-3{fill:#00393b;stroke-width:5px;}.pocket-cls-3,.pocket-cls-5{stroke:gray;}.pocket-cls-3,.pocket-cls-5,.pocket-cls-6{stroke-miterlimit:10;}.pocket-cls-4{fill:#0768d3;}.pocket-cls-5{fill:gray;}.pocket-cls-6{fill:none;stroke:#f7931e;}
          .zipper{
          stroke-dasharray: 2;
          stroke-dashoffset : 150;
          transition: 4s all;
          }
          .p{
          fill : #ffa500;
          }
          svg:hover .zipper{
          stroke-dashoffset : 0;
          }
       </style>
    </defs>
    <g id="pocket">
       <path class="pocket-cls-1" d="M209.27,89.54C160.63,115,94.41,113.67,47.83,88.45,39,105,40.81,132.31,51.72,152a32.15,32.15,0,0,0,28.09,16.46c25.52.1,78-.09,103.56-.11A26.31,26.31,0,0,0,208,151.63C215.71,131.45,216.28,103.7,209.27,89.54Z" transform="translate(-42.21 -86.05)"/>
       <path class="pocket-cls-2" d="M47.83,88.45a357.91,357.91,0,0,0,79.52,9.74,359.29,359.29,0,0,0,81.92-8.65" transform="translate(-42.21 -86.05)"/>
    </g>
    <g id="zipper">
       <path class="pocket-cls-3 zipper" d="M208.86,89.63c.06,0,.09.06,0,.09A181.71,181.71,0,0,1,130.12,108,181.82,181.82,0,0,1,48.2,88.64c-.05,0,0-.1,0-.09a358.6,358.6,0,0,0,81.23,9.65A359,359,0,0,0,208.86,89.63Z" transform="translate(-42.21 -86.05)"/>
       <text x="-42.21" y="-86.05"/>
    </g>
    <g id="p">
       <path class="pocket-cls-4 p" d="M143.44,133.93a10.52,10.52,0,0,1-.95,4.66,8.43,8.43,0,0,1-2.6,3.11,11.21,11.21,0,0,1-3.85,1.74,19.25,19.25,0,0,1-4.74.56v6.3h-8.44V123.86h8.44a19.26,19.26,0,0,1,4.74.55,11,11,0,0,1,3.85,1.75,8.43,8.43,0,0,1,2.6,3.11A10.46,10.46,0,0,1,143.44,133.93Zm-3.85,0a7.27,7.27,0,0,0-.61-3.1,5.67,5.67,0,0,0-1.73-2.14,7.88,7.88,0,0,0-2.64-1.25,12.82,12.82,0,0,0-3.31-.41h-4.48v20.1h1v-6.3h3.45a12.4,12.4,0,0,0,3.31-.42,7.69,7.69,0,0,0,2.64-1.25A5.6,5.6,0,0,0,139,137,7.19,7.19,0,0,0,139.59,133.93Zm-1.11,0a6.23,6.23,0,0,1-.59,2.85,4.9,4.9,0,0,1-1.59,1.83,6.69,6.69,0,0,1-2.28,1,11.93,11.93,0,0,1-2.72.3h-3.45V128h3.45a11.93,11.93,0,0,1,2.72.3,6.69,6.69,0,0,1,2.28,1,4.94,4.94,0,0,1,1.59,1.82A6.28,6.28,0,0,1,138.48,133.93Zm-7.18,2.93h.36a3.22,3.22,0,0,0,2.4-.77,3,3,0,0,0,.73-2.16,3,3,0,0,0-.73-2.16,3.18,3.18,0,0,0-2.4-.78h-.36Z" transform="translate(-42.21 -86.05)"/>
    </g>
    <g id="zip">
       <path class="pocket-cls-5 zip" d="M209.27,89.54c-3.5.67-6.15,21.48,2.51,26.3,1.72,1,4.88,1.83,6.58.34C223.37,111.78,213.15,88.79,209.27,89.54Zm4.24,20.81a1.78,1.78,0,0,1,0-3.56A1.78,1.78,0,0,1,213.51,110.35Z" transform="translate(-42.21 -86.05)"/>
       <path class="pocket-cls-6" d="M232.89,95.77" transform="translate(-42.21 -86.05)"/>
    </g>
 </svg>